<?xml version="1.0" standalone="no"?>
<!DOCTYPE svg PUBLIC "-//W3C//DTD SVG 1.1//EN" "http://www.w3.org/Graphics/SVG/1.1/DTD/svg11.dtd">
<svg xmlns="http://www.w3.org/2000/svg"><metadata>This SVG WebFont was generated by YouWorkForThem.
Copyright Â© 2020 by Adam Ladd. All rights reserved.</metadata><defs><font horiz-adv-x="1357" id="ywftsvg"><font-face ascent="1597" bbox="-1382 -451 2630 1847" cap-height="1413" descent="-451" font-family="" font-stretch="normal" font-weight="300" panose-1="0 0 4 0 0 0 0 0 0 0" underline-position="0" underline-thickness="0" unicode-range="U+0020-FB02" units-per-em="2048" x-height="1044"/><missing-glyph d="M840 1597v-2048h-650v2048h650zM682 1460h-338v-67h133v-76h-135v-68h340v68h-135v76h135v67zM547 1196h-205v-213h340v70h-135v143zM477 1126v-73h-67v73h67zM682 928h-340v-68h135v-76h-135v-67h205v143h135v68zM682 805h-68v-135h-272v-70h340v205zM682 555h-205v-115 h70v47h67v-96h-204v164h-68v-231h340v231zM682 201h-340v-232h340v232zM614 133v-96h-204v96h204zM682 -78h-340v-67h143l-143 -97v-67h340v67h-209l143 97h66v67z" horiz-adv-x="1024"/><glyph d="M283 1221q0 137 71.5 207.5t206.5 70.5q92 0 174 -41v-106q-68 37 -149 37q-184 0 -185 -177v-168h328v-108h-328v-936h-118v936h-205v108h205v177zM1018 1460q37 0 62.5 -24.5t25.5 -59.5q0 -37 -25.5 -61.5t-62.5 -24.5q-35 0 -60.5 24.5t-25.5 61.5q0 35 25.5 59.5 t60.5 24.5zM958 0v1044h119v-1044h-119z" glyph-name="uniFB01" horiz-adv-x="1241" unicode="fi"/><glyph d="M283 1221q0 137 71.5 207.5t206.5 70.5q92 0 174 -41v-106q-68 37 -149 37q-184 0 -185 -177v-168h328v-108h-328v-936h-118v936h-205v108h205v177zM958 1475h119v-1475h-119v1475z" glyph-name="uniFB02" horiz-adv-x="1241" unicode="fl"/><glyph d="M840 1597v-2048h-650v2048h650zM682 1460h-338v-67h133v-76h-135v-68h340v68h-135v76h135v67zM547 1196h-205v-213h340v70h-135v143zM477 1126v-73h-67v73h67zM682 928h-340v-68h135v-76h-135v-67h205v143h135v68zM682 805h-68v-135h-272v-70h340v205zM682 555h-205v-115 h70v47h67v-96h-204v164h-68v-231h340v231zM682 201h-340v-232h340v232zM614 133v-96h-204v96h204zM682 -78h-340v-67h143l-143 -97v-67h340v67h-209l143 97h66v67z" glyph-name=".notdef" horiz-adv-x="1024"/><glyph glyph-name="glyph1" horiz-adv-x="0"/><glyph glyph-name="glyph2" horiz-adv-x="681"/><glyph glyph-name="space" horiz-adv-x="532" unicode=" "/><glyph d="M190 362l-6 703v348h125v-348l-6 -703h-113zM248 -10q-41 0 -68.5 26.5t-27.5 67.5t27.5 67.5t68.5 26.5q39 0 66.5 -27.5t27.5 -66.5q0 -41 -26.5 -67.5t-67.5 -26.5z" glyph-name="exclam" horiz-adv-x="493" unicode="!"/><glyph d="M152 956l-7 457h117l-6 -457h-104zM522 956l-6 457h119l-8 -457h-105z" glyph-name="quotedbl" horiz-adv-x="778" unicode="&quot;"/><glyph d="M1450 899h-283l-114 -385h290v-104h-319l-121 -410h-112l120 410h-465l-118 -410h-115l121 410h-254v104h282l115 385h-289v105h318l121 409h112l-118 -409h462l121 409h113l-121 -409h254v-105zM940 514l115 385h-465l-113 -385h463z" glyph-name="numbersign" horiz-adv-x="1548" unicode="#"/><glyph d="M1087 377q0 -158 -128 -263.5t-322 -115.5v-139h-94v139q-133 10 -255 68.5t-206 150.5l68 92q154 -172 393 -196v553q-420 102 -420 383q0 154 117.5 254t302.5 112v141h94v-141q242 -16 379 -176l-66 -90q-104 129 -313 151v-528q450 -102 450 -395zM254 1057 q0 -188 289 -264v507q-127 -10 -208 -77.5t-81 -165.5zM637 113q139 10 228 78.5t89 177.5q0 193 -317 276v-532z" glyph-name="dollar" horiz-adv-x="1134" unicode="$"/><glyph d="M428 803q-137 0 -228 91t-91 226q0 137 91 227.5t228 90.5t228.5 -90.5t91.5 -227.5q0 -135 -91.5 -226t-228.5 -91zM262 0l1024 1413h131l-1024 -1413h-131zM428 903q92 0 153.5 61.5t61.5 155.5t-61.5 156.5t-153.5 62.5q-94 0 -155.5 -62.5t-61.5 -156.5t61.5 -155.5 t155.5 -61.5zM1251.5 -25q-137.5 0 -228.5 91.5t-91 226.5t91 226t228.5 91t228.5 -91t91 -226t-91 -226.5t-228.5 -91.5zM1251 74q92 0 154.5 62.5t62.5 156.5t-62.5 155.5t-154.5 61.5t-154.5 -61.5t-62.5 -155.5t62.5 -156.5t154.5 -62.5z" glyph-name="percent" horiz-adv-x="1677" unicode="%"/><glyph d="M1350 0h-162l-158 172q-184 -197 -442 -197q-215 0 -358.5 126t-143.5 321q0 152 85 250t230 180q-150 178 -149 311q0 117 92 196t225 79q135 0 226.5 -79t91.5 -196q0 -109 -81 -184.5t-224 -149.5l446 -483q94 137 146 311l106 -34q-74 -227 -176 -359zM569 1337 q-82 0 -138 -50t-56 -124q0 -96 135 -256q125 63 189.5 120.5t64.5 135.5q0 74 -56.5 124t-138.5 50zM592 88q201 0 360 166l-479 520q-123 -70 -191.5 -149.5t-68.5 -194.5q0 -147 109.5 -244.5t269.5 -97.5z" glyph-name="ampersand" horiz-adv-x="1312" unicode="&amp;"/><glyph d="M152 956l-7 457h117l-6 -457h-104z" glyph-name="quotesingle" horiz-adv-x="407" unicode="'"/><glyph d="M457 -389q-131 174 -210 437t-79 525.5t79 525.5t210 437h121q-129 -174 -207 -437t-78 -525.5t78 -525.5t207 -437h-121z" glyph-name="parenleft" horiz-adv-x="626" unicode="("/><glyph d="M51 -389q129 174 207 437t78 525.5t-78 525.5t-207 437h121q129 -174 209 -437t80 -525.5t-80 -525.5t-209 -437h-121z" glyph-name="parenright" horiz-adv-x="626" unicode=")"/><glyph d="M457 1176l35 -15l178 -102l-41 -68l-178 101l-29 22l6 -35v-205h-82v205l6 35l-28 -22l-179 -101l-41 68l181 104l28 13l-28 12l-181 102l41 70l181 -103l26 -22l-6 35v205h82v-205l-6 -35l29 22l178 103l41 -70l-178 -102z" glyph-name="asterisk" horiz-adv-x="774" unicode="*"/><glyph d="M956 659v-108h-354v-356h-110v356h-355v108h355v355h110v-355h354z" glyph-name="plus" horiz-adv-x="1093" unicode="+"/><glyph d="M61 -297l142 469h143l-180 -469h-105z" glyph-name="comma" horiz-adv-x="464" unicode=","/><glyph d="M137 504v112h561v-112h-561z" glyph-name="hyphen" horiz-adv-x="835" unicode="-"/><glyph d="M227 -10q-41 0 -68.5 27.5t-27.5 68.5t27.5 68.5t68.5 27.5t70 -27.5t29 -68.5t-29 -68.5t-70 -27.5z" glyph-name="period" horiz-adv-x="454" unicode="."/><glyph d="M39 -307l819 1843h121l-819 -1843h-121z" glyph-name="slash" horiz-adv-x="1015" unicode="/"/><glyph d="M663.5 -25q-237.5 0 -387 204t-149.5 527.5t149.5 527.5t387 204t388 -204t150.5 -527.5t-150.5 -527.5t-388 -204zM664 98q180 0 293.5 170t113.5 438.5t-113.5 438.5t-293.5 170q-178 0 -292 -170t-114 -438.5t114 -438.5t292 -170z" glyph-name="zero" horiz-adv-x="1329" unicode="0"/><glyph d="M459 1413h88v-1413h-127v1262l-316 -172l-55 100z" glyph-name="one" horiz-adv-x="741" unicode="1"/><glyph d="M279 119h729v-119h-908v100l574 625q80 90 122 164t42 153q0 119 -85 194t-214 75q-227 0 -355 -213l-92 78q70 121 189.5 191.5t263.5 70.5q184 0 304 -108.5t120 -280.5q0 -180 -187 -385z" glyph-name="two" horiz-adv-x="1103" unicode="2"/><glyph d="M799 748q131 -41 208.5 -140.5t77.5 -228.5q0 -176 -140 -290t-357 -114q-141 0 -270.5 53.5t-221.5 149.5l78 92q154 -172 406 -172q164 0 270 84t106 211t-101 212t-253 85h-221v111h221q133 0 221 73.5t88 182.5q0 111 -93 184.5t-240 73.5q-233 0 -355 -158l-73 88 q78 92 194.5 142.5t245.5 50.5q199 0 325.5 -103.5t126.5 -261.5q0 -111 -65 -197.5t-178 -127.5z" glyph-name="three" horiz-adv-x="1183" unicode="3"/><glyph d="M1137 465v-119h-205v-346h-127v346h-703l-30 100l727 967h133v-948h205zM215 465h590v780z" glyph-name="four" horiz-adv-x="1198" unicode="4"/><glyph d="M631 885q207 0 345 -130t138 -323q0 -195 -146.5 -326t-367.5 -131q-287 0 -483 222l69 98q158 -197 406 -197q170 0 280.5 96.5t110.5 240t-104.5 238.5t-262.5 95q-92 0 -180 -34t-147 -91l-111 37l68 733h770v-119h-662l-49 -512q142 103 326 103z" glyph-name="five" horiz-adv-x="1204" unicode="5"/><glyph d="M627 879q201 0 333 -127t132 -314q0 -199 -145.5 -331t-368.5 -132q-238 0 -379.5 142.5t-141.5 394.5q0 328 236.5 589t605.5 337l25 -117q-279 -70 -463.5 -236.5t-243.5 -384.5q61 86 173 132.5t237 46.5zM580 98q164 0 272.5 96.5t108.5 241.5q0 139 -103.5 232.5 t-263.5 93.5t-284 -80t-124 -231q0 -154 108 -253.5t286 -99.5z" glyph-name="six" horiz-adv-x="1138" unicode="6"/><glyph d="M102 1413h906v-98l-629 -1315h-143l622 1294h-756v119z" glyph-name="seven" horiz-adv-x="1079" unicode="7"/><glyph d="M817 731q129 -47 206 -141t77 -215q0 -170 -143.5 -285t-358.5 -115q-213 0 -357.5 115t-144.5 285q0 121 77 215t208 141q-117 47 -184.5 135t-67.5 199q0 160 133 266.5t336 106.5t337 -106.5t134 -266.5q0 -111 -67.5 -199t-184.5 -135zM258 1052.5 q0 -112.5 97.5 -188.5t242.5 -76t242.5 76t97.5 188.5t-97.5 187.5t-242.5 75t-242.5 -75t-97.5 -187.5zM598 98q160 0 265.5 82t105.5 205t-105.5 205t-265.5 82q-158 0 -264.5 -82t-106.5 -205t106.5 -205t264.5 -82z" glyph-name="eight" horiz-adv-x="1198" unicode="8"/><glyph d="M561 1438q238 0 379 -142.5t141 -394.5q0 -334 -234.5 -600t-606.5 -326l-25 117q285 55 467 226t242 399q-61 -88 -174 -135t-238 -47q-201 0 -333 126.5t-132 313.5q0 199 145.5 331t368.5 132zM545 651q160 0 282.5 80t122.5 232q0 154 -107.5 253t-283.5 99 q-164 0 -272.5 -96.5t-108.5 -241.5q0 -139 103.5 -232.5t263.5 -93.5z" glyph-name="nine" horiz-adv-x="1138" unicode="9"/><glyph d="M238 752q-41 0 -69 27.5t-28 68.5t28 68.5t69 27.5t69.5 -27.5t28.5 -68.5t-28.5 -68.5t-69.5 -27.5zM238 -10q-41 0 -69 27.5t-28 68.5t28 68.5t69 27.5t69.5 -27.5t28.5 -68.5t-28.5 -68.5t-69.5 -27.5z" glyph-name="colon" horiz-adv-x="475" unicode=":"/><glyph d="M266 752q-41 0 -69.5 27.5t-28.5 68.5t28.5 68.5t69.5 27.5t68.5 -27.5t27.5 -68.5t-27.5 -68.5t-68.5 -27.5zM57 -297l142 469h143l-178 -469h-107z" glyph-name="semicolon" horiz-adv-x="499" unicode=";"/><glyph d="M813 1010v-121l-563 -283l563 -282v-121l-676 348v111z" glyph-name="less" horiz-adv-x="950" unicode="&lt;"/><glyph d="M137 717v106h819v-106h-819zM137 387v107h819v-107h-819z" glyph-name="equal" horiz-adv-x="1093" unicode="="/><glyph d="M137 1010l676 -348v-111l-676 -348v121l563 282l-563 283v121z" glyph-name="greater" horiz-adv-x="950" unicode=">"/><glyph d="M420 371v75q0 84 54 169t117.5 145.5t118 143.5t54.5 163q0 109 -81 179.5t-204 70.5q-106 0 -203.5 -57.5t-158.5 -153.5l-86 80q74 117 194.5 184.5t259.5 67.5q174 0 291 -104.5t117 -258.5q0 -80 -36 -155.5t-88 -133t-103.5 -110.5t-87 -112.5t-35.5 -117.5v-75 h-123zM481 -10q-41 0 -68.5 26.5t-27.5 67.5t27.5 67.5t68.5 26.5q39 0 66.5 -27.5t27.5 -66.5q0 -41 -26.5 -67.5t-67.5 -26.5z" glyph-name="question" horiz-adv-x="987" unicode="?"/><glyph d="M1110 905h119v-518q0 -47 29.5 -76.5t78.5 -29.5q74 0 120 86t46 219q0 258 -181 430t-450 172q-272 0 -453 -181.5t-181 -453.5t181 -453.5t453 -181.5q244 0 406 135l65 -92q-207 -152 -473 -151q-319 0 -533 213t-214 530t215 530t534 213q317 0 531.5 -203.5 t214.5 -508.5q0 -178 -77 -290t-204 -112q-84 0 -144 41t-77 109q-92 -158 -287 -158q-160 0 -264 108.5t-104 268.5q0 162 104.5 270.5t257.5 108.5q188 0 287 -156v131zM848 291q113 0 187.5 74.5t74.5 187.5q0 111 -74.5 185.5t-187.5 74.5t-187.5 -73.5t-74.5 -186.5 t74.5 -187.5t187.5 -74.5z" glyph-name="at" horiz-adv-x="1738" unicode="@"/><glyph d="M1257 0l-161 387h-742l-161 -387h-138l596 1413h152l596 -1413h-142zM403 504h646l-324 774z" glyph-name="A" horiz-adv-x="1454" unicode="A"/><glyph d="M915 748q123 -29 200 -129.5t77 -237.5q0 -164 -110.5 -272.5t-274.5 -108.5h-625v1413h576q152 0 253 -100.5t101 -249.5q0 -106 -55.5 -192t-141.5 -123zM731 1298h-426v-510h426q102 0 177 74t75 182.5t-71.5 181t-180.5 72.5zM780 115q119 0 200 82t81 202.5 t-80 200.5t-201 80h-475v-565h475z" glyph-name="B" horiz-adv-x="1261" unicode="B"/><glyph d="M838 -25q-315 0 -526.5 210t-211.5 521.5t211 521.5t527 210q193 0 353.5 -85t260.5 -233l-111 -67q-82 123 -214 192.5t-289 69.5q-258 0 -432.5 -174t-174.5 -434.5t174.5 -434.5t432.5 -174q158 0 290 70t213 192l111 -67q-100 -147 -260.5 -232.5t-353.5 -85.5z" glyph-name="C" horiz-adv-x="1540" unicode="C"/><glyph d="M721 1413q305 0 508 -201.5t203 -505t-203 -505t-508 -201.5h-539v1413h539zM719 119q250 0 417 168t167 419.5t-167 419.5t-417 168h-412v-1175h412z" glyph-name="D" horiz-adv-x="1533" unicode="D"/><glyph d="M307 119h795v-119h-920v1413h910v-119h-785v-524h717v-119h-717v-532z" glyph-name="E" horiz-adv-x="1210" unicode="E"/><glyph d="M1061 1294h-754v-536h666v-119h-666v-639h-125v1413h879v-119z" glyph-name="F" horiz-adv-x="1144" unicode="F"/><glyph d="M899 725h649v-41q0 -305 -203.5 -507t-508.5 -202q-313 0 -524.5 210t-211.5 521.5t211 521.5t527 210q188 0 346.5 -81t255.5 -222l-97 -74q-82 119 -214 187.5t-289 68.5q-260 0 -434.5 -175t-174.5 -435.5t174.5 -435.5t434.5 -175q236 0 399.5 145.5t177.5 370.5 h-518v113z" glyph-name="G" horiz-adv-x="1638" unicode="G"/><glyph d="M1198 1413h127v-1413h-127v651h-891v-651h-125v1413h125v-643h891v643z" glyph-name="H" horiz-adv-x="1507" unicode="H"/><glyph d="M182 0v1413h125v-1413h-125z" glyph-name="I" horiz-adv-x="489" unicode="I"/><glyph d="M311 -25q-131 0 -250 62v125q117 -63 238 -64q137 0 219 81t82 212v1022h125v-1026q0 -184 -114 -298t-300 -114z" glyph-name="J" horiz-adv-x="872" unicode="J"/><glyph d="M1135 0l-637 637l-191 -186v-451h-125v1413h125v-790l811 790h166l-698 -690l719 -723h-170z" glyph-name="K" horiz-adv-x="1292" unicode="K"/><glyph d="M307 119h733v-119h-858v1413h125v-1294z" glyph-name="L" horiz-adv-x="1110" unicode="L"/><glyph d="M1417 1413h158v-1413h-125v1229l-537 -903h-69l-537 903v-1229h-125v1413h162l537 -903z" glyph-name="M" horiz-adv-x="1757" unicode="M"/><glyph d="M1214 1413h127v-1413h-137l-897 1212v-1212h-125v1413h135l897 -1212v1212z" glyph-name="N" horiz-adv-x="1521" unicode="N"/><glyph d="M838 -25q-315 0 -526.5 210t-211.5 521.5t211 521.5t527 210q313 0 525 -210t212 -521.5t-212 -521.5t-525 -210zM838 98q258 0 432 174t174 434.5t-174 434.5t-432 174t-432.5 -174t-174.5 -434.5t174.5 -434.5t432.5 -174z" glyph-name="O" horiz-adv-x="1675" unicode="O"/><glyph d="M741 1413q184 0 307 -122t123 -304t-122.5 -305t-307.5 -123h-434v-559h-125v1413h559zM739 678q129 0 216 89t87 220t-87 219t-216 88h-432v-616h432z" glyph-name="P" horiz-adv-x="1249" unicode="P"/><glyph d="M1575 707q0 -180 -76 -333t-211 -253l152 -215l-101 -68l-153 219q-158 -82 -348 -82q-315 0 -526.5 210t-211.5 521.5t211 521.5t527 210q313 0 525 -210t212 -521zM838 98q147 0 276 62l-151 215l100 67l154 -217q227 178 227 482q0 260 -174 434t-432 174t-432.5 -174 t-174.5 -434.5t174.5 -434.5t432.5 -174z" glyph-name="Q" horiz-adv-x="1675" unicode="Q"/><glyph d="M1022 0l-485 598h-230v-598h-125v1413h553q178 0 297 -116.5t119 -292.5q0 -174 -119 -290t-295 -116h-47l488 -598h-156zM307 1294v-585h426q123 0 206 84t83 208.5t-83 208.5t-206 84h-426z" glyph-name="R" horiz-adv-x="1253" unicode="R"/><glyph d="M618 -25q-156 0 -298 59.5t-236 164.5l70 94q80 -90 203.5 -146.5t260.5 -56.5q162 0 270.5 76t108.5 196q0 74 -41 129.5t-116.5 89t-123.5 48t-122 28.5q-469 102 -469 400q0 170 136 275.5t347 105.5q291 0 451 -181l-66 -92q-55 68 -159.5 113t-225.5 45 q-154 0 -254 -73.5t-100 -186.5q0 -209 375 -283q57 -12 108 -25.5t128 -47t130.5 -75.5t93 -110.5t39.5 -152.5q0 -172 -146.5 -283t-363.5 -111z" glyph-name="S" horiz-adv-x="1200" unicode="S"/><glyph d="M1149 1413v-119h-479v-1294h-125v1294h-479v119h1083z" glyph-name="T" horiz-adv-x="1214" unicode="T"/><glyph d="M715 -25q-244 0 -407 161t-163 403v874h127v-874q0 -188 126 -314.5t317 -126.5q188 0 314 126t126 315v874h127v-874q0 -242 -162.5 -403t-404.5 -161z" glyph-name="U" horiz-adv-x="1427" unicode="U"/><glyph d="M1247 1413h139l-598 -1413h-135l-598 1413h144l524 -1253z" glyph-name="V" horiz-adv-x="1441" unicode="V"/><glyph d="M1905 1413h131l-459 -1413h-129l-395 1233l-398 -1233h-131l-458 1413h135l393 -1251l401 1251h117l399 -1251z" glyph-name="W" horiz-adv-x="2101" unicode="W"/><glyph d="M1386 0h-155l-504 625l-504 -625h-155l571 711l-563 702h157l496 -622l494 622h155l-563 -702z" glyph-name="X" horiz-adv-x="1454" unicode="X"/><glyph d="M1206 1413h142l-594 -872v-541h-127v541l-596 872h147l514 -749z" glyph-name="Y" horiz-adv-x="1380" unicode="Y"/><glyph d="M264 119h901v-119h-1073v90l887 1204h-879v119h1051v-90z" glyph-name="Z" horiz-adv-x="1257" unicode="Z"/><glyph d="M588 1423h-279v-1699h279v-113h-400v1925h400v-113z" glyph-name="bracketleft" horiz-adv-x="657" unicode="["/><glyph d="M858 -307l-819 1843h121l819 -1843h-121z" glyph-name="backslash" horiz-adv-x="1015" unicode="\"/><glyph d="M70 1536h399v-1925h-399v113h278v1699h-278v113z" glyph-name="bracketright" horiz-adv-x="657" unicode="]"/><glyph d="M719 932h-113l-194 379l-195 -379h-113l252 481h113z" glyph-name="asciicircum" horiz-adv-x="823" unicode="^"/><glyph d="M100 -291v103h889v-103h-889z" glyph-name="underscore" horiz-adv-x="1089" unicode="_"/><glyph d="M244 1194l-244 250h158l215 -250h-129z" glyph-name="grave" horiz-adv-x="372" unicode="`"/><glyph d="M1077 1044h119v-1044h-119v242q-66 -123 -184.5 -195t-265.5 -72q-227 0 -379 157t-152 390.5t151.5 390t379.5 156.5q147 0 266 -71.5t184 -194.5v241zM647 90q184 0 307 124t123 308.5t-123 308t-307 123.5q-182 0 -305 -123.5t-123 -308t123 -308.5t305 -124z" glyph-name="a" unicode="a"/><glyph d="M731 1069q229 0 381 -156.5t152 -390t-151.5 -390.5t-381.5 -157q-147 0 -266 72t-184 195v-242h-119v1475h119v-672q66 123 184.5 194.5t265.5 71.5zM710.5 90q184.5 0 307.5 124t123 308.5t-123 308t-307.5 123.5t-307 -123.5t-122.5 -308t122.5 -308.5t307 -124z" glyph-name="b" unicode="b"/><glyph d="M647 -25q-236 0 -394.5 157t-158.5 390.5t159 390t394 156.5q154 0 279 -70.5t196 -191.5l-104 -64q-55 96 -153.5 153.5t-217.5 57.5q-184 0 -307 -123.5t-123 -308t123 -308.5t307 -124q119 0 217.5 57.5t153.5 153.5l104 -63q-72 -121 -196.5 -192t-278.5 -71z" glyph-name="c" horiz-adv-x="1204" unicode="c"/><glyph d="M1077 1475h119v-1475h-119v242q-66 -123 -184.5 -195t-265.5 -72q-227 0 -379 157t-152 390.5t151.5 390t379.5 156.5q147 0 266 -71.5t184 -194.5v672zM647 90q184 0 307 124t123 308.5t-123 308t-307 123.5q-182 0 -305 -123.5t-123 -308t123 -308.5t305 -124z" glyph-name="d" unicode="d"/><glyph d="M1182 522q0 -18 -4 -51h-959q18 -170 142 -277.5t303 -107.5q125 0 229 54.5t162 144.5l84 -70q-76 -113 -202 -176.5t-278 -63.5q-242 0 -403.5 158t-161.5 391.5t156 389t389 155.5q231 0 387 -155.5t156 -391.5zM637 958q-166 0 -282.5 -106.5t-135.5 -273.5h838 q-18 168 -135 274t-285 106z" glyph-name="e" horiz-adv-x="1269" unicode="e"/><glyph d="M586 1389q-184 0 -185 -177v-168h328v-108h-328v-936h-118v936h-205v108h205v177q0 137 71.5 207.5t206.5 70.5q92 0 174 -41v-106q-67 37 -149 37z" glyph-name="f" horiz-adv-x="778" unicode="f"/><glyph d="M819 -45q143 0 234.5 -70.5t99.5 -191.5l-123 -29q-2 78 -65.5 126t-165.5 48h-412q-121 0 -195.5 63.5t-74.5 166.5q0 70 32.5 129t90.5 90q-145 133 -146 331q0 193 134 322t335 129q154 0 273 -80q10 82 69.5 130t149.5 48h78v-110h-72q-63 0 -102 -37t-39 -98v-7 q111 -123 110 -297q0 -193 -133 -320.5t-334 -127.5q-139 0 -248 63q-80 -45 -79 -137q0 -63 47 -102t125 -39h411zM217 618q0 -143 99.5 -239t247 -96t245.5 96t98 239q0 145 -98 241.5t-246 96.5q-150 0 -248 -96.5t-98 -241.5z" glyph-name="g" horiz-adv-x="1148" unicode="g"/><glyph d="M686 1069q197 0 317.5 -120t120.5 -316v-633h-118v598q0 162 -97.5 259t-257.5 97q-166 0 -268 -99t-102 -261v-594h-119v1475h119v-631q122 225 405 225z" glyph-name="h" horiz-adv-x="1273" unicode="h"/><glyph d="M221 1290q-35 0 -60.5 24.5t-25.5 61.5q0 35 25.5 59.5t60.5 24.5q37 0 62.5 -24.5t25.5 -59.5q0 -37 -25.5 -61.5t-62.5 -24.5zM162 0v1044h119v-1044h-119z" glyph-name="i" horiz-adv-x="444" unicode="i"/><glyph d="M236 1290q-37 0 -63 24.5t-26 61.5q0 35 26 59.5t63 24.5q35 0 60.5 -24.5t25.5 -59.5q0 -37 -25.5 -61.5t-60.5 -24.5zM41 -414q-68 0 -125 27v108q43 -25 104 -24q156 0 156 162v1185h119v-1200q0 -125 -66.5 -191.5t-187.5 -66.5z" glyph-name="j" horiz-adv-x="456" unicode="j"/><glyph d="M866 0l-422 459l-163 -170v-289h-119v1475h119v-1026l573 595h156l-482 -499l496 -545h-158z" glyph-name="k" horiz-adv-x="1044" unicode="k"/><glyph d="M162 0v1475h119v-1475h-119z" glyph-name="l" horiz-adv-x="444" unicode="l"/><glyph d="M1403 1069q180 0 289.5 -108.5t109.5 -288.5v-672h-119v639q0 143 -85 229t-228 86q-147 0 -237.5 -88t-90.5 -231v-635h-118v639q0 143 -86 229t-228 86q-147 0 -238 -88t-91 -231v-635h-119v1044h119v-172q117 197 364 197q131 0 227.5 -60.5t139.5 -168.5 q110 229 391 229z" glyph-name="m" horiz-adv-x="1951" unicode="m"/><glyph d="M686 1069q197 0 317.5 -120t120.5 -316v-633h-118v598q0 162 -97.5 259t-257.5 97q-166 0 -268 -99t-102 -261v-594h-119v1044h119v-196q120 221 405 221z" glyph-name="n" horiz-adv-x="1273" unicode="n"/><glyph d="M647.5 -25q-235.5 0 -394.5 157t-159 390.5t159 390t394.5 156.5t393 -156.5t157.5 -390t-157.5 -390.5t-393 -157zM647 90q184 0 306 124t122 308.5t-122 308t-306 123.5t-307 -123.5t-123 -308t123 -308.5t307 -124z" glyph-name="o" horiz-adv-x="1292" unicode="o"/><glyph d="M731 1069q229 0 381 -156.5t152 -390t-151.5 -390.5t-381.5 -157q-147 0 -266 72t-184 195v-631h-119v1433h119v-241q66 123 184.5 194.5t265.5 71.5zM710.5 90q184.5 0 307.5 124t123 308.5t-123 308t-307.5 123.5t-307 -123.5t-122.5 -308t122.5 -308.5t307 -124z" glyph-name="p" unicode="p"/><glyph d="M1077 1044h119v-1433h-119v631q-66 -123 -184.5 -195t-265.5 -72q-227 0 -379 157t-152 390.5t151.5 390t379.5 156.5q147 0 266 -71.5t184 -194.5v241zM647 90q184 0 307 124t123 308.5t-123 308t-307 123.5q-182 0 -305 -123.5t-123 -308t123 -308.5t305 -124z" glyph-name="q" unicode="q"/><glyph d="M674 1061h31v-123h-31q-180 0 -286.5 -108.5t-106.5 -290.5v-539h-119v1044h119v-219q57 113 158.5 174.5t234.5 61.5z" glyph-name="r" horiz-adv-x="749" unicode="r"/><glyph d="M494 -25q-252 0 -412 166l68 86q127 -143 342 -143q125 0 205.5 52t80.5 136q0 45 -21.5 79t-68.5 56.5t-87 35t-112 30.5q-70 18 -108.5 29.5t-97 37t-89 54.5t-54 76t-23.5 106q0 137 110.5 215t272.5 78q223 0 368 -145l-67 -88q-115 125 -299 125 q-113 0 -187.5 -48.5t-74.5 -128.5q0 -37 17 -66.5t41 -49t68 -37t77.5 -26.5t91.5 -23q70 -16 107.5 -27.5t95 -36t87 -53.5t53 -75t23.5 -105q0 -143 -115.5 -226.5t-291.5 -83.5z" glyph-name="s" horiz-adv-x="987" unicode="s"/><glyph d="M739 936h-333v-668q0 -178 184 -178q76 0 149 39v-113q-78 -41 -172 -41q-137 0 -208.5 70t-71.5 205v686h-203v108h203v291h119v-291h333v-108z" glyph-name="t" horiz-adv-x="819" unicode="t"/><glyph d="M612 -25q-209 0 -335.5 120t-126.5 317v632h118v-616q0 -152 94.5 -245t250 -93t248.5 93t93 245v616h119v-632q0 -197 -126 -317t-335 -120z" glyph-name="u" horiz-adv-x="1224" unicode="u"/><glyph d="M987 1044h133l-475 -1044h-129l-475 1044h137l406 -907z" glyph-name="v" horiz-adv-x="1161" unicode="v"/><glyph d="M1616 1044h129l-391 -1044h-127l-330 905l-332 -905h-127l-391 1044h133l326 -905l330 905h125l329 -905z" glyph-name="w" horiz-adv-x="1794" unicode="w"/><glyph d="M1085 0h-147l-356 449l-357 -449h-145l420 524l-414 520h145l353 -442l350 442h145l-413 -520z" glyph-name="x" horiz-adv-x="1165" unicode="x"/><glyph d="M987 1044h133l-594 -1288q-37 -82 -99 -126t-136 -44q-127 0 -217 97l53 90q57 -72 147 -72q92 0 144 102l96 199l-473 1042h137l406 -907z" glyph-name="y" horiz-adv-x="1161" unicode="y"/><glyph d="M266 115h662v-115h-830v86l647 844h-639v114h807v-86z" glyph-name="z" horiz-adv-x="1026" unicode="z"/><glyph d="M459 719q0 -47 -26.5 -87t-72.5 -57q45 -18 72 -58t27 -87v-563q0 -61 40 -102t99 -41h131v-113h-170q-96 0 -158.5 63.5t-62.5 161.5v567q0 51 -32 83t-79 32h-80v113h80q47 0 79 31.5t32 82.5v566q0 98 62.5 161.5t158.5 63.5h170v-113h-131q-59 0 -99 -41t-40 -102 v-561z" glyph-name="braceleft" horiz-adv-x="798" unicode="{"/><glyph d="M223 -389v1925h109v-1925h-109z" glyph-name="bar" horiz-adv-x="555" unicode="|"/><glyph d="M571 631h80v-113h-80q-47 0 -78.5 -31.5t-31.5 -83.5v-567q0 -98 -63.5 -161.5t-159.5 -63.5h-168v113h129q59 0 99 40.5t40 102.5v563q0 47 26.5 87t71.5 58q-45 16 -71.5 56.5t-26.5 87.5v561q0 61 -40 102t-99 41h-129v113h168q96 0 159.5 -63.5t63.5 -161.5v-566 q0 -51 31.5 -82.5t78.5 -31.5z" glyph-name="braceright" horiz-adv-x="798" unicode="}"/><glyph d="M729 473q-55 0 -105.5 25.5t-81 55.5t-72.5 55.5t-83 25.5q-59 0 -100 -40t-41 -101h-109q0 115 62.5 186.5t171.5 71.5q55 0 104 -26t80 -55.5t73 -55t83 -25.5q61 0 101 41t40 100h111q0 -113 -62.5 -185.5t-171.5 -72.5z" glyph-name="asciitilde" horiz-adv-x="1099" unicode="~"/><glyph glyph-name="uni00A0" horiz-adv-x="532" unicode=" "/><glyph d="M248 866q-41 0 -68.5 27t-27.5 67.5t27.5 67.5t68.5 27t67.5 -27t26.5 -67q0 -39 -27.5 -67t-66.5 -28zM184 -369v349l6 702h113l6 -702v-349h-125z" glyph-name="exclamdown" horiz-adv-x="493" unicode="¡"/><glyph d="M1149 422q-68 -113 -179.5 -181.5t-248.5 -78.5v-162h-88v162q-221 14 -367.5 167.5t-146.5 377t146.5 377t367.5 167.5v162h88v-162q137 -10 248.5 -78.5t177.5 -179.5l-107 -57q-109 178 -319 201v-861q215 23 319 203zM242 706.5q0 -174.5 110.5 -295t280.5 -135.5 v861q-170 -14 -280.5 -135t-110.5 -295.5z" glyph-name="cent" horiz-adv-x="1263" unicode="¢"/><glyph d="M375 119h723v-119h-998v119h146v485h-146v111h146v286q0 186 129 311.5t321 125.5q238 0 389 -183l-69 -90q-129 150 -318 150q-139 0 -231 -89t-92 -225v-286h463v-111h-463v-485z" glyph-name="sterling" horiz-adv-x="1177" unicode="£"/><glyph d="M922 707q0 -129 -76 -228l131 -131l-76 -74l-131 132q-102 -70 -227 -70t-228 70l-133 -132l-76 74l132 133q-74 96 -74 225.5t76 227.5l-131 133l73 74l133 -131q102 70 227.5 69.5t227.5 -69.5l131 133l76 -78l-131 -129q76 -102 76 -229zM542.5 432q116.5 0 194.5 79 t78 196q0 119 -78 197.5t-194.5 78.5t-195.5 -79t-79 -197q0 -117 79 -196t195.5 -79z" glyph-name="currency" horiz-adv-x="1083" unicode="¤"/><glyph d="M1239 1413l-477 -792h258v-99h-305v-149h305v-101h-305v-272h-125v272h-307v101h307v149h-307v99h258l-478 792h146l444 -747l447 747h139z" glyph-name="yen" horiz-adv-x="1302" unicode="¥"/><glyph d="M223 696v840h109v-840h-109zM223 -389v840h109v-840h-109z" glyph-name="brokenbar" horiz-adv-x="555" unicode="¦"/><glyph d="M711 365q209 -82 209 -256q0 -135 -114 -220.5t-282 -85.5q-223 0 -358 131l53 78q104 -115 295 -114q125 0 206 58t81 148q0 154 -289 215q-342 74 -342 299q0 92 54.5 164t146.5 107q-197 84 -197 254q0 131 109.5 213t273.5 82q217 0 346 -129l-51 -74 q-104 109 -285 108q-119 0 -196.5 -55t-77.5 -139q0 -160 276 -213q354 -66 355 -295q0 -94 -58.5 -166.5t-154.5 -109.5zM289 631q0 -158 258 -213q111 4 184.5 64.5t73.5 148.5q0 156 -270 207q-106 -2 -176 -61.5t-70 -145.5z" glyph-name="section" horiz-adv-x="1081" unicode="§"/><glyph d="M82 1214q-35 0 -58.5 24t-23.5 58.5t23.5 58t58.5 23.5t59.5 -23.5t24.5 -58t-24.5 -58.5t-59.5 -24zM493.5 1214q-34.5 0 -58 24t-23.5 58.5t23.5 58t58 23.5t59.5 -23.5t25 -58t-25 -58.5t-59.5 -24z" glyph-name="dieresis" horiz-adv-x="577" unicode="¨"/><glyph d="M856 -25q-311 0 -521 210t-210 521.5t210 521.5t521 210t521 -210t210 -521.5t-210 -521.5t-521 -210zM856 61q272 0 455.5 185.5t183.5 460t-183.5 460t-455.5 185.5t-456.5 -185.5t-184.5 -460t184.5 -460t456.5 -185.5zM866 285q-180 0 -301 120.5t-121 301t121 301 t301 120.5q119 0 215.5 -53t151.5 -143l-86 -45q-43 68 -117 107.5t-164 39.5q-137 0 -230 -94t-93 -233.5t93 -233.5t230 -94q90 0 164 40t117 107l86 -45q-55 -90 -151.5 -143t-215.5 -53z" glyph-name="copyright" horiz-adv-x="1710" unicode="©"/><glyph d="M616 1415h93v-557h-93v113q-82 -129 -227 -129q-121 0 -203 85t-82 210t82 210t203 85q145 0 227 -129v112zM407.5 926q90.5 0 149.5 60.5t59 150.5t-59 150.5t-149.5 60.5t-149.5 -60.5t-59 -150.5t59 -150.5t149.5 -60.5z" glyph-name="ordfeminine" horiz-adv-x="833" unicode="ª"/><glyph d="M602 954l-358 -413l358 -414h-141l-361 414l361 413h141zM1077 954l-360 -413l360 -414h-143l-359 414l359 413h143z" glyph-name="guillemotleft" horiz-adv-x="1193" unicode="«"/><glyph d="M137 659h819v-464h-108v356h-711v108z" glyph-name="logicalnot" horiz-adv-x="1093" unicode="¬"/><glyph d="M137 504v112h561v-112h-561z" glyph-name="uni00AD" horiz-adv-x="835" unicode="­"/><glyph d="M473 1438q158 0 263.5 -105.5t105.5 -263.5t-105.5 -263.5t-263.5 -105.5t-263.5 105.5t-105.5 263.5t105.5 263.5t263.5 105.5zM473 756q133 0 222 90t89 223q0 135 -89 225t-222 90t-222 -90t-89 -225q0 -133 89 -223t222 -90zM637 1165q0 -49 -33 -82.5t-82 -35.5 l125 -162h-61l-125 162h-58v-162h-51v399h164q51 0 86 -35t35 -84zM403 1237v-145h111q31 0 51.5 20.5t20.5 52.5q0 31 -20.5 51.5t-51.5 20.5h-111z" glyph-name="registered" horiz-adv-x="944" unicode="®"/><glyph d="M0 1231v102h453v-102h-453z" glyph-name="macron" horiz-adv-x="452" unicode="¯"/><glyph d="M397 879q-121 0 -201.5 79.5t-80.5 200.5q0 119 80.5 199t201.5 80t202 -80t81 -199q0 -121 -81 -200.5t-202 -79.5zM397 975q78 0 130.5 52t52.5 132q0 78 -52.5 130t-130.5 52t-130 -52t-52 -130q0 -80 52 -132t130 -52z" glyph-name="degree" horiz-adv-x="792" unicode="°"/><glyph d="M602 782h354v-106h-354v-266h-110v266h-355v106h355v265h110v-265zM137 150v106h819v-106h-819z" glyph-name="plusminus" horiz-adv-x="1093" unicode="±"/><glyph d="M188 838h416v-88h-549v73l336 365q96 104 96 182q0 66 -48 108t-120 42q-129 0 -204 -123l-68 57q43 74 117 116t160 42q113 0 185.5 -66.5t72.5 -171.5q0 -115 -111 -231z" glyph-name="uni00B2" horiz-adv-x="653" unicode="²"/><glyph d="M471 1196q76 -25 121 -84t45 -135q0 -104 -85 -173t-216 -69q-184 0 -299 121l55 70q88 -100 238 -101q94 0 153.5 46.5t59.5 118t-58.5 118.5t-144.5 47h-129v82h129q76 0 127 41t51 100q0 63 -54 103.5t-138 40.5q-133 0 -205 -88l-51 65q96 113 266 113 q121 0 198.5 -62.5t77.5 -158.5q0 -63 -37.5 -115.5t-103.5 -79.5z" glyph-name="uni00B3" horiz-adv-x="671" unicode="³"/><glyph d="M0 1194l215 250h158l-244 -250h-129z" glyph-name="acute" horiz-adv-x="372" unicode="´"/><glyph d="M1018 1413v-1802h-105v1698h-190v-1698h-105v981h-135q-176 0 -293.5 117.5t-117.5 294.5q0 174 117.5 291.5t293.5 117.5h535z" glyph-name="paragraph" horiz-adv-x="1183" unicode="¶"/><glyph d="M233.5 465q-40.5 0 -68.5 27.5t-28 68.5t28 68.5t68.5 27.5t69.5 -27.5t29 -68.5t-29 -68.5t-69.5 -27.5z" glyph-name="periodcentered" horiz-adv-x="466" unicode="·"/><glyph d="M199 -74q74 0 124 -52t50 -130t-56.5 -131t-138.5 -53q-117 0 -178 100l49 51q43 -80 129 -80q49 0 82 33t33 80q0 49 -33 81t-80 32q-49 0 -76 -31l-69 33l106 141v4h88v-4l-59 -76q4 0 13.5 1t15.5 1z" glyph-name="cedilla" horiz-adv-x="372" unicode="¸"/><glyph d="M274 1597h66v-847h-92v737l-180 -101l-41 76z" glyph-name="uni00B9" horiz-adv-x="450" unicode="¹"/><glyph d="M408 842q-129 0 -216.5 85t-87.5 210t87.5 210t216.5 85t216 -85t87 -210t-87 -210t-216 -85zM408 926q90 0 149 60.5t59 150.5t-59 150.5t-149 60.5q-88 0 -148.5 -60.5t-60.5 -150.5t60.5 -150.5t148.5 -60.5z" glyph-name="ordmasculine" horiz-adv-x="815" unicode="º"/><glyph d="M264 954l359 -413l-359 -414h-143l358 414l-358 413h143zM737 954l359 -413l-359 -414h-143l360 414l-360 413h143z" glyph-name="guillemotright" horiz-adv-x="1193" unicode="»"/><glyph d="M248 565v738l-180 -101l-41 76l247 135h66v-848h-92zM1174 1413h114l-1001 -1413h-117zM1470 287v-88h-114v-199h-94v199h-412l-21 75l426 574h101v-561h114zM928 287h334v446z" glyph-name="onequarter" horiz-adv-x="1495" unicode="¼"/><glyph d="M248 565v738l-180 -101l-41 76l247 135h66v-848h-92zM1174 1413h114l-1001 -1413h-117zM1106 88h416v-88h-549v74l336 364q96 104 96 183q0 66 -48 107.5t-120 41.5q-129 0 -205 -123l-67 58q43 74 116.5 115.5t159.5 41.5q113 0 185.5 -66.5t72.5 -170.5 q0 -115 -110 -232z" glyph-name="onehalf" horiz-adv-x="1570" unicode="½"/><glyph d="M637 793q0 -104 -85 -173t-216 -69q-184 0 -299 121l55 69q88 -100 238 -100q94 0 153.5 46t59.5 118t-58.5 119t-144.5 47h-129v82h129q76 0 127 41t51 100q0 63 -54 103t-138 40q-133 0 -205 -88l-51 66q96 113 266 112q121 0 198.5 -62t77.5 -159q0 -63 -37.5 -115.5 t-103.5 -78.5q76 -25 121 -84t45 -135zM1313 1413h114l-1001 -1413h-117zM1610 287v-88h-115v-199h-94v199h-412l-20 75l426 574h100v-561h115zM1067 287h334v446z" glyph-name="threequarters" horiz-adv-x="1634" unicode="¾"/><glyph d="M508 866q-41 0 -68.5 27t-27.5 67.5t27.5 67.5t68.5 27t67.5 -27t26.5 -67q0 -39 -26.5 -67t-67.5 -28zM504 -393q-174 0 -292 104.5t-118 257.5q0 80 36 156t88 133t104.5 110.5t88 113t35.5 116.5v76h123v-76q0 -70 -35.5 -137.5t-86 -122.5t-101.5 -109.5t-87 -120 t-36 -131.5q0 -109 81 -179t204 -70q109 0 204 57t158 154l88 -80q-74 -117 -195.5 -184.5t-258.5 -67.5z" glyph-name="questiondown" horiz-adv-x="958" unicode="¿"/><glyph d="M805 1563h-129l-244 249h158zM1257 0l-161 387h-742l-161 -387h-138l596 1413h152l596 -1413h-142zM403 504h646l-324 774z" glyph-name="Agrave" horiz-adv-x="1454" unicode="À"/><glyph d="M1020 1812l-244 -249h-129l215 249h158zM1257 0l-161 387h-742l-161 -387h-138l596 1413h152l596 -1413h-142zM403 504h646l-324 774z" glyph-name="Aacute" horiz-adv-x="1454" unicode="Á"/><glyph d="M727 1745l-166 -182h-115l207 249h148l207 -249h-115zM1257 0l-161 387h-742l-161 -387h-138l596 1413h152l596 -1413h-142zM403 504h646l-324 774z" glyph-name="Acircumflex" horiz-adv-x="1454" unicode="Â"/><glyph d="M598 1706q-51 0 -84 -34t-33 -83h-88q0 92 53.5 152.5t137.5 60.5q70 0 147.5 -63.5t124.5 -63.5q49 0 82 33t33 84h90q0 -94 -53.5 -153.5t-139.5 -59.5q-68 0 -145.5 63.5t-124.5 63.5zM1257 0l-161 387h-742l-161 -387h-138l596 1413h152l596 -1413h-142zM403 504h646 l-324 774z" glyph-name="Atilde" horiz-adv-x="1454" unicode="Ã"/><glyph d="M520 1583q-35 0 -58.5 23.5t-23.5 58.5t23.5 58.5t58.5 23.5t59.5 -23.5t24.5 -58.5t-24.5 -58.5t-59.5 -23.5zM932 1583q-35 0 -58.5 23.5t-23.5 58.5t23.5 58.5t58.5 23.5t59.5 -23.5t24.5 -58.5t-24.5 -58.5t-59.5 -23.5zM1257 0l-161 387h-742l-161 -387h-138 l596 1413h152l596 -1413h-142zM403 504h646l-324 774z" glyph-name="Adieresis" horiz-adv-x="1454" unicode="Ä"/><glyph d="M725 1534q-66 0 -112 45t-46 111q0 68 46 112.5t112 44.5q68 0 114 -45t46 -112q0 -66 -46 -111t-114 -45zM725 1780q-37 0 -61.5 -25.5t-24.5 -64.5t24.5 -63.5t61.5 -24.5t62.5 24.5t25.5 63.5t-25.5 64.5t-62.5 25.5zM1257 0l-161 387h-742l-161 -387h-138l596 1413 h152l596 -1413h-142zM403 504h646l-324 774z" glyph-name="Aring" horiz-adv-x="1454" unicode="Å"/><glyph d="M1028 119h713v-119h-840v385h-557l-240 -385h-145l879 1413h893v-119h-703v-524h635v-119h-635v-532zM416 502h485v782z" glyph-name="AE" horiz-adv-x="1849" unicode="Æ"/><glyph d="M838 98q158 0 290 70t213 192l111 -67q-96 -139 -245.5 -224t-329.5 -94l-43 -53q4 0 13 1t15 1q74 0 124 -52t50 -130t-56 -131t-138 -53q-117 0 -178 100l49 51q43 -80 129 -80q49 0 81.5 33t32.5 80q0 49 -32.5 81t-79.5 32q-49 0 -76 -31l-70 33l90 120 q-297 16 -492.5 223.5t-195.5 506.5q0 311 211 521t527 210q193 0 353.5 -85t260.5 -233l-111 -67q-82 123 -214 192.5t-289 69.5q-258 0 -432.5 -174t-174.5 -434.5t174.5 -434.5t432.5 -174z" glyph-name="Ccedilla" horiz-adv-x="1540" unicode="Ç"/><glyph d="M723 1563h-129l-244 249h158zM307 119h795v-119h-920v1413h910v-119h-785v-524h717v-119h-717v-532z" glyph-name="Egrave" horiz-adv-x="1210" unicode="È"/><glyph d="M938 1812l-244 -249h-129l215 249h158zM307 119h795v-119h-920v1413h910v-119h-785v-524h717v-119h-717v-532z" glyph-name="Eacute" horiz-adv-x="1210" unicode="É"/><glyph d="M645 1745l-166 -182h-114l206 249h148l207 -249h-115zM307 119h795v-119h-920v1413h910v-119h-785v-524h717v-119h-717v-532z" glyph-name="Ecircumflex" horiz-adv-x="1210" unicode="Ê"/><glyph d="M438 1583q-35 0 -58.5 23.5t-23.5 58.5t23.5 58.5t58.5 23.5t59.5 -23.5t24.5 -58.5t-24.5 -58.5t-59.5 -23.5zM850 1583q-35 0 -58.5 23.5t-23.5 58.5t23.5 58.5t58.5 23.5t59.5 -23.5t24.5 -58.5t-24.5 -58.5t-59.5 -23.5zM307 119h795v-119h-920v1413h910v-119h-785 v-524h717v-119h-717v-532z" glyph-name="Edieresis" horiz-adv-x="1210" unicode="Ë"/><glyph d="M195 1563l-244 249h158l215 -249h-129zM182 0v1413h125v-1413h-125z" glyph-name="Igrave" horiz-adv-x="489" unicode="Ì"/><glyph d="M166 1563l215 249h158l-244 -249h-129zM182 0v1413h125v-1413h-125z" glyph-name="Iacute" horiz-adv-x="489" unicode="Í"/><glyph d="M319 1812l207 -249h-114l-166 182l-166 -182h-115l207 249h147zM182 0v1413h125v-1413h-125z" glyph-name="Icircumflex" horiz-adv-x="489" unicode="Î"/><glyph d="M39 1583q-35 0 -58.5 23.5t-23.5 58.5t23.5 58.5t58.5 23.5t59.5 -23.5t24.5 -58.5t-24.5 -58.5t-59.5 -23.5zM450.5 1583q-34.5 0 -58 23.5t-23.5 58.5t23.5 58.5t58 23.5t59.5 -23.5t25 -58.5t-25 -58.5t-59.5 -23.5zM182 0v1413h125v-1413h-125z" glyph-name="Idieresis" horiz-adv-x="489" unicode="Ï"/><glyph d="M721 1413q305 0 508 -201.5t203 -505t-203 -505t-508 -201.5h-539v662h-151v90h151v661h539zM719 119q250 0 417 168t167 419.5t-167 419.5t-417 168h-412v-542h297v-90h-297v-543h412z" glyph-name="Eth" horiz-adv-x="1533" unicode="Ð"/><glyph d="M635 1706q-51 0 -84 -34t-33 -83h-88q0 92 53.5 152.5t137.5 60.5q70 0 147.5 -63.5t124.5 -63.5q49 0 82 33t33 84h90q0 -94 -53.5 -153.5t-139.5 -59.5q-68 0 -145.5 63.5t-124.5 63.5zM1214 1413h127v-1413h-137l-897 1212v-1212h-125v1413h135l897 -1212v1212z" glyph-name="Ntilde" horiz-adv-x="1521" unicode="Ñ"/><glyph d="M786 1563l-243 249h157l215 -249h-129zM838 -25q-315 0 -526.5 210t-211.5 521.5t211 521.5t527 210q313 0 525 -210t212 -521.5t-212 -521.5t-525 -210zM838 98q258 0 432 174t174 434.5t-174 434.5t-432 174t-432.5 -174t-174.5 -434.5t174.5 -434.5t432.5 -174z" glyph-name="Ograve" horiz-adv-x="1675" unicode="Ò"/><glyph d="M758 1563l215 249h157l-243 -249h-129zM838 -25q-315 0 -526.5 210t-211.5 521.5t211 521.5t527 210q313 0 525 -210t212 -521.5t-212 -521.5t-525 -210zM838 98q258 0 432 174t174 434.5t-174 434.5t-432 174t-432.5 -174t-174.5 -434.5t174.5 -434.5t432.5 -174z" glyph-name="Oacute" horiz-adv-x="1675" unicode="Ó"/><glyph d="M838 1745l-166 -182h-115l207 249h147l207 -249h-114zM838 1438q313 0 525 -210t212 -521.5t-212 -521.5t-525 -210q-315 0 -526.5 210t-211.5 521.5t211.5 521.5t526.5 210zM838 98q258 0 432 174t174 434.5t-174 434.5t-432 174t-432.5 -174t-174.5 -434.5 t174.5 -434.5t432.5 -174z" glyph-name="Ocircumflex" horiz-adv-x="1675" unicode="Ô"/><glyph d="M979 1579q-68 0 -145.5 63.5t-124.5 63.5q-51 0 -84 -34t-33 -83h-88q0 92 53 152.5t137 60.5q70 0 148 -63.5t125 -63.5q49 0 81.5 33t32.5 84h90q0 -94 -53 -153.5t-139 -59.5zM838 -25q-315 0 -526.5 210t-211.5 521.5t211 521.5t527 210q313 0 525 -210t212 -521.5 t-212 -521.5t-525 -210zM838 98q258 0 432 174t174 434.5t-174 434.5t-432 174t-432.5 -174t-174.5 -434.5t174.5 -434.5t432.5 -174z" glyph-name="Otilde" horiz-adv-x="1675" unicode="Õ"/><glyph d="M631 1583q-35 0 -58.5 23.5t-23.5 58.5t23.5 58.5t58.5 23.5t59.5 -23.5t24.5 -58.5t-24.5 -58.5t-59.5 -23.5zM1042.5 1583q-34.5 0 -58 23.5t-23.5 58.5t23.5 58.5t58 23.5t59 -23.5t24.5 -58.5t-24.5 -58.5t-59 -23.5zM838 -25q-315 0 -526.5 210t-211.5 521.5 t211 521.5t527 210q313 0 525 -210t212 -521.5t-212 -521.5t-525 -210zM838 98q258 0 432 174t174 434.5t-174 434.5t-432 174t-432.5 -174t-174.5 -434.5t174.5 -434.5t432.5 -174z" glyph-name="Odieresis" horiz-adv-x="1675" unicode="Ö"/><glyph d="M797 854l-250 -250l250 -250l-80 -80l-250 250l-252 -250l-78 80l250 250l-250 250l78 80l252 -250l250 250z" glyph-name="multiply" horiz-adv-x="931" unicode="×"/><glyph d="M1360 1231q215 -211 215 -524q0 -311 -212 -521.5t-525 -210.5q-260 0 -459 150l-111 -125h-116l161 182q-213 209 -213 525q0 311 211 521t527 210q260 0 454 -150l111 125h117zM231 707q0 -254 168 -428l809 915q-160 121 -370 121q-258 0 -432.5 -174t-174.5 -434z M838 98q258 0 432 174t174 435q0 256 -170 430l-811 -916q162 -123 375 -123z" glyph-name="Oslash" horiz-adv-x="1675" unicode="Ø"/><glyph d="M664 1563l-244 249h158l215 -249h-129zM715 -25q-244 0 -407 161t-163 403v874h127v-874q0 -188 126 -314.5t317 -126.5q188 0 314 126t126 315v874h127v-874q0 -242 -162.5 -403t-404.5 -161z" glyph-name="Ugrave" horiz-adv-x="1427" unicode="Ù"/><glyph d="M635 1563l215 249h158l-244 -249h-129zM715 -25q-244 0 -407 161t-163 403v874h127v-874q0 -188 126 -314.5t317 -126.5q188 0 314 126t126 315v874h127v-874q0 -242 -162.5 -403t-404.5 -161z" glyph-name="Uacute" horiz-adv-x="1427" unicode="Ú"/><glyph d="M715 1745l-166 -182h-115l207 249h147l207 -249h-114zM1155 1413h127v-874q0 -242 -163 -403t-404 -161q-244 0 -407 161t-163 403v874h127v-874q0 -188 126 -314.5t317 -126.5q188 0 314 126t126 315v874z" glyph-name="Ucircumflex" horiz-adv-x="1427" unicode="Û"/><glyph d="M508 1583q-35 0 -58.5 23.5t-23.5 58.5t23.5 58.5t58.5 23.5t59.5 -23.5t24.5 -58.5t-24.5 -58.5t-59.5 -23.5zM919.5 1583q-34.5 0 -58 23.5t-23.5 58.5t23.5 58.5t58 23.5t59.5 -23.5t25 -58.5t-25 -58.5t-59.5 -23.5zM715 -25q-244 0 -407 161t-163 403v874h127v-874 q0 -188 126 -314.5t317 -126.5q188 0 314 126t126 315v874h127v-874q0 -242 -162.5 -403t-404.5 -161z" glyph-name="Udieresis" horiz-adv-x="1427" unicode="Ü"/><glyph d="M985 1812l-244 -249h-129l215 249h158zM1206 1413h142l-594 -872v-541h-127v541l-596 872h147l514 -749z" glyph-name="Yacute" horiz-adv-x="1380" unicode="Ý"/><glyph d="M741 1137q184 0 307 -123t123 -305.5t-122.5 -304t-307.5 -121.5h-434v-283h-125v1413h125v-276h434zM739 401q129 0 216 88.5t87 219.5q0 133 -87 221t-216 88h-432v-617h432z" glyph-name="Thorn" horiz-adv-x="1243" unicode="Þ"/><glyph d="M784 795q127 -35 209 -144.5t82 -255.5q0 -182 -119.5 -301t-312.5 -119q-111 0 -201 37v117q84 -39 189 -39q141 0 231 90t90 228q0 139 -93 234t-226 95h-125v113h117q106 0 182 78t76 190.5t-86 189t-213 76.5q-133 0 -221.5 -86t-88.5 -215v-1083h-118v1092 q0 174 121.5 290.5t306.5 116.5q178 0 300 -107.5t122 -265.5q0 -113 -62 -202.5t-160 -128.5z" glyph-name="germandbls" horiz-adv-x="1148" unicode="ß"/><glyph d="M760 1194h-129l-244 250h158zM1077 1044h119v-1044h-119v242q-66 -123 -184.5 -195t-265.5 -72q-227 0 -379 157t-152 390.5t151.5 390t379.5 156.5q147 0 266 -71.5t184 -194.5v241zM647 90q184 0 307 124t123 308.5t-123 308t-307 123.5q-182 0 -305 -123.5t-123 -308 t123 -308.5t305 -124z" glyph-name="agrave" unicode="à"/><glyph d="M977 1444l-244 -250h-129l215 250h158zM1077 1044h119v-1044h-119v242q-66 -123 -184.5 -195t-265.5 -72q-227 0 -379 157t-152 390.5t151.5 390t379.5 156.5q147 0 266 -71.5t184 -194.5v241zM647 90q184 0 307 124t123 308.5t-123 308t-307 123.5q-182 0 -305 -123.5 t-123 -308t123 -308.5t305 -124z" glyph-name="aacute" unicode="á"/><glyph d="M682 1376l-166 -182h-115l207 250h148l207 -250h-115zM1077 1044h119v-1044h-119v242q-66 -123 -184.5 -195t-265.5 -72q-227 0 -379 157t-152 390.5t151.5 390t379.5 156.5q147 0 266 -71.5t184 -194.5v241zM647 90q184 0 307 124t123 308.5t-123 308t-307 123.5 q-182 0 -305 -123.5t-123 -308t123 -308.5t305 -124z" glyph-name="acircumflex" unicode="â"/><glyph d="M553 1337q-51 0 -84 -33.5t-33 -82.5h-88q0 92 53.5 152.5t137.5 60.5q70 0 147.5 -63.5t124.5 -63.5q49 0 82 32.5t33 83.5h90q0 -94 -53.5 -153.5t-139.5 -59.5q-68 0 -145.5 63.5t-124.5 63.5zM1077 1044h119v-1044h-119v242q-66 -123 -184.5 -195t-265.5 -72 q-227 0 -379 157t-152 390.5t151.5 390t379.5 156.5q147 0 266 -71.5t184 -194.5v241zM647 90q184 0 307 124t123 308.5t-123 308t-307 123.5q-182 0 -305 -123.5t-123 -308t123 -308.5t305 -124z" glyph-name="atilde" unicode="ã"/><glyph d="M475 1214q-35 0 -58.5 24t-23.5 58.5t23.5 58t58.5 23.5t59.5 -23.5t24.5 -58t-24.5 -58.5t-59.5 -24zM887 1214q-35 0 -58.5 24t-23.5 58.5t23.5 58t58.5 23.5t59.5 -23.5t24.5 -58t-24.5 -58.5t-59.5 -24zM1077 1044h119v-1044h-119v242q-66 -123 -184.5 -195 t-265.5 -72q-227 0 -379 157t-152 390.5t151.5 390t379.5 156.5q147 0 266 -71.5t184 -194.5v241zM647 90q184 0 307 124t123 308.5t-123 308t-307 123.5q-182 0 -305 -123.5t-123 -308t123 -308.5t305 -124z" glyph-name="adieresis" unicode="ä"/><glyph d="M682 1165q-66 0 -112 45t-46 111q0 68 46 113t112 45q68 0 114 -45t46 -113q0 -66 -46 -111t-114 -45zM682 1411q-37 0 -61.5 -25.5t-24.5 -64.5t24.5 -63.5t61.5 -24.5t62.5 24.5t25.5 63.5t-25.5 64.5t-62.5 25.5zM1077 1044h119v-1044h-119v242q-66 -123 -184.5 -195 t-265.5 -72q-227 0 -379 157t-152 390.5t151.5 390t379.5 156.5q147 0 266 -71.5t184 -194.5v241zM647 90q184 0 307 124t123 308.5t-123 308t-307 123.5q-182 0 -305 -123.5t-123 -308t123 -308.5t305 -124z" glyph-name="aring" unicode="å"/><glyph d="M1948 520q0 -33 -2 -45h-961q16 -172 140 -280.5t302 -108.5q123 0 225.5 53.5t159.5 143.5l89 -68q-76 -113 -201 -176.5t-274.5 -63.5t-271.5 64.5t-198 179.5q-70 -106 -206 -175t-287 -69q-170 0 -278.5 88.5t-108.5 219.5q0 127 101.5 213t252.5 86h438v92 q0 129 -93 208t-245 79q-221 0 -315 -154l-74 67q53 92 155.5 143.5t238.5 51.5q152 0 261 -65.5t156 -178.5q72 115 191 179.5t262 64.5q231 0 387 -156.5t156 -392.5zM1405 958q-168 0 -283.5 -105t-134.5 -271h836q-14 166 -133 271t-285 105zM473 84q129 0 251 62.5 t187 160.5q-35 80 -41 168h-432q-104 0 -171.5 -54t-67.5 -134q0 -86 77.5 -144.5t196.5 -58.5z" glyph-name="ae" horiz-adv-x="2033" unicode="æ"/><glyph d="M647 90q119 0 217.5 57.5t153.5 153.5l104 -63q-68 -115 -181.5 -183.5t-254.5 -77.5l-43 -55q4 0 13.5 1t15.5 1q74 0 124 -52t50 -130t-56.5 -131t-138.5 -53q-117 0 -178 100l49 51q43 -80 129 -80q49 0 82 33t33 80q0 49 -33 81t-80 32q-49 0 -75 -31l-70 33l90 120 q-219 16 -361.5 170t-142.5 375q0 233 159 390t394 157q154 0 279 -70.5t196 -191.5l-104 -64q-55 96 -153.5 153.5t-217.5 57.5q-184 0 -307 -123.5t-123 -308t123 -308.5t307 -124z" glyph-name="ccedilla" horiz-adv-x="1204" unicode="ç"/><glyph d="M725 1194h-129l-244 250h158zM1182 522q0 -18 -4 -51h-959q18 -170 142 -277.5t303 -107.5q125 0 229 54.5t162 144.5l84 -70q-76 -113 -202 -176.5t-278 -63.5q-242 0 -403.5 158t-161.5 391.5t156 389t389 155.5q231 0 387 -155.5t156 -391.5zM637 958 q-166 0 -282.5 -106.5t-135.5 -273.5h838q-18 168 -135 274t-285 106z" glyph-name="egrave" horiz-adv-x="1269" unicode="è"/><glyph d="M940 1444l-244 -250h-129l215 250h158zM1182 522q0 -18 -4 -51h-959q18 -170 142 -277.5t303 -107.5q125 0 229 54.5t162 144.5l84 -70q-76 -113 -202 -176.5t-278 -63.5q-242 0 -403.5 158t-161.5 391.5t156 389t389 155.5q231 0 387 -155.5t156 -391.5zM637 958 q-166 0 -282.5 -106.5t-135.5 -273.5h838q-18 168 -135 274t-285 106z" glyph-name="eacute" horiz-adv-x="1269" unicode="é"/><glyph d="M647 1376l-166 -182h-114l206 250h148l207 -250h-115zM1182 522q0 -18 -4 -51h-959q18 -170 142 -277.5t303 -107.5q125 0 229 54.5t162 144.5l84 -70q-76 -113 -202 -176.5t-278 -63.5q-242 0 -403.5 158t-161.5 391.5t156 389t389 155.5q231 0 387 -155.5t156 -391.5z M637 958q-166 0 -282.5 -106.5t-135.5 -273.5h838q-18 168 -135 274t-285 106z" glyph-name="ecircumflex" horiz-adv-x="1269" unicode="ê"/><glyph d="M440.5 1214q-34.5 0 -58.5 24t-24 58.5t24 58t58.5 23.5t59 -23.5t24.5 -58t-24.5 -58.5t-59 -24zM852 1214q-35 0 -58.5 24t-23.5 58.5t23.5 58t58.5 23.5t59.5 -23.5t24.5 -58t-24.5 -58.5t-59.5 -24zM1182 522q0 -18 -4 -51h-959q18 -170 142 -277.5t303 -107.5 q125 0 229 54.5t162 144.5l84 -70q-76 -113 -202 -176.5t-278 -63.5q-242 0 -403.5 158t-161.5 391.5t156 389t389 155.5q231 0 387 -155.5t156 -391.5zM637 958q-166 0 -282.5 -106.5t-135.5 -273.5h838q-18 168 -135 274t-285 106z" glyph-name="edieresis" horiz-adv-x="1269" unicode="ë"/><glyph d="M172 1194l-244 250h158l215 -250h-129zM162 0v1044h119v-1044h-119z" glyph-name="igrave" horiz-adv-x="444" unicode="ì"/><glyph d="M143 1194l215 250h158l-244 -250h-129zM162 0v1044h119v-1044h-119z" glyph-name="iacute" horiz-adv-x="444" unicode="í"/><glyph d="M295 1444l207 -250h-115l-166 182l-166 -182h-114l206 250h148zM162 0v1044h119v-1044h-119z" glyph-name="icircumflex" horiz-adv-x="444" unicode="î"/><glyph d="M14.5 1214q-34.5 0 -58.5 24t-24 58.5t24 58t58.5 23.5t59 -23.5t24.5 -58t-24.5 -58.5t-59 -24zM426 1214q-35 0 -58.5 24t-23.5 58.5t23.5 58t58.5 23.5t59.5 -23.5t24.5 -58t-24.5 -58.5t-59.5 -24zM162 0v1044h119v-1044h-119z" glyph-name="idieresis" horiz-adv-x="444" unicode="ï"/><glyph d="M711 1348q219 -133 343 -351.5t124 -468.5q0 -244 -154 -398.5t-387.5 -154.5t-388 154t-154.5 383q0 227 151.5 381t372.5 154q225 0 377 -168q-121 254 -372 391l-117 -105h-105l154 138q-106 45 -221 65v113q170 -27 311 -99l111 99h104zM635 90q180 0 300 121 t120 301t-120 300t-300 120q-178 0 -298 -120t-120 -300t120 -301t298 -121z" glyph-name="eth" horiz-adv-x="1271" unicode="ð"/><glyph d="M512 1337q-51 0 -84 -33.5t-33 -82.5h-88q0 92 53.5 152.5t137.5 60.5q70 0 147.5 -63.5t124.5 -63.5q49 0 82 32.5t33 83.5h90q0 -94 -53.5 -153.5t-139.5 -59.5q-68 0 -145.5 63.5t-124.5 63.5zM686 1069q197 0 317.5 -120t120.5 -316v-633h-118v598q0 162 -97.5 259 t-257.5 97q-166 0 -268 -99t-102 -261v-594h-119v1044h119v-196q120 221 405 221z" glyph-name="ntilde" horiz-adv-x="1273" unicode="ñ"/><glyph d="M596 1194l-244 250h158l215 -250h-129zM647.5 -25q-235.5 0 -394.5 157t-159 390.5t159 390t394.5 156.5t393 -156.5t157.5 -390t-157.5 -390.5t-393 -157zM647 90q184 0 306 124t122 308.5t-122 308t-306 123.5t-307 -123.5t-123 -308t123 -308.5t307 -124z" glyph-name="ograve" horiz-adv-x="1292" unicode="ò"/><glyph d="M567 1194l215 250h158l-244 -250h-129zM647.5 -25q-235.5 0 -394.5 157t-159 390.5t159 390t394.5 156.5t393 -156.5t157.5 -390t-157.5 -390.5t-393 -157zM647 90q184 0 306 124t122 308.5t-122 308t-306 123.5t-307 -123.5t-123 -308t123 -308.5t307 -124z" glyph-name="oacute" horiz-adv-x="1292" unicode="ó"/><glyph d="M647 1376l-166 -182h-114l206 250h148l207 -250h-115zM647.5 1069q235.5 0 393 -156.5t157.5 -390t-157.5 -390.5t-393 -157t-394.5 157t-159 390.5t159 390t394.5 156.5zM647 90q184 0 306 124t122 308.5t-122 308t-306 123.5t-307 -123.5t-123 -308t123 -308.5 t307 -124z" glyph-name="ocircumflex" horiz-adv-x="1292" unicode="ô"/><glyph d="M788 1210q-68 0 -145.5 63.5t-124.5 63.5q-51 0 -84 -33.5t-33 -82.5h-88q0 92 53.5 152.5t137.5 60.5q70 0 147.5 -63.5t124.5 -63.5q49 0 82 32.5t33 83.5h90q0 -94 -53.5 -153.5t-139.5 -59.5zM647.5 -25q-235.5 0 -394.5 157t-159 390.5t159 390t394.5 156.5 t393 -156.5t157.5 -390t-157.5 -390.5t-393 -157zM647 90q184 0 306 124t122 308.5t-122 308t-306 123.5t-307 -123.5t-123 -308t123 -308.5t307 -124z" glyph-name="otilde" horiz-adv-x="1292" unicode="õ"/><glyph d="M440.5 1214q-34.5 0 -58.5 24t-24 58.5t24 58t58.5 23.5t59 -23.5t24.5 -58t-24.5 -58.5t-59 -24zM852 1214q-35 0 -58.5 24t-23.5 58.5t23.5 58t58.5 23.5t59.5 -23.5t24.5 -58t-24.5 -58.5t-59.5 -24zM647.5 -25q-235.5 0 -394.5 157t-159 390.5t159 390t394.5 156.5 t393 -156.5t157.5 -390t-157.5 -390.5t-393 -157zM647 90q184 0 306 124t122 308.5t-122 308t-306 123.5t-307 -123.5t-123 -308t123 -308.5t307 -124z" glyph-name="odieresis" horiz-adv-x="1292" unicode="ö"/><glyph d="M547 836q-35 0 -58.5 23.5t-23.5 58t23.5 57t58.5 22.5t58.5 -22.5t23.5 -57t-23.5 -58t-58.5 -23.5zM137 555v100h819v-100h-819zM547 213q-35 0 -58.5 22.5t-23.5 57.5t23.5 58.5t58.5 23.5t58.5 -23.5t23.5 -58.5t-23.5 -57.5t-58.5 -22.5z" glyph-name="divide" horiz-adv-x="1093" unicode="÷"/><glyph d="M1042 911q156 -160 156 -389q0 -233 -157.5 -390t-393.5 -157q-197 0 -344 113l-78 -88h-96l121 135q-156 152 -156 387q0 233 159 390t394 157q195 0 340 -111l78 86h96zM217 522q0 -174 113 -297l579 645q-113 84 -262 84q-184 0 -307 -124t-123 -308zM647 90 q184 0 306 124t122 308q0 176 -112 299l-580 -645q110 -86 264 -86z" glyph-name="oslash" horiz-adv-x="1292" unicode="ø"/><glyph d="M561 1194l-244 250h158l215 -250h-129zM612 -25q-209 0 -335.5 120t-126.5 317v632h118v-616q0 -152 94.5 -245t250 -93t248.5 93t93 245v616h119v-632q0 -197 -126 -317t-335 -120z" glyph-name="ugrave" horiz-adv-x="1224" unicode="ù"/><glyph d="M532 1194l216 250h157l-243 -250h-130zM612 -25q-209 0 -335.5 120t-126.5 317v632h118v-616q0 -152 94.5 -245t250 -93t248.5 93t93 245v616h119v-632q0 -197 -126 -317t-335 -120z" glyph-name="uacute" horiz-adv-x="1224" unicode="ú"/><glyph d="M612 1376l-166 -182h-114l207 250h147l207 -250h-115zM954 1044h119v-632q0 -197 -126 -317t-335 -120t-335.5 120t-126.5 317v632h118v-616q0 -152 94.5 -245t250 -93t248.5 93t93 245v616z" glyph-name="ucircumflex" horiz-adv-x="1224" unicode="û"/><glyph d="M405.5 1214q-34.5 0 -58 24t-23.5 58.5t23.5 58t58 23.5t59 -23.5t24.5 -58t-24.5 -58.5t-59 -24zM817 1214q-35 0 -58.5 24t-23.5 58.5t23.5 58t58.5 23.5t59.5 -23.5t24.5 -58t-24.5 -58.5t-59.5 -24zM612 -25q-209 0 -335.5 120t-126.5 317v632h118v-616 q0 -152 94.5 -245t250 -93t248.5 93t93 245v616h119v-632q0 -197 -126 -317t-335 -120z" glyph-name="udieresis" horiz-adv-x="1224" unicode="ü"/><glyph d="M874 1444l-243 -250h-129l215 250h157zM987 1044h133l-594 -1288q-37 -82 -99 -126t-136 -44q-127 0 -217 97l53 90q57 -72 147 -72q92 0 144 102l96 199l-473 1042h137l406 -907z" glyph-name="yacute" horiz-adv-x="1161" unicode="ý"/><glyph d="M731 1069q229 0 381 -156.5t152 -390t-151.5 -390.5t-381.5 -157q-147 0 -266 72t-184 195v-631h-119v1864h119v-672q66 123 184.5 194.5t265.5 71.5zM710.5 90q184.5 0 307.5 124t123 308.5t-123 308t-307.5 123.5t-307 -123.5t-122.5 -308t122.5 -308.5t307 -124z" glyph-name="thorn" unicode="þ"/><glyph d="M375 1214q-35 0 -58.5 24t-23.5 58.5t23.5 58t58.5 23.5t59.5 -23.5t24.5 -58t-24.5 -58.5t-59.5 -24zM786.5 1214q-34.5 0 -58 24t-23.5 58.5t23.5 58t58 23.5t59 -23.5t24.5 -58t-24.5 -58.5t-59 -24zM987 1044h133l-594 -1288q-37 -82 -99 -126t-136 -44 q-127 0 -217 97l53 90q57 -72 147 -72q92 0 144 102l96 199l-473 1042h137l406 -907z" glyph-name="ydieresis" horiz-adv-x="1161" unicode="ÿ"/><glyph d="M954 1702v-103h-452v103h452zM1257 0l-161 387h-742l-161 -387h-138l596 1413h152l596 -1413h-142zM403 504h646l-324 774z" glyph-name="Amacron" horiz-adv-x="1454" unicode="Ā"/><glyph d="M909 1333v-102h-452v102h452zM1077 1044h119v-1044h-119v242q-66 -123 -184.5 -195t-265.5 -72q-227 0 -379 157t-152 390.5t151.5 390t379.5 156.5q147 0 266 -71.5t184 -194.5v241zM647 90q184 0 307 124t123 308.5t-123 308t-307 123.5q-182 0 -305 -123.5t-123 -308 t123 -308.5t305 -124z" glyph-name="amacron" unicode="ā"/><glyph d="M727 1542q-111 0 -184.5 73t-73.5 179h96q0 -70 46 -116t116 -46q68 0 114 46t46 116h96q0 -106 -73.5 -179t-182.5 -73zM1257 0l-161 387h-742l-161 -387h-138l596 1413h152l596 -1413h-142zM403 504h646l-324 774z" glyph-name="Abreve" horiz-adv-x="1454" unicode="Ă"/><glyph d="M684 1174q-111 0 -184.5 72.5t-73.5 178.5h96q0 -70 46 -115.5t116 -45.5q68 0 114 46t46 115h96q0 -106 -73.5 -178.5t-182.5 -72.5zM1077 1044h119v-1044h-119v242q-66 -123 -184.5 -195t-265.5 -72q-227 0 -379 157t-152 390.5t151.5 390t379.5 156.5q147 0 266 -71.5 t184 -194.5v241zM647 90q184 0 307 124t123 308.5t-123 308t-307 123.5q-182 0 -305 -123.5t-123 -308t123 -308.5t305 -124z" glyph-name="abreve" unicode="ă"/><glyph d="M1403 -313l33 -76q-70 -47 -154 -47q-86 0 -143.5 53t-57.5 131t56.5 144.5t150.5 107.5h-31l-161 387h-742l-161 -387h-138l596 1413h152l596 -1413h-4q-215 -98 -215 -229q0 -51 34.5 -84t83.5 -33q60 0 105 33zM403 504h646l-324 774z" glyph-name="Aogonek" horiz-adv-x="1454" unicode="Ą"/><glyph d="M1202 -313l33 -76q-70 -47 -154 -47q-86 0 -143 53t-57 131t56 144.5t150 107.5h-10v242q-66 -123 -184.5 -195t-265.5 -72q-227 0 -379 157t-152 390.5t151.5 390t379.5 156.5q147 0 266 -71.5t184 -194.5v241h119v-1044h-2q-215 -98 -215 -229q0 -51 35 -84t84 -33 q59 0 104 33zM647 90q184 0 307 124t123 308.5t-123 308t-307 123.5q-182 0 -305 -123.5t-123 -308t123 -308.5t305 -124z" glyph-name="aogonek" unicode="ą"/><glyph d="M758 1563l215 249h157l-243 -249h-129zM838 -25q-315 0 -526.5 210t-211.5 521.5t211 521.5t527 210q193 0 353.5 -85t260.5 -233l-111 -67q-82 123 -214 192.5t-289 69.5q-258 0 -432.5 -174t-174.5 -434.5t174.5 -434.5t432.5 -174q158 0 290 70t213 192l111 -67 q-100 -147 -260.5 -232.5t-353.5 -85.5z" glyph-name="Cacute" horiz-adv-x="1540" unicode="Ć"/><glyph d="M567 1194l215 250h158l-244 -250h-129zM647 -25q-236 0 -394.5 157t-158.5 390.5t159 390t394 156.5q154 0 279 -70.5t196 -191.5l-104 -64q-55 96 -153.5 153.5t-217.5 57.5q-184 0 -307 -123.5t-123 -308t123 -308.5t307 -124q119 0 217.5 57.5t153.5 153.5l104 -63 q-72 -121 -196.5 -192t-278.5 -71z" glyph-name="cacute" horiz-adv-x="1204" unicode="ć"/><glyph d="M838 1745l-166 -182h-115l207 249h147l207 -249h-114zM838 98q158 0 290 70t213 192l111 -67q-100 -147 -261 -232.5t-353 -85.5q-315 0 -526.5 210t-211.5 521.5t211 521.5t527 210q193 0 353.5 -85t260.5 -233l-111 -67q-82 123 -214 192.5t-289 69.5 q-258 0 -432.5 -174t-174.5 -434.5t174.5 -434.5t432.5 -174z" glyph-name="Ccircumflex" horiz-adv-x="1540" unicode="Ĉ"/><glyph d="M647 1376l-166 -182h-114l206 250h148l207 -250h-115zM647 90q119 0 217.5 57.5t153.5 153.5l104 -63q-72 -121 -196.5 -192t-278.5 -71q-236 0 -394.5 157t-158.5 390.5t159 390t394 156.5q154 0 279 -70.5t196 -191.5l-104 -64q-55 96 -153.5 153.5t-217.5 57.5 q-184 0 -307 -123.5t-123 -308t123 -308.5t307 -124z" glyph-name="ccircumflex" horiz-adv-x="1204" unicode="ĉ"/><glyph d="M838 1583q-37 0 -61.5 24.5t-24.5 59.5q0 37 24.5 61.5t61.5 24.5q35 0 59.5 -24.5t24.5 -61.5q0 -35 -24.5 -59.5t-59.5 -24.5zM838 -25q-315 0 -526.5 210t-211.5 521.5t211 521.5t527 210q193 0 353.5 -85t260.5 -233l-111 -67q-82 123 -214 192.5t-289 69.5 q-258 0 -432.5 -174t-174.5 -434.5t174.5 -434.5t432.5 -174q158 0 290 70t213 192l111 -67q-100 -147 -260.5 -232.5t-353.5 -85.5z" glyph-name="Cdotaccent" horiz-adv-x="1540" unicode="Ċ"/><glyph d="M647 1214q-37 0 -61.5 25t-24.5 59q0 37 24.5 61.5t61.5 24.5q35 0 59.5 -24.5t24.5 -61.5q0 -35 -24.5 -59.5t-59.5 -24.5zM647 -25q-236 0 -394.5 157t-158.5 390.5t159 390t394 156.5q154 0 279 -70.5t196 -191.5l-104 -64q-55 96 -153.5 153.5t-217.5 57.5 q-184 0 -307 -123.5t-123 -308t123 -308.5t307 -124q119 0 217.5 57.5t153.5 153.5l104 -63q-72 -121 -196.5 -192t-278.5 -71z" glyph-name="cdotaccent" horiz-adv-x="1204" unicode="ċ"/><glyph d="M911 1563h-147l-207 249h115l166 -182l166 182h114zM838 98q158 0 290 70t213 192l111 -67q-100 -147 -261 -232.5t-353 -85.5q-315 0 -526.5 210t-211.5 521.5t211 521.5t527 210q193 0 353.5 -85t260.5 -233l-111 -67q-82 123 -214 192.5t-289 69.5q-258 0 -432.5 -174 t-174.5 -434.5t174.5 -434.5t432.5 -174z" glyph-name="Ccaron" horiz-adv-x="1540" unicode="Č"/><glyph d="M721 1194h-148l-206 250h114l166 -182l166 182h115zM647 90q119 0 217.5 57.5t153.5 153.5l104 -63q-72 -121 -196.5 -192t-278.5 -71q-236 0 -394.5 157t-158.5 390.5t159 390t394 156.5q154 0 279 -70.5t196 -191.5l-104 -64q-55 96 -153.5 153.5t-217.5 57.5 q-184 0 -307 -123.5t-123 -308t123 -308.5t307 -124z" glyph-name="ccaron" horiz-adv-x="1204" unicode="č"/><glyph d="M823 1563h-147l-207 249h115l166 -182l165 182h115zM721 1413q305 0 508 -201.5t203 -505t-203 -505t-508 -201.5h-539v1413h539zM719 119q250 0 417 168t167 419.5t-167 419.5t-417 168h-412v-1175h412z" glyph-name="Dcaron" horiz-adv-x="1533" unicode="Ď"/><glyph d="M1075 795v680h119v-1475h-119v250q-66 -127 -184.5 -201t-265.5 -74q-227 0 -379 157t-152 390.5t151.5 390t379.5 156.5q147 0 265.5 -73.5t184.5 -200.5zM1380 1475h115l-68 -383h-90zM647 90q184 0 306 124t122 308.5t-122 308t-306 123.5t-307 -123.5t-123 -308 t123 -308.5t307 -124z" glyph-name="dcaron" horiz-adv-x="1470" unicode="ď"/><glyph d="M721 1413q305 0 508 -201.5t203 -505t-203 -505t-508 -201.5h-539v662h-151v90h151v661h539zM719 119q250 0 417 168t167 419.5t-167 419.5t-417 168h-412v-542h297v-90h-297v-543h412z" glyph-name="Dcroat" horiz-adv-x="1533" unicode="Đ"/><glyph d="M1358 1290v-90h-162v-1200h-119v242q-66 -123 -184.5 -195t-265.5 -72q-227 0 -379 157t-152 390.5t151.5 390t379.5 156.5q147 0 266 -71.5t184 -194.5v397h-293v90h293v185h119v-185h162zM647 90q184 0 307 124t123 308.5t-123 308t-307 123.5q-182 0 -305 -123.5 t-123 -308t123 -308.5t305 -124z" glyph-name="dcroat" unicode="đ"/><glyph d="M872 1702v-103h-452v103h452zM307 119h795v-119h-920v1413h910v-119h-785v-524h717v-119h-717v-532z" glyph-name="Emacron" horiz-adv-x="1210" unicode="Ē"/><glyph d="M874 1333v-102h-452v102h452zM1182 522q0 -18 -4 -51h-959q18 -170 142 -277.5t303 -107.5q125 0 229 54.5t162 144.5l84 -70q-76 -113 -202 -176.5t-278 -63.5q-242 0 -403.5 158t-161.5 391.5t156 389t389 155.5q231 0 387 -155.5t156 -391.5zM637 958 q-166 0 -282.5 -106.5t-135.5 -273.5h838q-18 168 -135 274t-285 106z" glyph-name="emacron" horiz-adv-x="1269" unicode="ē"/><glyph d="M645 1542q-111 0 -184.5 73t-73.5 179h96q0 -70 46 -116t116 -46q68 0 114 46t46 116h96q0 -106 -73.5 -179t-182.5 -73zM307 119h795v-119h-920v1413h910v-119h-785v-524h717v-119h-717v-532z" glyph-name="Ebreve" horiz-adv-x="1210" unicode="Ĕ"/><glyph d="M647 1174q-111 0 -184.5 72.5t-73.5 178.5h96q0 -70 46.5 -115.5t115.5 -45.5q68 0 114 46t46 115h96q0 -106 -73.5 -178.5t-182.5 -72.5zM1182 522q0 -18 -4 -51h-959q18 -170 142 -277.5t303 -107.5q125 0 229 54.5t162 144.5l84 -70q-76 -113 -202 -176.5t-278 -63.5 q-242 0 -403.5 158t-161.5 391.5t156 389t389 155.5q231 0 387 -155.5t156 -391.5zM637 958q-166 0 -282.5 -106.5t-135.5 -273.5h838q-18 168 -135 274t-285 106z" glyph-name="ebreve" horiz-adv-x="1269" unicode="ĕ"/><glyph d="M645 1583q-37 0 -61.5 24.5t-24.5 59.5q0 37 24.5 61.5t61.5 24.5q35 0 59.5 -24.5t24.5 -61.5q0 -35 -24.5 -59.5t-59.5 -24.5zM307 119h795v-119h-920v1413h910v-119h-785v-524h717v-119h-717v-532z" glyph-name="Edotaccent" horiz-adv-x="1210" unicode="Ė"/><glyph d="M647 1214q-37 0 -61.5 25t-24.5 59q0 37 24.5 61.5t61.5 24.5q35 0 59.5 -24.5t24.5 -61.5q0 -35 -24.5 -59.5t-59.5 -24.5zM1182 522q0 -18 -4 -51h-959q18 -170 142 -277.5t303 -107.5q125 0 229 54.5t162 144.5l84 -70q-76 -113 -202 -176.5t-278 -63.5 q-242 0 -403.5 158t-161.5 391.5t156 389t389 155.5q231 0 387 -155.5t156 -391.5zM637 958q-166 0 -282.5 -106.5t-135.5 -273.5h838q-18 168 -135 274t-285 106z" glyph-name="edotaccent" horiz-adv-x="1269" unicode="ė"/><glyph d="M1102 -313l33 -76q-70 -47 -154 -47q-86 0 -143.5 53t-57.5 131t56.5 144.5t150.5 107.5h-805v1413h910v-119h-785v-524h717v-119h-717v-532h795v-119h-8q-215 -98 -215 -229q0 -51 34.5 -84t83.5 -33q60 0 105 33z" glyph-name="Eogonek" horiz-adv-x="1210" unicode="Ę"/><glyph d="M1182 522q0 -18 -4 -51h-959q18 -170 142 -277.5t303 -107.5q125 0 229 54.5t162 144.5l84 -70q-92 -133 -244 -195q-162 -121 -162 -241q0 -53 35 -88t86 -35q66 0 113 41l34 -74q-68 -57 -167 -57q-86 0 -143.5 54t-57.5 138q0 117 110 224q-39 -6 -84 -7 q-242 0 -403.5 158t-161.5 391.5t156 389t389 155.5q231 0 387 -155.5t156 -391.5zM637 958q-166 0 -282.5 -106.5t-135.5 -273.5h838q-18 168 -135 274t-285 106z" glyph-name="eogonek" horiz-adv-x="1269" unicode="ę"/><glyph d="M719 1563h-148l-206 249h114l166 -182l166 182h115zM307 119h795v-119h-920v1413h910v-119h-785v-524h717v-119h-717v-532z" glyph-name="Ecaron" horiz-adv-x="1210" unicode="Ě"/><glyph d="M721 1194h-148l-206 250h114l166 -182l166 182h115zM1182 522q0 -18 -4 -51h-959q18 -170 142 -277.5t303 -107.5q125 0 229 54.5t162 144.5l84 -70q-76 -113 -202 -176.5t-278 -63.5q-242 0 -403.5 158t-161.5 391.5t156 389t389 155.5q231 0 387 -155.5t156 -391.5z M637 958q-166 0 -282.5 -106.5t-135.5 -273.5h838q-18 168 -135 274t-285 106z" glyph-name="ecaron" horiz-adv-x="1269" unicode="ě"/><glyph d="M838 1745l-166 -182h-115l207 249h147l207 -249h-114zM899 725h649v-41q0 -305 -203.5 -507t-508.5 -202q-313 0 -524.5 210t-211.5 521.5t211 521.5t527 210q188 0 346.5 -81t255.5 -222l-97 -74q-82 119 -214 187.5t-289 68.5q-260 0 -434.5 -175t-174.5 -435.5 t174.5 -435.5t434.5 -175q236 0 399.5 145.5t177.5 370.5h-518v113z" glyph-name="Gcircumflex" horiz-adv-x="1638" unicode="Ĝ"/><glyph d="M588 1376l-166 -182h-115l207 250h148l206 -250h-114zM819 -45q143 0 234.5 -70.5t99.5 -191.5l-123 -29q-2 78 -65.5 126t-165.5 48h-412q-121 0 -195.5 63.5t-74.5 166.5q0 70 32.5 129t90.5 90q-145 133 -146 331q0 193 134 322t335 129q154 0 273 -80q10 82 69.5 130 t149.5 48h78v-110h-72q-63 0 -102 -37t-39 -98v-7q111 -123 110 -297q0 -193 -133 -320.5t-334 -127.5q-139 0 -248 63q-80 -45 -79 -137q0 -63 47 -102t125 -39h411zM217 618q0 -143 99.5 -239t247 -96t245.5 96t98 239q0 145 -98 241.5t-246 96.5q-150 0 -248 -96.5 t-98 -241.5z" glyph-name="gcircumflex" horiz-adv-x="1148" unicode="ĝ"/><glyph d="M838 1542q-111 0 -184.5 73t-73.5 179h96q0 -70 46 -116t116 -46q68 0 113.5 46t45.5 116h97q0 -106 -73.5 -179t-182.5 -73zM899 725h649v-41q0 -305 -203.5 -507t-508.5 -202q-313 0 -524.5 210t-211.5 521.5t211 521.5t527 210q188 0 346.5 -81t255.5 -222l-97 -74 q-82 119 -214 187.5t-289 68.5q-260 0 -434.5 -175t-174.5 -435.5t174.5 -435.5t434.5 -175q236 0 399.5 145.5t177.5 370.5h-518v113z" glyph-name="Gbreve" horiz-adv-x="1638" unicode="Ğ"/><glyph d="M588 1174q-111 0 -184.5 72.5t-73.5 178.5h96q0 -70 46 -115.5t116 -45.5q68 0 114 46t46 115h96q0 -106 -73.5 -178.5t-182.5 -72.5zM819 -45q143 0 234.5 -70.5t99.5 -191.5l-123 -29q-2 78 -65.5 126t-165.5 48h-412q-121 0 -195.5 63.5t-74.5 166.5q0 70 32.5 129 t90.5 90q-145 133 -146 331q0 193 134 322t335 129q154 0 273 -80q10 82 69.5 130t149.5 48h78v-110h-72q-63 0 -102 -37t-39 -98v-7q111 -123 110 -297q0 -193 -133 -320.5t-334 -127.5q-139 0 -248 63q-80 -45 -79 -137q0 -63 47 -102t125 -39h411zM217 618 q0 -143 99.5 -239t247 -96t245.5 96t98 239q0 145 -98 241.5t-246 96.5q-150 0 -248 -96.5t-98 -241.5z" glyph-name="gbreve" horiz-adv-x="1148" unicode="ğ"/><glyph d="M838 1583q-37 0 -61.5 24.5t-24.5 59.5q0 37 24.5 61.5t61.5 24.5q35 0 59.5 -24.5t24.5 -61.5q0 -35 -24.5 -59.5t-59.5 -24.5zM899 725h649v-41q0 -305 -203.5 -507t-508.5 -202q-313 0 -524.5 210t-211.5 521.5t211 521.5t527 210q188 0 346.5 -81t255.5 -222l-97 -74 q-82 119 -214 187.5t-289 68.5q-260 0 -434.5 -175t-174.5 -435.5t174.5 -435.5t434.5 -175q236 0 399.5 145.5t177.5 370.5h-518v113z" glyph-name="Gdotaccent" horiz-adv-x="1638" unicode="Ġ"/><glyph d="M588 1214q-37 0 -61.5 25t-24.5 59q0 37 24.5 61.5t61.5 24.5q35 0 59.5 -24.5t24.5 -61.5q0 -35 -24.5 -59.5t-59.5 -24.5zM819 -45q143 0 234.5 -70.5t99.5 -191.5l-123 -29q-2 78 -65.5 126t-165.5 48h-412q-121 0 -195.5 63.5t-74.5 166.5q0 70 32.5 129t90.5 90 q-145 133 -146 331q0 193 134 322t335 129q154 0 273 -80q10 82 69.5 130t149.5 48h78v-110h-72q-63 0 -102 -37t-39 -98v-7q111 -123 110 -297q0 -193 -133 -320.5t-334 -127.5q-139 0 -248 63q-80 -45 -79 -137q0 -63 47 -102t125 -39h411zM217 618q0 -143 99.5 -239 t247 -96t245.5 96t98 239q0 145 -98 241.5t-246 96.5q-150 0 -248 -96.5t-98 -241.5z" glyph-name="gdotaccent" horiz-adv-x="1148" unicode="ġ"/><glyph d="M899 725h649v-41q0 -305 -203.5 -507t-508.5 -202q-313 0 -524.5 210t-211.5 521.5t211 521.5t527 210q188 0 346.5 -81t255.5 -222l-97 -74q-82 119 -214 187.5t-289 68.5q-260 0 -434.5 -175t-174.5 -435.5t174.5 -435.5t434.5 -175q236 0 399.5 145.5t177.5 370.5 h-518v113zM731 -442l64 295h127l-93 -295h-98z" glyph-name="Gcommaaccent" horiz-adv-x="1638" unicode="Ģ"/><glyph d="M682 1475l-64 -295h-126l92 295h98zM819 -45q143 0 234.5 -70.5t99.5 -191.5l-123 -29q-2 78 -65.5 126t-165.5 48h-412q-121 0 -195.5 63.5t-74.5 166.5q0 70 32.5 129t90.5 90q-145 133 -146 331q0 193 134 322t335 129q154 0 273 -80q10 82 69.5 130t149.5 48h78v-110 h-72q-63 0 -102 -37t-39 -98v-7q111 -123 110 -297q0 -193 -133 -320.5t-334 -127.5q-139 0 -248 63q-80 -45 -79 -137q0 -63 47 -102t125 -39h411zM217 618q0 -143 99.5 -239t247 -96t245.5 96t98 239q0 145 -98 241.5t-246 96.5q-150 0 -248 -96.5t-98 -241.5z" glyph-name="gcommaaccent" horiz-adv-x="1148" unicode="ģ"/><glyph d="M756 1745l-166 -182h-115l207 249h147l207 -249h-114zM1198 1413h127v-1413h-127v651h-891v-651h-125v1413h125v-643h891v643z" glyph-name="Hcircumflex" horiz-adv-x="1507" unicode="Ĥ"/><glyph d="M387 1573l-166 182l-166 -182h-114l206 250h148l207 -250h-115zM686 1069q197 0 317.5 -120t120.5 -316v-633h-118v598q0 162 -97.5 259t-257.5 97q-166 0 -268 -99t-102 -261v-594h-119v1475h119v-631q122 225 405 225z" glyph-name="hcircumflex" horiz-adv-x="1273" unicode="ĥ"/><glyph d="M1446 1149v-90h-121v-1059h-127v651h-891v-651h-125v1059h-119v90h119v264h125v-264h891v264h127v-264h121zM1198 770v289h-891v-289h891z" glyph-name="Hbar" horiz-adv-x="1507" unicode="Ħ"/><glyph d="M686 1069q197 0 317.5 -120t120.5 -316v-633h-118v598q0 162 -97.5 259t-257.5 97q-166 0 -268 -99t-102 -261v-594h-119v1200h-160v90h160v185h119v-185h294v-90h-294v-356q122 225 405 225z" glyph-name="hbar" horiz-adv-x="1273" unicode="ħ"/><glyph d="M387 1579q-68 0 -145.5 63.5t-124.5 63.5q-51 0 -84 -34t-33 -83h-88q0 92 53 152.5t137 60.5q70 0 148 -63.5t125 -63.5q49 0 81.5 33t32.5 84h91q0 -94 -53.5 -153.5t-139.5 -59.5zM182 0v1413h125v-1413h-125z" glyph-name="Itilde" horiz-adv-x="489" unicode="Ĩ"/><glyph d="M362 1210q-68 0 -145.5 63.5t-124.5 63.5q-51 0 -84 -33.5t-33 -82.5h-88q0 92 53.5 152.5t137.5 60.5q70 0 147.5 -63.5t124.5 -63.5q49 0 82 32.5t33 83.5h90q0 -94 -53.5 -153.5t-139.5 -59.5zM162 0v1044h119v-1044h-119z" glyph-name="itilde" horiz-adv-x="444" unicode="ĩ"/><glyph d="M20 1599v103h453v-103h-453zM182 0v1413h125v-1413h-125z" glyph-name="Imacron" horiz-adv-x="489" unicode="Ī"/><glyph d="M-4 1231v102h453v-102h-453zM162 0v1044h119v-1044h-119z" glyph-name="imacron" horiz-adv-x="444" unicode="ī"/><glyph d="M246 1542q-111 0 -184.5 73t-73.5 179h96q0 -70 46 -116t116 -46q68 0 114 46t46 116h96q0 -106 -73.5 -179t-182.5 -73zM182 0v1413h125v-1413h-125z" glyph-name="Ibreve" horiz-adv-x="489" unicode="Ĭ"/><glyph d="M223 1174q-111 0 -184.5 72.5t-73.5 178.5h96q0 -70 46.5 -115.5t115.5 -45.5q68 0 114 46t46 115h96q0 -106 -73.5 -178.5t-182.5 -72.5zM162 0v1044h119v-1044h-119z" glyph-name="ibreve" horiz-adv-x="444" unicode="ĭ"/><glyph d="M313 -313l33 -76q-70 -47 -153 -47q-86 0 -143.5 53t-57.5 131t56 144.5t151 107.5h-17v1413h125v-1413h-2q-215 -98 -215 -229q0 -51 35 -84t84 -33q59 0 104 33z" glyph-name="Iogonek" horiz-adv-x="489" unicode="Į"/><glyph d="M223 1214q-37 0 -61.5 25t-24.5 59q0 37 24.5 61.5t61.5 24.5q35 0 59.5 -24.5t24.5 -61.5q0 -35 -24.5 -59.5t-59.5 -24.5zM287 -313l32 -76q-70 -47 -153 -47q-86 0 -143.5 53t-57.5 131t56.5 144.5t150.5 107.5h-10v1044h119v-1044h-2q-215 -98 -216 -229 q0 -51 35 -84t84 -33q60 0 105 33z" glyph-name="iogonek" horiz-adv-x="444" unicode="į"/><glyph d="M246 1583q-37 0 -61.5 24.5t-24.5 59.5q0 37 24.5 61.5t61.5 24.5q35 0 59.5 -24.5t24.5 -61.5q0 -35 -24.5 -59.5t-59.5 -24.5zM182 0v1413h125v-1413h-125z" glyph-name="Idotaccent" horiz-adv-x="489" unicode="İ"/><glyph d="M162 0v1044h119v-1044h-119z" glyph-name="dotlessi" horiz-adv-x="444" unicode="ı"/><glyph d="M182 0v1413h125v-1413h-125zM801 -25q-131 0 -250 62v125q117 -63 237 -64q137 0 219.5 81t82.5 212v1022h124v-1026q0 -184 -113.5 -298t-299.5 -114z" glyph-name="IJ" horiz-adv-x="1361" unicode="Ĳ"/><glyph d="M221 1290q-35 0 -60.5 24.5t-25.5 61.5q0 35 25.5 59.5t60.5 24.5q37 0 62.5 -24.5t25.5 -59.5q0 -37 -25.5 -61.5t-62.5 -24.5zM680 1290q-37 0 -62.5 24.5t-25.5 61.5q0 35 25.5 59.5t62.5 24.5q35 0 60.5 -24.5t25.5 -59.5q0 -37 -25.5 -61.5t-60.5 -24.5zM162 0v1044 h119v-1044h-119zM485 -414q-68 0 -125 27v108q43 -25 105 -24q156 0 156 162v1185h118v-1200q0 -125 -66.5 -191.5t-187.5 -66.5z" glyph-name="ij" horiz-adv-x="901" unicode="ĳ"/><glyph d="M735 1812l207 -249h-115l-165 182l-166 -182h-115l207 249h147zM600 391v1022h125v-1026q0 -184 -113.5 -298t-300.5 -114q-131 0 -250 62v125q117 -63 238 -64q137 0 219 81t82 212z" glyph-name="Jcircumflex" horiz-adv-x="872" unicode="Ĵ"/><glyph d="M309 1444l207 -250h-115l-165 182l-166 -182h-115l207 250h147zM176 -141v1185h119v-1200q0 -125 -66.5 -191.5t-187.5 -66.5q-68 0 -125 27v108q43 -25 104 -24q156 0 156 162z" glyph-name="jcircumflex" horiz-adv-x="456" unicode="ĵ"/><glyph d="M586 723l719 -723h-170l-637 637l-191 -186v-451h-125v1413h125v-790l811 790h166zM575 -442l64 295h127l-92 -295h-99z" glyph-name="Kcommaaccent" horiz-adv-x="1292" unicode="Ķ"/><glyph d="M528 545l496 -545h-158l-422 459l-163 -170v-289h-119v1475h119v-1026l573 595h156zM457 -442l63 295h127l-92 -295h-98z" glyph-name="kcommaaccent" horiz-adv-x="1044" unicode="ķ"/><glyph d="M539 1812l-244 -249h-129l215 249h158zM307 119h733v-119h-858v1413h125v-1294z" glyph-name="Lacute" horiz-adv-x="1110" unicode="Ĺ"/><glyph d="M143 1573l215 250h158l-244 -250h-129zM162 0v1475h119v-1475h-119z" glyph-name="lacute" horiz-adv-x="444" unicode="ĺ"/><glyph d="M307 119h733v-119h-858v1413h125v-1294zM498 -442l63 295h127l-92 -295h-98z" glyph-name="Lcommaaccent" horiz-adv-x="1110" unicode="Ļ"/><glyph d="M162 0v1475h119v-1475h-119zM117 -442l63 295h127l-92 -295h-98z" glyph-name="lcommaaccent" horiz-adv-x="444" unicode="ļ"/><glyph d="M307 119h733v-119h-858v1413h125v-1294zM696 1413l-65 -383h-92l43 383h114z" glyph-name="Lcaron" horiz-adv-x="1110" unicode="Ľ"/><glyph d="M162 0v1475h119v-1475h-119zM424 1092l43 383h115l-68 -383h-90z" glyph-name="lcaron" horiz-adv-x="559" unicode="ľ"/><glyph d="M307 119h733v-119h-858v1413h125v-1294zM616.5 629q-36.5 0 -62.5 25.5t-26 62.5q0 39 26 63.5t62.5 24.5t62.5 -24.5t26 -63.5q0 -37 -26 -62.5t-62.5 -25.5z" glyph-name="Ldot" horiz-adv-x="1110" unicode="Ŀ"/><glyph d="M162 0v1475h119v-1475h-119zM500 649q-39 0 -63.5 25.5t-24.5 62.5t24.5 62.5t63.5 25.5q37 0 62.5 -25.5t25.5 -62.5t-25.5 -62.5t-62.5 -25.5z" glyph-name="ldot" horiz-adv-x="667" unicode="ŀ"/><glyph d="M307 119h733v-119h-858v567l-141 -96v121l141 96v725h125v-641l262 176v-121l-262 -176v-532z" glyph-name="Lslash" horiz-adv-x="1110" unicode="Ł"/><glyph d="M506 934v-115l-148 -98v-721h-118v641l-150 -100v114l150 101v719h118v-639z" glyph-name="lslash" horiz-adv-x="598" unicode="ł"/><glyph d="M1057 1812l-244 -249h-129l215 249h158zM1214 1413h127v-1413h-137l-897 1212v-1212h-125v1413h135l897 -1212v1212z" glyph-name="Nacute" horiz-adv-x="1521" unicode="Ń"/><glyph d="M936 1444l-244 -250h-129l215 250h158zM686 1069q197 0 317.5 -120t120.5 -316v-633h-118v598q0 162 -97.5 259t-257.5 97q-166 0 -268 -99t-102 -261v-594h-119v1044h119v-196q120 221 405 221z" glyph-name="nacute" horiz-adv-x="1273" unicode="ń"/><glyph d="M1214 1413h127v-1413h-137l-897 1212v-1212h-125v1413h135l897 -1212v1212zM655 -442l64 295h127l-92 -295h-99z" glyph-name="Ncommaaccent" horiz-adv-x="1521" unicode="Ņ"/><glyph d="M686 1069q197 0 317.5 -120t120.5 -316v-633h-118v598q0 162 -97.5 259t-257.5 97q-166 0 -268 -99t-102 -261v-594h-119v1044h119v-196q120 221 405 221zM537 -442l63 295h127l-92 -295h-98z" glyph-name="ncommaaccent" horiz-adv-x="1273" unicode="ņ"/><glyph d="M838 1563h-148l-207 249h115l166 -182l166 182h114zM1214 1413h127v-1413h-137l-897 1212v-1212h-125v1413h135l897 -1212v1212z" glyph-name="Ncaron" horiz-adv-x="1521" unicode="Ň"/><glyph d="M715 1194h-148l-207 250h115l166 -182l166 182h115zM686 1069q197 0 317.5 -120t120.5 -316v-633h-118v598q0 162 -97.5 259t-257.5 97q-166 0 -268 -99t-102 -261v-594h-119v1044h119v-196q120 221 405 221z" glyph-name="ncaron" horiz-adv-x="1273" unicode="ň"/><glyph d="M1341 1413v-1413h-2v-96q0 -307 -331 -307v116q207 0 206 197v90h-10l-897 1212v-1212h-125v1413h135l897 -1212v1212h127z" glyph-name="Eng" horiz-adv-x="1521" unicode="Ŋ"/><glyph d="M686 1069q197 0 317.5 -120t120.5 -316v-729q0 -154 -84 -230.5t-241 -76.5v114q207 0 207 199v688q0 162 -97.5 259t-257.5 97q-166 0 -268 -99t-102 -261v-594h-119v1044h119v-196q120 221 405 221z" glyph-name="eng" horiz-adv-x="1273" unicode="ŋ"/><glyph d="M612 1599v103h453v-103h-453zM838 -25q-315 0 -526.5 210t-211.5 521.5t211 521.5t527 210q313 0 525 -210t212 -521.5t-212 -521.5t-525 -210zM838 98q258 0 432 174t174 434.5t-174 434.5t-432 174t-432.5 -174t-174.5 -434.5t174.5 -434.5t432.5 -174z" glyph-name="Omacron" horiz-adv-x="1675" unicode="Ō"/><glyph d="M420 1231v102h452v-102h-452zM647.5 -25q-235.5 0 -394.5 157t-159 390.5t159 390t394.5 156.5t393 -156.5t157.5 -390t-157.5 -390.5t-393 -157zM647 90q184 0 306 124t122 308.5t-122 308t-306 123.5t-307 -123.5t-123 -308t123 -308.5t307 -124z" glyph-name="omacron" horiz-adv-x="1292" unicode="ō"/><glyph d="M838 1542q-111 0 -184.5 73t-73.5 179h96q0 -70 46 -116t116 -46q68 0 113.5 46t45.5 116h97q0 -106 -73.5 -179t-182.5 -73zM838 -25q-315 0 -526.5 210t-211.5 521.5t211 521.5t527 210q313 0 525 -210t212 -521.5t-212 -521.5t-525 -210zM838 98q258 0 432 174 t174 434.5t-174 434.5t-432 174t-432.5 -174t-174.5 -434.5t174.5 -434.5t432.5 -174z" glyph-name="Obreve" horiz-adv-x="1675" unicode="Ŏ"/><glyph d="M647 1174q-111 0 -184.5 72.5t-73.5 178.5h96q0 -70 46.5 -115.5t115.5 -45.5q68 0 114 46t46 115h96q0 -106 -73.5 -178.5t-182.5 -72.5zM647.5 -25q-235.5 0 -394.5 157t-159 390.5t159 390t394.5 156.5t393 -156.5t157.5 -390t-157.5 -390.5t-393 -157zM647 90 q184 0 306 124t122 308.5t-122 308t-306 123.5t-307 -123.5t-123 -308t123 -308.5t307 -124z" glyph-name="obreve" horiz-adv-x="1292" unicode="ŏ"/><glyph d="M588 1563l166 249h137l-186 -249h-117zM958 1563l166 249h138l-187 -249h-117zM838 -25q-315 0 -526.5 210t-211.5 521.5t211 521.5t527 210q313 0 525 -210t212 -521.5t-212 -521.5t-525 -210zM838 98q258 0 432 174t174 434.5t-174 434.5t-432 174t-432.5 -174 t-174.5 -434.5t174.5 -434.5t432.5 -174z" glyph-name="Ohungarumlaut" horiz-adv-x="1675" unicode="Ő"/><glyph d="M397 1194l166 250h137l-186 -250h-117zM768 1194l166 250h137l-186 -250h-117zM647.5 -25q-235.5 0 -394.5 157t-159 390.5t159 390t394.5 156.5t393 -156.5t157.5 -390t-157.5 -390.5t-393 -157zM647 90q184 0 306 124t122 308.5t-122 308t-306 123.5t-307 -123.5 t-123 -308t123 -308.5t307 -124z" glyph-name="ohungarumlaut" horiz-adv-x="1292" unicode="ő"/><glyph d="M1118 119h713v-119h-1018q-305 0 -509 201.5t-204 505t204 505t509 201.5h1008v-119h-703v-524h633v-119h-633v-532zM815 119h176v1175h-176q-250 0 -417 -168t-167 -419.5t167 -419.5t417 -168z" glyph-name="OE" horiz-adv-x="1939" unicode="Œ"/><glyph d="M2163 520q0 -33 -2 -45h-961q16 -170 140 -279.5t305 -109.5q123 0 224 53.5t159 143.5l88 -68q-76 -113 -198 -176.5t-269 -63.5q-172 0 -309.5 89.5t-200.5 236.5q-61 -147 -194.5 -236.5t-303.5 -89.5q-231 0 -389 157t-158 390.5t158 390t389 156.5q170 0 302 -87 t194 -234q61 145 192 233t299 88q229 0 382 -156.5t153 -392.5zM1620 958q-168 0 -283.5 -105t-134.5 -271h836q-14 166 -133 271t-285 105zM647 90q182 0 305 124t123 308.5t-123 308t-305 123.5q-184 0 -307 -123.5t-123 -308t123 -308.5t307 -124z" glyph-name="oe" horiz-adv-x="2250" unicode="œ"/><glyph d="M922 1812l-244 -249h-129l215 249h158zM1022 0l-485 598h-230v-598h-125v1413h553q178 0 297 -116.5t119 -292.5q0 -174 -119 -290t-295 -116h-47l488 -598h-156zM307 1294v-585h426q123 0 206 84t83 208.5t-83 208.5t-206 84h-426z" glyph-name="Racute" horiz-adv-x="1253" unicode="Ŕ"/><glyph d="M723 1444l-244 -250h-129l215 250h158zM281 825q57 113 158.5 174.5t234.5 61.5h31v-123h-31q-180 0 -286.5 -108.5t-106.5 -290.5v-539h-119v1044h119v-219z" glyph-name="racute" horiz-adv-x="749" unicode="ŕ"/><glyph d="M690 598l488 -598h-156l-485 598h-230v-598h-125v1413h553q178 0 297 -116.5t119 -292.5q0 -174 -119 -290t-295 -116h-47zM307 1294v-585h426q123 0 206 84t83 208.5t-83 208.5t-206 84h-426zM522 -442l64 295h127l-92 -295h-99z" glyph-name="Rcommaaccent" horiz-adv-x="1253" unicode="Ŗ"/><glyph d="M674 1061h31v-123h-31q-180 0 -286.5 -108.5t-106.5 -290.5v-539h-119v1044h119v-219q57 113 158.5 174.5t234.5 61.5zM117 -442l63 295h127l-92 -295h-98z" glyph-name="rcommaaccent" horiz-adv-x="749" unicode="ŗ"/><glyph d="M700 1563h-147l-207 249h115l166 -182l166 182h114zM1022 0l-485 598h-230v-598h-125v1413h553q178 0 297 -116.5t119 -292.5q0 -174 -119 -290t-295 -116h-47l488 -598h-156zM307 1294v-585h426q123 0 206 84t83 208.5t-83 208.5t-206 84h-426z" glyph-name="Rcaron" horiz-adv-x="1253" unicode="Ř"/><glyph d="M504 1194h-148l-206 250h114l166 -182l166 182h115zM281 825q57 113 158.5 174.5t234.5 61.5h31v-123h-31q-180 0 -286.5 -108.5t-106.5 -290.5v-539h-119v1044h119v-219z" glyph-name="rcaron" horiz-adv-x="749" unicode="ř"/><glyph d="M532 1563l216 249h157l-243 -249h-130zM618 -25q-156 0 -298 59.5t-236 164.5l70 94q80 -90 203.5 -146.5t260.5 -56.5q162 0 270.5 76t108.5 196q0 74 -41 129.5t-116.5 89t-123.5 48t-122 28.5q-469 102 -469 400q0 170 136 275.5t347 105.5q291 0 451 -181l-66 -92 q-55 68 -159.5 113t-225.5 45q-154 0 -254 -73.5t-100 -186.5q0 -209 375 -283q57 -12 108 -25.5t128 -47t130.5 -75.5t93 -110.5t39.5 -152.5q0 -172 -146.5 -283t-363.5 -111z" glyph-name="Sacute" horiz-adv-x="1200" unicode="Ś"/><glyph d="M418 1194l215 250h158l-244 -250h-129zM494 -25q-252 0 -412 166l68 86q127 -143 342 -143q125 0 205.5 52t80.5 136q0 45 -21.5 79t-68.5 56.5t-87 35t-112 30.5q-70 18 -108.5 29.5t-97 37t-89 54.5t-54 76t-23.5 106q0 137 110.5 215t272.5 78q223 0 368 -145l-67 -88 q-115 125 -299 125q-113 0 -187.5 -48.5t-74.5 -128.5q0 -37 17 -66.5t41 -49t68 -37t77.5 -26.5t91.5 -23q70 -16 107.5 -27.5t95 -36t87 -53.5t53 -75t23.5 -105q0 -143 -115.5 -226.5t-291.5 -83.5z" glyph-name="sacute" horiz-adv-x="987" unicode="ś"/><glyph d="M612 1745l-166 -182h-114l207 249h147l207 -249h-115zM629 780q57 -12 108 -25.5t128 -47t130.5 -75.5t93 -110.5t39.5 -152.5q0 -172 -146 -283t-364 -111q-156 0 -298 59.5t-236 164.5l70 94q80 -90 203.5 -146.5t260.5 -56.5q162 0 270.5 76t108.5 196q0 74 -41 129.5 t-116.5 89t-123.5 48t-122 28.5q-469 102 -469 400q0 170 136 275.5t347 105.5q291 0 451 -181l-66 -92q-55 68 -159.5 113t-225.5 45q-154 0 -254 -73.5t-100 -186.5q0 -209 375 -283z" glyph-name="Scircumflex" horiz-adv-x="1200" unicode="Ŝ"/><glyph d="M498 1376l-166 -182h-115l207 250h147l207 -250h-114zM535 582q70 -16 107.5 -27.5t95 -36t87 -53.5t53 -75t23.5 -105q0 -143 -115.5 -226.5t-291.5 -83.5q-252 0 -412 166l68 86q127 -143 342 -143q125 0 205.5 52t80.5 136q0 45 -21.5 79t-68.5 56.5t-87 35t-112 30.5 q-70 18 -108.5 29.5t-97 37t-89 54.5t-54 76t-23.5 106q0 137 110.5 215t272.5 78q223 0 368 -145l-67 -88q-115 125 -299 125q-113 0 -187.5 -48.5t-74.5 -128.5q0 -37 17 -66.5t41 -49t68 -37t78 -26.5t91 -23z" glyph-name="scircumflex" horiz-adv-x="987" unicode="ŝ"/><glyph d="M1128 369q0 -166 -136 -274.5t-341 -119.5l-43 -53q4 0 13.5 1t15.5 1q74 0 124 -52t50 -130t-56.5 -131t-138.5 -53q-117 0 -178 100l49 51q43 -80 129 -80q49 0 82 33t33 80q0 49 -32.5 81t-80.5 32q-49 0 -75 -31l-70 33l90 120q-297 23 -479 222l70 94 q80 -90 203.5 -146.5t260.5 -56.5q162 0 270.5 76t108.5 196q0 74 -41 129.5t-116.5 89t-123.5 48t-122 28.5q-469 102 -469 400q0 170 136 275.5t347 105.5q291 0 451 -181l-66 -92q-55 68 -159.5 113t-225.5 45q-154 0 -254 -73.5t-100 -186.5q0 -209 375 -283 q57 -12 108 -25.5t128 -47t130.5 -75.5t93 -110.5t39.5 -152.5z" glyph-name="Scedilla" horiz-adv-x="1200" unicode="Ş"/><glyph d="M901 285q0 -133 -101.5 -215t-262.5 -93l-43 -55q4 0 13 1t15 1q74 0 124 -52t50 -130t-56 -131t-138 -53q-117 0 -178 100l49 51q43 -80 129 -80q49 0 81.5 33t32.5 80q0 49 -32.5 81t-79.5 32q-49 0 -76 -31l-70 33l91 120q-225 14 -367 164l68 86q127 -143 342 -143 q125 0 205.5 52t80.5 136q0 45 -21.5 79t-68.5 56.5t-87 35t-112 30.5q-70 18 -108.5 29.5t-97 37t-89 54.5t-54 76t-23.5 106q0 137 110.5 215t272.5 78q223 0 368 -145l-67 -88q-115 125 -299 125q-113 0 -187.5 -48.5t-74.5 -128.5q0 -37 17 -66.5t41 -49t68 -37 t77.5 -26.5t91.5 -23q70 -16 107.5 -27.5t95 -36t87 -53.5t53 -75t23.5 -105z" glyph-name="scedilla" horiz-adv-x="987" unicode="ş"/><glyph d="M686 1563h-147l-207 249h114l166 -182l166 182h115zM629 780q57 -12 108 -25.5t128 -47t130.5 -75.5t93 -110.5t39.5 -152.5q0 -172 -146 -283t-364 -111q-156 0 -298 59.5t-236 164.5l70 94q80 -90 203.5 -146.5t260.5 -56.5q162 0 270.5 76t108.5 196q0 74 -41 129.5 t-116.5 89t-123.5 48t-122 28.5q-469 102 -469 400q0 170 136 275.5t347 105.5q291 0 451 -181l-66 -92q-55 68 -159.5 113t-225.5 45q-154 0 -254 -73.5t-100 -186.5q0 -209 375 -283z" glyph-name="Scaron" horiz-adv-x="1200" unicode="Š"/><glyph d="M571 1194h-147l-207 250h115l166 -182l166 182h114zM535 582q70 -16 107.5 -27.5t95 -36t87 -53.5t53 -75t23.5 -105q0 -143 -115.5 -226.5t-291.5 -83.5q-252 0 -412 166l68 86q127 -143 342 -143q125 0 205.5 52t80.5 136q0 45 -21.5 79t-68.5 56.5t-87 35t-112 30.5 q-70 18 -108.5 29.5t-97 37t-89 54.5t-54 76t-23.5 106q0 137 110.5 215t272.5 78q223 0 368 -145l-67 -88q-115 125 -299 125q-113 0 -187.5 -48.5t-74.5 -128.5q0 -37 17 -66.5t41 -49t68 -37t78 -26.5t91 -23z" glyph-name="scaron" horiz-adv-x="987" unicode="š"/><glyph d="M670 0h-19l-59 -76q4 0 13 1t16 1q74 0 124 -52t50 -130t-56.5 -131t-138.5 -53q-117 0 -178 100l49 51q43 -80 129 -80q49 0 82 33t33 80q0 49 -33 81t-80 32q-49 0 -76 -31l-69 33l106 141h-18v1294h-479v119h1083v-119h-479v-1294z" glyph-name="Tcommaaccent" horiz-adv-x="1214" unicode="Ţ"/><glyph d="M739 936h-333v-668q0 -178 184 -178q76 0 149 39v-113q-78 -41 -172 -41h-18l-41 -51q4 0 13 1t16 1q74 0 124 -52t50 -130t-56.5 -131t-138.5 -53q-117 0 -178 100l49 51q43 -80 129 -80q49 0 82 33t33 80q0 49 -33 81t-80 32q-49 0 -76 -31l-69 33l96 127 q-182 47 -182 264v686h-203v108h203v291h119v-291h333v-108z" glyph-name="tcommaaccent" horiz-adv-x="819" unicode="ţ"/><glyph d="M682 1563h-147l-207 249h114l166 -182l166 182h115zM1149 1413v-119h-479v-1294h-125v1294h-479v119h1083z" glyph-name="Tcaron" horiz-adv-x="1214" unicode="Ť"/><glyph d="M702 1552l-65 -383h-92l43 383h114zM739 936h-333v-668q0 -178 184 -178q76 0 149 39v-113q-78 -41 -172 -41q-137 0 -208.5 70t-71.5 205v686h-203v108h203v291h119v-291h333v-108z" glyph-name="tcaron" horiz-adv-x="819" unicode="ť"/><glyph d="M1149 1294h-479v-565h225v-90h-225v-639h-125v639h-223v90h223v565h-479v119h1083v-119z" glyph-name="Tbar" horiz-adv-x="1214" unicode="Ŧ"/><glyph d="M739 936h-333v-334h272v-90h-272v-244q0 -178 184 -178q76 0 149 39v-113q-78 -41 -172 -41q-137 0 -208.5 70t-71.5 205v262h-183v90h183v334h-203v108h203v291h119v-291h333v-108z" glyph-name="tbar" horiz-adv-x="819" unicode="ŧ"/><glyph d="M854 1579q-68 0 -145.5 63.5t-124.5 63.5q-51 0 -84 -34t-33 -83h-88q0 92 53 152.5t137 60.5q70 0 148 -63.5t125 -63.5q49 0 81.5 33t32.5 84h91q0 -94 -53.5 -153.5t-139.5 -59.5zM715 -25q-244 0 -407 161t-163 403v874h127v-874q0 -188 126 -314.5t317 -126.5 q188 0 314 126t126 315v874h127v-874q0 -242 -162.5 -403t-404.5 -161z" glyph-name="Utilde" horiz-adv-x="1427" unicode="Ũ"/><glyph d="M754 1210q-68 0 -146 63.5t-125 63.5q-51 0 -83.5 -33.5t-32.5 -82.5h-88q0 92 53 152.5t137 60.5q70 0 147.5 -63.5t124.5 -63.5q49 0 82 32.5t33 83.5h90q0 -94 -53 -153.5t-139 -59.5zM612 -25q-209 0 -335.5 120t-126.5 317v632h118v-616q0 -152 94.5 -245t250 -93 t248.5 93t93 245v616h119v-632q0 -197 -126 -317t-335 -120z" glyph-name="utilde" horiz-adv-x="1224" unicode="ũ"/><glyph d="M487 1599v103h453v-103h-453zM715 -25q-244 0 -407 161t-163 403v874h127v-874q0 -188 126 -314.5t317 -126.5q188 0 314 126t126 315v874h127v-874q0 -242 -162.5 -403t-404.5 -161z" glyph-name="Umacron" horiz-adv-x="1427" unicode="Ū"/><glyph d="M387 1231v102h453v-102h-453zM612 -25q-209 0 -335.5 120t-126.5 317v632h118v-616q0 -152 94.5 -245t250 -93t248.5 93t93 245v616h119v-632q0 -197 -126 -317t-335 -120z" glyph-name="umacron" horiz-adv-x="1224" unicode="ū"/><glyph d="M715 1542q-111 0 -184.5 73t-73.5 179h96q0 -70 46 -116t116 -46q68 0 113.5 46t45.5 116h97q0 -106 -73.5 -179t-182.5 -73zM715 -25q-244 0 -407 161t-163 403v874h127v-874q0 -188 126 -314.5t317 -126.5q188 0 314 126t126 315v874h127v-874q0 -242 -162.5 -403 t-404.5 -161z" glyph-name="Ubreve" horiz-adv-x="1427" unicode="Ŭ"/><glyph d="M612 1174q-111 0 -184.5 72.5t-73.5 178.5h97q0 -70 46 -115.5t115 -45.5q68 0 114 46t46 115h96q0 -106 -73.5 -178.5t-182.5 -72.5zM612 -25q-209 0 -335.5 120t-126.5 317v632h118v-616q0 -152 94.5 -245t250 -93t248.5 93t93 245v616h119v-632q0 -197 -126 -317 t-335 -120z" glyph-name="ubreve" horiz-adv-x="1224" unicode="ŭ"/><glyph d="M713 1534q-66 0 -112 45t-46 111q0 68 46 112.5t112 44.5q68 0 113.5 -45t45.5 -112q0 -66 -45.5 -111t-113.5 -45zM713 1602q37 0 62.5 24.5t25.5 63.5t-25.5 64.5t-62.5 25.5t-61.5 -25.5t-24.5 -64.5t24.5 -63.5t61.5 -24.5zM715 -25q-244 0 -407 161t-163 403v874 h127v-874q0 -188 126 -314.5t317 -126.5q188 0 314 126t126 315v874h127v-874q0 -242 -162.5 -403t-404.5 -161z" glyph-name="Uring" horiz-adv-x="1427" unicode="Ů"/><glyph d="M610 1165q-66 0 -111.5 45t-45.5 111q0 68 46 113t111 45q68 0 114 -45t46 -113q0 -66 -46 -111t-114 -45zM610 1233q37 0 62.5 24.5t25.5 63.5t-25.5 64.5t-62.5 25.5t-61.5 -25.5t-24.5 -64.5t24.5 -63.5t61.5 -24.5zM612 -25q-209 0 -335.5 120t-126.5 317v632h118 v-616q0 -152 94.5 -245t250 -93t248.5 93t93 245v616h119v-632q0 -197 -126 -317t-335 -120z" glyph-name="uring" horiz-adv-x="1224" unicode="ů"/><glyph d="M463 1563l166 249h137l-186 -249h-117zM834 1563l165 249h138l-187 -249h-116zM715 -25q-244 0 -407 161t-163 403v874h127v-874q0 -188 126 -314.5t317 -126.5q188 0 314 126t126 315v874h127v-874q0 -242 -162.5 -403t-404.5 -161z" glyph-name="Uhungarumlaut" horiz-adv-x="1427" unicode="Ű"/><glyph d="M362 1194l166 250h138l-187 -250h-117zM733 1194l166 250h137l-186 -250h-117zM612 -25q-209 0 -335.5 120t-126.5 317v632h118v-616q0 -152 94.5 -245t250 -93t248.5 93t93 245v616h119v-632q0 -197 -126 -317t-335 -120z" glyph-name="uhungarumlaut" horiz-adv-x="1224" unicode="ű"/><glyph d="M1155 1413h127v-874q0 -193 -108.5 -339.5t-284.5 -199.5q-195 -94 -195 -219q0 -51 35 -84t84 -33q59 0 105 33l32 -76q-70 -47 -153 -47q-86 0 -143.5 53.5t-57.5 130.5q0 131 143 217h-24q-244 0 -407 161t-163 403v874h127v-874q0 -188 126 -314.5t317 -126.5 q188 0 314 126t126 315v874z" glyph-name="Uogonek" horiz-adv-x="1427" unicode="Ų"/><glyph d="M954 1044h119v-632q0 -158 -82 -267.5t-225 -148.5q-184 -94 -184 -215q0 -51 34.5 -84t83.5 -33q59 0 105 33l33 -76q-70 -47 -154 -47q-86 0 -143.5 53.5t-57.5 130.5q0 127 142 217h-13q-209 0 -335.5 120t-126.5 317v632h118v-616q0 -152 94.5 -245t250 -93t248.5 93 t93 245v616z" glyph-name="uogonek" horiz-adv-x="1224" unicode="ų"/><glyph d="M1053 1745l-166 -182h-115l207 249h147l207 -249h-114zM1905 1413h131l-459 -1413h-129l-395 1233l-398 -1233h-131l-458 1413h135l393 -1251l401 1251h117l399 -1251z" glyph-name="Wcircumflex" horiz-adv-x="2101" unicode="Ŵ"/><glyph d="M897 1376l-166 -182h-115l207 250h148l207 -250h-115zM1616 1044h129l-391 -1044h-127l-330 905l-332 -905h-127l-391 1044h133l326 -905l330 905h125l329 -905z" glyph-name="wcircumflex" horiz-adv-x="1794" unicode="ŵ"/><glyph d="M690 1745l-166 -182h-114l206 249h148l207 -249h-115zM1206 1413h142l-594 -872v-541h-127v541l-596 872h147l514 -749z" glyph-name="Ycircumflex" horiz-adv-x="1380" unicode="Ŷ"/><glyph d="M582 1376l-166 -182h-115l207 250h147l207 -250h-114zM987 1044h133l-594 -1288q-37 -82 -99 -126t-136 -44q-127 0 -217 97l53 90q57 -72 147 -72q92 0 144 102l96 199l-473 1042h137l406 -907z" glyph-name="ycircumflex" horiz-adv-x="1161" unicode="ŷ"/><glyph d="M483.5 1583q-34.5 0 -58.5 23.5t-24 58.5t24 58.5t58.5 23.5t59 -23.5t24.5 -58.5t-24.5 -58.5t-59 -23.5zM895 1583q-35 0 -58.5 23.5t-23.5 58.5t23.5 58.5t58.5 23.5t59.5 -23.5t24.5 -58.5t-24.5 -58.5t-59.5 -23.5zM1206 1413h142l-594 -872v-541h-127v541l-596 872 h147l514 -749z" glyph-name="Ydieresis" horiz-adv-x="1380" unicode="Ÿ"/><glyph d="M920 1812l-244 -249h-129l215 249h158zM264 119h901v-119h-1073v90l887 1204h-879v119h1051v-90z" glyph-name="Zacute" horiz-adv-x="1257" unicode="Ź"/><glyph d="M807 1444l-244 -250h-129l215 250h158zM266 115h662v-115h-830v86l647 844h-639v114h807v-86z" glyph-name="zacute" horiz-adv-x="1026" unicode="ź"/><glyph d="M627 1583q-37 0 -61.5 24.5t-24.5 59.5q0 37 24.5 61.5t61.5 24.5q35 0 59.5 -24.5t24.5 -61.5q0 -35 -24.5 -59.5t-59.5 -24.5zM264 119h901v-119h-1073v90l887 1204h-879v119h1051v-90z" glyph-name="Zdotaccent" horiz-adv-x="1257" unicode="Ż"/><glyph d="M514 1214q-37 0 -61.5 25t-24.5 59q0 37 24.5 61.5t61.5 24.5q35 0 59.5 -24.5t24.5 -61.5q0 -35 -24.5 -59.5t-59.5 -24.5zM266 115h662v-115h-830v86l647 844h-639v114h807v-86z" glyph-name="zdotaccent" horiz-adv-x="1026" unicode="ż"/><glyph d="M700 1563h-147l-207 249h115l166 -182l166 182h114zM264 119h901v-119h-1073v90l887 1204h-879v119h1051v-90z" glyph-name="Zcaron" horiz-adv-x="1257" unicode="Ž"/><glyph d="M588 1194h-148l-207 250h115l166 -182l166 182h115zM266 115h662v-115h-830v86l647 844h-639v114h807v-86z" glyph-name="zcaron" horiz-adv-x="1026" unicode="ž"/><glyph d="M932 1290q-150 0 -220.5 -56t-95.5 -190l-49 -278h254v-111h-272l-123 -710q-31 -178 -132 -256t-308 -78v123q150 0 220 56t95 190l117 675h-240v111h260l54 313q31 178 131 256t309 78v-123z" glyph-name="florin" horiz-adv-x="989" unicode="ƒ"/><glyph d="M2165 1563h-148l-207 249h115l166 -182l166 182h115zM721 1413q305 0 508 -201.5t203 -505t-203 -505t-508 -201.5h-539v1413h539zM1729 119h901v-119h-1074v90l887 1204h-878v119h1050v-90zM719 119q250 0 417 168t167 419.5t-167 419.5t-417 168h-412v-1175h412z" glyph-name="uni01C4" horiz-adv-x="2721" unicode="Ǆ"/><glyph d="M2122 1194h-148l-207 250h115l166 -182l164 182h117zM721 1413q305 0 508 -201.5t203 -505t-203 -505t-508 -201.5h-539v1413h539zM719 119q250 0 417 168t167 419.5t-167 419.5t-417 168h-412v-1175h412zM1800 115h662v-115h-830v86l647 844h-639v114h807v-86z" glyph-name="uni01C5" horiz-adv-x="2560" unicode="ǅ"/><glyph d="M1077 803v672h119v-1475h-119v242q-66 -123 -184.5 -195t-265.5 -72q-227 0 -379 157t-152 390.5t151.5 390t379.5 156.5q147 0 265.5 -71.5t184.5 -194.5zM1946 1194h-148l-207 250h115l166 -182l164 182h116zM1624 115h662v-115h-830v86l647 844h-639v114h807v-86z M647 90q184 0 307 124t123 308.5t-123 308t-307 123.5q-182 0 -305 -123.5t-123 -308t123 -308.5t305 -124z" glyph-name="uni01C6" horiz-adv-x="2385" unicode="ǆ"/><glyph d="M307 1413v-1294h733v-119h-858v1413h125zM1702 1413h125v-1026q0 -184 -114 -298t-300 -114q-131 0 -250 62v125q117 -63 238 -64q137 0 219 81t82 212v1022z" glyph-name="uni01C7" horiz-adv-x="1974" unicode="Ǉ"/><glyph d="M1352 1460q35 0 60.5 -24.5t25.5 -59.5q0 -37 -26 -61.5t-60 -24.5q-37 0 -62.5 24.5t-25.5 61.5q0 35 25.5 59.5t62.5 24.5zM1040 119v-119h-858v1413h125v-1294h733zM1292 -141v1185h119v-1200q0 -125 -66.5 -191.5t-187.5 -66.5q-68 0 -125 27v108q43 -25 105 -24 q155 0 155 162z" glyph-name="uni01C8" horiz-adv-x="1572" unicode="ǈ"/><glyph d="M162 0v1475h119v-1475h-119zM680 1290q-37 0 -62.5 24.5t-25.5 61.5q0 35 25.5 59.5t62.5 24.5q35 0 60.5 -24.5t25.5 -59.5q0 -37 -25.5 -61.5t-60.5 -24.5zM485 -414q-68 0 -125 27v108q43 -25 105 -24q156 0 156 162v1185h118v-1200q0 -125 -66.5 -191.5t-187.5 -66.5 z" glyph-name="uni01C9" horiz-adv-x="901" unicode="ǉ"/><glyph d="M1214 201v1212h127v-1413h-137l-897 1212v-1212h-125v1413h135zM2122 1413h125v-1026q0 -184 -114 -298t-300 -114q-131 0 -250 62v125q117 -63 238 -64q137 0 219 81t82 212v1022z" glyph-name="uni01CA" horiz-adv-x="2394" unicode="Ǌ"/><glyph d="M1757 1460q35 0 60.5 -24.5t25.5 -59.5q0 -37 -25.5 -61.5t-60.5 -24.5q-37 0 -62.5 24.5t-25.5 61.5q0 35 25.5 59.5t62.5 24.5zM1214 201v1212h127v-1413h-137l-897 1212v-1212h-125v1413h135zM1698 -141v1185h119v-1200q0 -125 -67 -191.5t-187 -66.5q-68 0 -125 27 v108q43 -25 104 -24q156 0 156 162z" glyph-name="uni01CB" horiz-adv-x="1978" unicode="ǋ"/><glyph d="M1509 1460q35 0 60.5 -24.5t25.5 -59.5q0 -37 -25.5 -61.5t-60.5 -24.5q-37 0 -62.5 24.5t-25.5 61.5q0 35 25.5 59.5t62.5 24.5zM686 1069q197 0 317.5 -120t120.5 -316v-633h-118v598q0 162 -97.5 259t-257.5 97q-166 0 -268 -99t-102 -261v-594h-119v1044h119v-196 q120 221 405 221zM1450 -141v1185h119v-1200q0 -125 -66.5 -191.5t-187.5 -66.5q-68 0 -125 27v108q43 -25 104 -24q156 0 156 162z" glyph-name="uni01CC" horiz-adv-x="1730" unicode="ǌ"/><glyph d="M801 1563h-148l-207 249h115l166 -182l166 182h115zM1257 0l-161 387h-742l-161 -387h-138l596 1413h152l596 -1413h-142zM403 504h646l-324 774z" glyph-name="uni01CD" horiz-adv-x="1454" unicode="Ǎ"/><glyph d="M756 1194h-148l-207 250h115l166 -182l166 182h115zM1077 1044h119v-1044h-119v242q-66 -123 -184.5 -195t-265.5 -72q-227 0 -379 157t-152 390.5t151.5 390t379.5 156.5q147 0 266 -71.5t184 -194.5v241zM647 90q184 0 307 124t123 308.5t-123 308t-307 123.5 q-182 0 -305 -123.5t-123 -308t123 -308.5t305 -124z" glyph-name="uni01CE" unicode="ǎ"/><glyph d="M911 1563h-147l-207 249h115l166 -182l166 182h114zM899 725h649v-41q0 -305 -203.5 -507t-508.5 -202q-313 0 -524.5 210t-211.5 521.5t211 521.5t527 210q188 0 346.5 -81t255.5 -222l-97 -74q-82 119 -214 187.5t-289 68.5q-260 0 -434.5 -175t-174.5 -435.5 t174.5 -435.5t434.5 -175q236 0 399.5 145.5t177.5 370.5h-518v113z" glyph-name="Gcaron" horiz-adv-x="1638" unicode="Ǧ"/><glyph d="M662 1194h-148l-207 250h115l166 -182l166 182h114zM819 -45q143 0 234.5 -70.5t99.5 -191.5l-123 -29q-2 78 -65.5 126t-165.5 48h-412q-121 0 -195.5 63.5t-74.5 166.5q0 70 32.5 129t90.5 90q-145 133 -146 331q0 193 134 322t335 129q154 0 273 -80q10 82 69.5 130 t149.5 48h78v-110h-72q-63 0 -102 -37t-39 -98v-7q111 -123 110 -297q0 -193 -133 -320.5t-334 -127.5q-139 0 -248 63q-80 -45 -79 -137q0 -63 47 -102t125 -39h411zM217 618q0 -143 99.5 -239t247 -96t245.5 96t98 239q0 145 -98 241.5t-246 96.5q-150 0 -248 -96.5 t-98 -241.5z" glyph-name="gcaron" horiz-adv-x="1148" unicode="ǧ"/><glyph d="M1044 2q-199 -94 -198 -221q0 -51 34.5 -84t84.5 -33q59 0 104 33l33 -76q-70 -47 -154 -47q-86 0 -143 53.5t-57 130.5q0 127 145 219q-18 -2 -55 -2q-315 0 -526.5 210t-211.5 521.5t211 521.5t527 210q313 0 525 -210t212 -521q0 -256 -147.5 -447.5t-383.5 -257.5z M231 706.5q0 -260.5 174.5 -434.5t432.5 -174t432 174t174 434.5t-174 434.5t-432 174t-432.5 -174t-174.5 -434.5z" glyph-name="uni01EA" horiz-adv-x="1675" unicode="Ǫ"/><glyph d="M815 0q-193 -98 -192 -219q0 -51 34.5 -84t83.5 -33q59 0 105 33l33 -76q-70 -47 -154 -47q-86 0 -143.5 53.5t-57.5 130.5q0 127 142 217h-19q-236 0 -394.5 157t-158.5 390.5t159 390t394.5 156.5t393 -156.5t157.5 -390.5q0 -186 -106.5 -329.5t-276.5 -192.5z M217 522.5q0 -184.5 123 -308.5t307 -124t306 124t122 308.5t-122 308t-306 123.5t-307 -123.5t-123 -308z" glyph-name="uni01EB" horiz-adv-x="1292" unicode="ǫ"/><glyph d="M721 1413q305 0 508 -201.5t203 -505t-203 -505t-508 -201.5h-539v1413h539zM1729 119h901v-119h-1074v90l887 1204h-878v119h1050v-90zM719 119q250 0 417 168t167 419.5t-167 419.5t-417 168h-412v-1175h412z" glyph-name="uni01F1" horiz-adv-x="2721" unicode="Ǳ"/><glyph d="M721 1413q305 0 508 -201.5t203 -505t-203 -505t-508 -201.5h-539v1413h539zM719 119q250 0 417 168t167 419.5t-167 419.5t-417 168h-412v-1175h412zM1800 115h662v-115h-830v86l647 844h-639v114h807v-86z" glyph-name="uni01F2" horiz-adv-x="2560" unicode="ǲ"/><glyph d="M1077 803v672h119v-1475h-119v242q-66 -123 -184.5 -195t-265.5 -72q-227 0 -379 157t-152 390.5t151.5 390t379.5 156.5q147 0 265.5 -71.5t184.5 -194.5zM1624 115h662v-115h-830v86l647 844h-639v114h807v-86zM647 90q184 0 307 124t123 308.5t-123 308t-307 123.5 q-182 0 -305 -123.5t-123 -308t123 -308.5t305 -124z" glyph-name="uni01F3" horiz-adv-x="2385" unicode="ǳ"/><glyph d="M1130 1812l-243 -249h-129l215 249h157zM899 725h649v-41q0 -305 -203.5 -507t-508.5 -202q-313 0 -524.5 210t-211.5 521.5t211 521.5t527 210q188 0 346.5 -81t255.5 -222l-97 -74q-82 119 -214 187.5t-289 68.5q-260 0 -434.5 -175t-174.5 -435.5t174.5 -435.5 t434.5 -175q236 0 399.5 145.5t177.5 370.5h-518v113z" glyph-name="uni01F4" horiz-adv-x="1638" unicode="Ǵ"/><glyph d="M881 1444l-244 -250h-129l215 250h158zM819 -45q143 0 234.5 -70.5t99.5 -191.5l-123 -29q-2 78 -65.5 126t-165.5 48h-412q-121 0 -195.5 63.5t-74.5 166.5q0 70 32.5 129t90.5 90q-145 133 -146 331q0 193 134 322t335 129q154 0 273 -80q10 82 69.5 130t149.5 48h78 v-110h-72q-63 0 -102 -37t-39 -98v-7q111 -123 110 -297q0 -193 -133 -320.5t-334 -127.5q-139 0 -248 63q-80 -45 -79 -137q0 -63 47 -102t125 -39h411zM217 618q0 -143 99.5 -239t247 -96t245.5 96t98 239q0 145 -98 241.5t-246 96.5q-150 0 -248 -96.5t-98 -241.5z" glyph-name="uni01F5" horiz-adv-x="1148" unicode="ǵ"/><glyph d="M1317 1812l-244 -249h-129l215 249h158zM1028 119h713v-119h-840v385h-557l-240 -385h-145l879 1413h893v-119h-703v-524h635v-119h-635v-532zM416 502h485v782z" glyph-name="AEacute" horiz-adv-x="1849" unicode="Ǽ"/><glyph d="M1290 1444l-243 -250h-129l215 250h157zM1948 520q0 -33 -2 -45h-961q16 -172 140 -280.5t302 -108.5q123 0 225.5 53.5t159.5 143.5l89 -68q-76 -113 -201 -176.5t-274.5 -63.5t-271.5 64.5t-198 179.5q-70 -106 -206 -175t-287 -69q-170 0 -278.5 88.5t-108.5 219.5 q0 127 101.5 213t252.5 86h438v92q0 129 -93 208t-245 79q-221 0 -315 -154l-74 67q53 92 155.5 143.5t238.5 51.5q152 0 261 -65.5t156 -178.5q72 115 191 179.5t262 64.5q231 0 387 -156.5t156 -392.5zM1405 958q-168 0 -283.5 -105t-134.5 -271h836q-14 166 -133 271 t-285 105zM473 84q129 0 251 62.5t187 160.5q-35 80 -41 168h-432q-104 0 -171.5 -54t-67.5 -134q0 -86 77.5 -144.5t196.5 -58.5z" glyph-name="aeacute" horiz-adv-x="2033" unicode="ǽ"/><glyph d="M1147 1812l-244 -249h-129l215 249h158zM1360 1231q215 -211 215 -524q0 -311 -212 -521.5t-525 -210.5q-260 0 -459 150l-111 -125h-116l161 182q-213 209 -213 525q0 311 211 521t527 210q260 0 454 -150l111 125h117zM231 707q0 -254 168 -428l809 915 q-160 121 -370 121q-258 0 -432.5 -174t-174.5 -434zM838 98q258 0 432 174t174 435q0 256 -170 430l-811 -916q162 -123 375 -123z" glyph-name="Oslashacute" horiz-adv-x="1675" unicode="Ǿ"/><glyph d="M948 1444l-243 -250h-130l216 250h157zM1042 911q156 -160 156 -389q0 -233 -157.5 -390t-393.5 -157q-197 0 -344 113l-78 -88h-96l121 135q-156 152 -156 387q0 233 159 390t394 157q195 0 340 -111l78 86h96zM217 522q0 -174 113 -297l579 645q-113 84 -262 84 q-184 0 -307 -124t-123 -308zM647 90q184 0 306 124t122 308q0 176 -112 299l-580 -645q110 -86 264 -86z" glyph-name="oslashacute" horiz-adv-x="1292" unicode="ǿ"/><glyph d="M604 1563h-117l-186 249h137zM975 1563h-117l-186 249h137zM1257 0l-161 387h-742l-161 -387h-138l596 1413h152l596 -1413h-142zM403 504h646l-324 774z" glyph-name="uni0200" horiz-adv-x="1454" unicode="Ȁ"/><glyph d="M561 1194h-117l-186 250h137zM932 1194h-117l-186 250h137zM1077 1044h119v-1044h-119v242q-66 -123 -184.5 -195t-265.5 -72q-227 0 -379 157t-152 390.5t151.5 390t379.5 156.5q147 0 266 -71.5t184 -194.5v241zM647 90q184 0 307 124t123 308.5t-123 308t-307 123.5 q-182 0 -305 -123.5t-123 -308t123 -308.5t305 -124z" glyph-name="uni0201" unicode="ȁ"/><glyph d="M727 1712q-70 0 -116 -47t-46 -117h-96q0 109 73.5 180.5t184.5 71.5q109 0 182.5 -72.5t73.5 -179.5h-96q0 70 -46 117t-114 47zM1257 0l-161 387h-742l-161 -387h-138l596 1413h152l596 -1413h-142zM403 504h646l-324 774z" glyph-name="uni0202" horiz-adv-x="1454" unicode="Ȃ"/><glyph d="M684 1343q-70 0 -116 -47t-46 -116h-96q0 109 73.5 180.5t184.5 71.5q109 0 182.5 -73t73.5 -179h-96q0 70 -46 116.5t-114 46.5zM1077 1044h119v-1044h-119v242q-66 -123 -184.5 -195t-265.5 -72q-227 0 -379 157t-152 390.5t151.5 390t379.5 156.5q147 0 266 -71.5 t184 -194.5v241zM647 90q184 0 307 124t123 308.5t-123 308t-307 123.5q-182 0 -305 -123.5t-123 -308t123 -308.5t305 -124z" glyph-name="uni0203" unicode="ȃ"/><glyph d="M524 1563h-116l-187 249h137zM895 1563h-117l-186 249h137zM307 119h795v-119h-920v1413h910v-119h-785v-524h717v-119h-717v-532z" glyph-name="uni0204" horiz-adv-x="1210" unicode="Ȅ"/><glyph d="M524 1194h-116l-187 250h137zM895 1194h-117l-186 250h137zM1182 522q0 -18 -4 -51h-959q18 -170 142 -277.5t303 -107.5q125 0 229 54.5t162 144.5l84 -70q-76 -113 -202 -176.5t-278 -63.5q-242 0 -403.5 158t-161.5 391.5t156 389t389 155.5q231 0 387 -155.5 t156 -391.5zM637 958q-166 0 -282.5 -106.5t-135.5 -273.5h838q-18 168 -135 274t-285 106z" glyph-name="uni0205" horiz-adv-x="1269" unicode="ȅ"/><glyph d="M645 1712q-70 0 -116 -47t-46 -117h-96q0 109 74 180.5t184 71.5q109 0 182.5 -72.5t73.5 -179.5h-96q0 70 -46 117t-114 47zM307 119h795v-119h-920v1413h910v-119h-785v-524h717v-119h-717v-532z" glyph-name="uni0206" horiz-adv-x="1210" unicode="Ȇ"/><glyph d="M647 1343q-70 0 -116 -47t-46 -116h-96q0 109 74 180.5t184 71.5q109 0 182.5 -73t73.5 -179h-96q0 70 -46 116.5t-114 46.5zM1182 522q0 -18 -4 -51h-959q18 -170 142 -277.5t303 -107.5q125 0 229 54.5t162 144.5l84 -70q-76 -113 -202 -176.5t-278 -63.5 q-242 0 -403.5 158t-161.5 391.5t156 389t389 155.5q231 0 387 -155.5t156 -391.5zM637 958q-166 0 -282.5 -106.5t-135.5 -273.5h838q-18 168 -135 274t-285 106z" glyph-name="uni0207" horiz-adv-x="1269" unicode="ȇ"/><glyph d="M8 1563l-186 249h137l166 -249h-117zM379 1563l-186 249h137l166 -249h-117zM182 0v1413h125v-1413h-125z" glyph-name="uni0208" horiz-adv-x="489" unicode="Ȉ"/><glyph d="M-16 1194l-187 250h137l166 -250h-116zM354 1194l-186 250h137l166 -250h-117zM162 0v1044h119v-1044h-119z" glyph-name="uni0209" horiz-adv-x="444" unicode="ȉ"/><glyph d="M-12 1548q0 109 73.5 180.5t184.5 71.5q109 0 182.5 -72.5t73.5 -179.5h-96q0 70 -46.5 117t-113.5 47q-70 0 -116 -47t-46 -117h-96zM182 0v1413h125v-1413h-125z" glyph-name="uni020A" horiz-adv-x="489" unicode="Ȋ"/><glyph d="M-35 1180q0 109 74 180.5t184 71.5q109 0 182.5 -73t73.5 -179h-96q0 70 -46 116.5t-114 46.5q-70 0 -116 -47t-46 -116h-96zM162 0v1044h119v-1044h-119z" glyph-name="uni020B" horiz-adv-x="444" unicode="ȋ"/><glyph d="M600 1563l-186 249h137l166 -249h-117zM971 1563l-187 249h138l165 -249h-116zM838 -25q-315 0 -526.5 210t-211.5 521.5t211 521.5t527 210q313 0 525 -210t212 -521.5t-212 -521.5t-525 -210zM838 98q258 0 432 174t174 434.5t-174 434.5t-432 174t-432.5 -174 t-174.5 -434.5t174.5 -434.5t432.5 -174z" glyph-name="uni020C" horiz-adv-x="1675" unicode="Ȍ"/><glyph d="M408 1194l-187 250h137l166 -250h-116zM778 1194l-186 250h137l166 -250h-117zM647.5 -25q-235.5 0 -394.5 157t-159 390.5t159 390t394.5 156.5t393 -156.5t157.5 -390t-157.5 -390.5t-393 -157zM647 90q184 0 306 124t122 308.5t-122 308t-306 123.5t-307 -123.5 t-123 -308t123 -308.5t307 -124z" glyph-name="uni020D" horiz-adv-x="1292" unicode="ȍ"/><glyph d="M580 1548q0 109 73.5 180.5t184.5 71.5q109 0 182.5 -72.5t73.5 -179.5h-97q0 70 -46 117t-113 47q-70 0 -116 -47t-46 -117h-96zM838 -25q-315 0 -526.5 210t-211.5 521.5t211 521.5t527 210q313 0 525 -210t212 -521.5t-212 -521.5t-525 -210zM838 98q258 0 432 174 t174 434.5t-174 434.5t-432 174t-432.5 -174t-174.5 -434.5t174.5 -434.5t432.5 -174z" glyph-name="uni020E" horiz-adv-x="1675" unicode="Ȏ"/><glyph d="M389 1180q0 109 74 180.5t184 71.5q109 0 182.5 -73t73.5 -179h-96q0 70 -46 116.5t-114 46.5q-70 0 -116 -47t-46 -116h-96zM647.5 -25q-235.5 0 -394.5 157t-159 390.5t159 390t394.5 156.5t393 -156.5t157.5 -390t-157.5 -390.5t-393 -157zM647 90q184 0 306 124 t122 308.5t-122 308t-306 123.5t-307 -123.5t-123 -308t123 -308.5t307 -124z" glyph-name="uni020F" horiz-adv-x="1292" unicode="ȏ"/><glyph d="M506 1563h-117l-186 249h137zM877 1563h-117l-187 249h138zM1022 0l-485 598h-230v-598h-125v1413h553q178 0 297 -116.5t119 -292.5q0 -174 -119 -290t-295 -116h-47l488 -598h-156zM307 1294v-585h426q123 0 206 84t83 208.5t-83 208.5t-206 84h-426z" glyph-name="uni0210" horiz-adv-x="1253" unicode="Ȑ"/><glyph d="M307 1194h-117l-186 250h137zM678 1194h-117l-186 250h137zM674 1061h31v-123h-31q-180 0 -286.5 -108.5t-106.5 -290.5v-539h-119v1044h119v-219q57 113 158.5 174.5t234.5 61.5z" glyph-name="uni0211" horiz-adv-x="749" unicode="ȑ"/><glyph d="M629 1712q-70 0 -116 -47t-46 -117h-96q0 109 73.5 180.5t184.5 71.5q109 0 182.5 -72.5t73.5 -179.5h-97q0 70 -45.5 117t-113.5 47zM1022 0l-485 598h-230v-598h-125v1413h553q178 0 297 -116.5t119 -292.5q0 -174 -119 -290t-295 -116h-47l488 -598h-156zM307 1294 v-585h426q123 0 206 84t83 208.5t-83 208.5t-206 84h-426z" glyph-name="uni0212" horiz-adv-x="1253" unicode="Ȓ"/><glyph d="M430 1343q-70 0 -116 -47t-46 -116h-96q0 109 73.5 180.5t184.5 71.5q109 0 182.5 -73t73.5 -179h-96q0 70 -46 116.5t-114 46.5zM674 1061h31v-123h-31q-180 0 -286.5 -108.5t-106.5 -290.5v-539h-119v1044h119v-219q57 113 158.5 174.5t234.5 61.5z" glyph-name="uni0213" horiz-adv-x="749" unicode="ȓ"/><glyph d="M475 1563l-186 249h137l166 -249h-117zM846 1563l-187 249h138l166 -249h-117zM715 -25q-244 0 -407 161t-163 403v874h127v-874q0 -188 126 -314.5t317 -126.5q188 0 314 126t126 315v874h127v-874q0 -242 -162.5 -403t-404.5 -161z" glyph-name="uni0214" horiz-adv-x="1427" unicode="Ȕ"/><glyph d="M373 1194l-187 250h138l165 -250h-116zM743 1194l-186 250h137l166 -250h-117zM612 -25q-209 0 -335.5 120t-126.5 317v632h118v-616q0 -152 94.5 -245t250 -93t248.5 93t93 245v616h119v-632q0 -197 -126 -317t-335 -120z" glyph-name="uni0215" horiz-adv-x="1224" unicode="ȕ"/><glyph d="M457 1548q0 109 73.5 180.5t184.5 71.5q109 0 182.5 -72.5t73.5 -179.5h-97q0 70 -46 117t-113 47q-70 0 -116 -47t-46 -117h-96zM715 -25q-244 0 -407 161t-163 403v874h127v-874q0 -188 126 -314.5t317 -126.5q188 0 314 126t126 315v874h127v-874q0 -242 -162.5 -403 t-404.5 -161z" glyph-name="uni0216" horiz-adv-x="1427" unicode="Ȗ"/><glyph d="M354 1180q0 109 74 180.5t184 71.5q109 0 182.5 -73t73.5 -179h-96q0 70 -46 116.5t-114 46.5q-70 0 -115.5 -47t-45.5 -116h-97zM612 -25q-209 0 -335.5 120t-126.5 317v632h118v-616q0 -152 94.5 -245t250 -93t248.5 93t93 245v616h119v-632q0 -197 -126 -317 t-335 -120z" glyph-name="uni0217" horiz-adv-x="1224" unicode="ȗ"/><glyph d="M618 -25q-156 0 -298 59.5t-236 164.5l70 94q80 -90 203.5 -146.5t260.5 -56.5q162 0 270.5 76t108.5 196q0 74 -41 129.5t-116.5 89t-123.5 48t-122 28.5q-469 102 -469 400q0 170 136 275.5t347 105.5q291 0 451 -181l-66 -92q-55 68 -159.5 113t-225.5 45 q-154 0 -254 -73.5t-100 -186.5q0 -209 375 -283q57 -12 108 -25.5t128 -47t130.5 -75.5t93 -110.5t39.5 -152.5q0 -172 -146.5 -283t-363.5 -111zM506 -442l63 295h127l-92 -295h-98z" glyph-name="Scommaaccent" horiz-adv-x="1200" unicode="Ș"/><glyph d="M494 -25q-252 0 -412 166l68 86q127 -143 342 -143q125 0 205.5 52t80.5 136q0 45 -21.5 79t-68.5 56.5t-87 35t-112 30.5q-70 18 -108.5 29.5t-97 37t-89 54.5t-54 76t-23.5 106q0 137 110.5 215t272.5 78q223 0 368 -145l-67 -88q-115 125 -299 125 q-113 0 -187.5 -48.5t-74.5 -128.5q0 -37 17 -66.5t41 -49t68 -37t77.5 -26.5t91.5 -23q70 -16 107.5 -27.5t95 -36t87 -53.5t53 -75t23.5 -105q0 -143 -115.5 -226.5t-291.5 -83.5zM391 -442l64 295h127l-93 -295h-98z" glyph-name="scommaaccent" horiz-adv-x="987" unicode="ș"/><glyph d="M66 1413h1083v-119h-479v-1294h-125v1294h-479v119zM502 -442l63 295h127l-92 -295h-98z" glyph-name="uni021A" horiz-adv-x="1214" unicode="Ț"/><glyph d="M739 936h-333v-668q0 -178 184 -178q76 0 149 39v-113q-78 -41 -172 -41q-137 0 -208.5 70t-71.5 205v686h-203v108h203v291h119v-291h333v-108zM354 -442l64 295h127l-92 -295h-99z" glyph-name="uni021B" horiz-adv-x="819" unicode="ț"/><glyph d="M918 1702v-103h-453v103h453zM1206 1413h142l-594 -872v-541h-127v541l-596 872h147l514 -749z" glyph-name="uni0232" horiz-adv-x="1380" unicode="Ȳ"/><glyph d="M809 1333v-102h-453v102h453zM987 1044h133l-594 -1288q-37 -82 -99 -126t-136 -44q-127 0 -217 97l53 90q57 -72 147 -72q92 0 144 102l96 199l-473 1042h137l406 -907z" glyph-name="uni0233" horiz-adv-x="1161" unicode="ȳ"/><glyph d="M41 -414q-68 0 -125 27v108q43 -25 104 -24q156 0 156 162v1185h119v-1200q0 -125 -66.5 -191.5t-187.5 -66.5z" glyph-name="uni0237" horiz-adv-x="456" unicode="ȷ"/><glyph d="M0 1092l43 383h115l-66 -383h-92z" glyph-name="afii57929" horiz-adv-x="157" unicode="ʼ"/><glyph d="M561 1194h-115l-165 182l-166 -182h-115l207 250h147z" glyph-name="circumflex" horiz-adv-x="561" unicode="ˆ"/><glyph d="M446 1444h115l-207 -250h-147l-207 250h115l166 -182z" glyph-name="caron" horiz-adv-x="561" unicode="ˇ"/><glyph d="M258 1174q-111 0 -184.5 72.5t-73.5 178.5h96q0 -70 46 -115.5t116 -45.5q68 0 114 46t46 115h96q0 -106 -73.5 -178.5t-182.5 -72.5z" glyph-name="breve" horiz-adv-x="514" unicode="˘"/><glyph d="M86 1214q-37 0 -61.5 25t-24.5 59q0 37 24.5 61.5t61.5 24.5q35 0 59.5 -24.5t24.5 -61.5q0 -35 -24.5 -59.5t-59.5 -24.5z" glyph-name="dotaccent" horiz-adv-x="169" unicode="˙"/><glyph d="M158 1165q-66 0 -112 45t-46 111q0 68 46 113t112 45q68 0 113.5 -45t45.5 -113q0 -66 -45.5 -111t-113.5 -45zM158 1233q37 0 62.5 24.5t25.5 63.5t-25.5 64.5t-62.5 25.5t-61.5 -25.5t-24.5 -64.5t24.5 -63.5t61.5 -24.5z" glyph-name="ring" horiz-adv-x="317" unicode="˚"/><glyph d="M201 -436q-86 0 -143.5 53t-57.5 131q0 80 60.5 148.5t160.5 109.5h88l4 -6q-215 -98 -215 -229q0 -51 35 -84t84 -33q59 0 105 33l32 -76q-69 -47 -153 -47z" glyph-name="ogonek" horiz-adv-x="354" unicode="˛"/><glyph d="M475 1210q-68 0 -145.5 63.5t-124.5 63.5q-51 0 -84 -33.5t-33 -82.5h-88q0 92 53 152.5t137 60.5q70 0 148 -63.5t125 -63.5q49 0 82 32.5t33 83.5h90q0 -94 -53.5 -153.5t-139.5 -59.5z" glyph-name="tilde" horiz-adv-x="667" unicode="˜"/><glyph d="M0 1194l166 250h137l-186 -250h-117zM371 1194l166 250h137l-187 -250h-116z" glyph-name="hungarumlaut" horiz-adv-x="673" unicode="˝"/><glyph d="M-129 1194l-244 250h158l215 -250h-129z" glyph-name="gravecomb" horiz-adv-x="0" unicode="̀"/><glyph d="M-373 1194l215 250h158l-244 -250h-129z" glyph-name="acutecomb" horiz-adv-x="0" unicode="́"/><glyph d="M0 1194h-115l-166 182l-165 -182h-115l207 250h147z" glyph-name="uni0302" horiz-adv-x="0" unicode="̂"/><glyph d="M-193 1210q-68 0 -145.5 63.5t-124.5 63.5q-51 0 -84 -33.5t-33 -82.5h-88q0 92 53.5 152.5t137.5 60.5q70 0 147.5 -63.5t124.5 -63.5q49 0 82 32.5t33 83.5h90q0 -94 -53.5 -153.5t-139.5 -59.5z" glyph-name="tildecomb" horiz-adv-x="0" unicode="̃"/><glyph d="M-453 1231v102h453v-102h-453z" glyph-name="uni0304" horiz-adv-x="0" unicode="̄"/><glyph d="M-256 1174q-111 0 -184.5 72.5t-73.5 178.5h96q0 -70 46 -115.5t116 -45.5q68 0 114 46t46 115h96q0 -106 -73.5 -178.5t-182.5 -72.5z" glyph-name="uni0306" horiz-adv-x="0" unicode="̆"/><glyph d="M-84 1214q-37 0 -61.5 25t-24.5 59q0 37 24.5 61.5t61.5 24.5q35 0 59.5 -24.5t24.5 -61.5q0 -35 -24.5 -59.5t-59.5 -24.5z" glyph-name="uni0307" horiz-adv-x="0" unicode="̇"/><glyph d="M-495.5 1214q-34.5 0 -58.5 24t-24 58.5t24 58t58.5 23.5t59 -23.5t24.5 -58t-24.5 -58.5t-59 -24zM-84 1214q-35 0 -58.5 24t-23.5 58.5t23.5 58t58.5 23.5t59.5 -23.5t24.5 -58t-24.5 -58.5t-59.5 -24z" glyph-name="uni0308" horiz-adv-x="0" unicode="̈"/><glyph d="M-160 1165q-66 0 -111.5 45t-45.5 111q0 68 46 113t111 45q68 0 114 -45t46 -113q0 -66 -46 -111t-114 -45zM-160 1233q37 0 62.5 24.5t25.5 63.5t-25.5 64.5t-62.5 25.5t-61.5 -25.5t-24.5 -64.5t24.5 -63.5t61.5 -24.5z" glyph-name="uni030A" horiz-adv-x="0" unicode="̊"/><glyph d="M-674 1194l166 250h137l-186 -250h-117zM-303 1194l166 250h137l-186 -250h-117z" glyph-name="uni030B" horiz-adv-x="0" unicode="̋"/><glyph d="M-115 1444h115l-207 -250h-147l-207 250h115l165 -182z" glyph-name="uni030C" horiz-adv-x="0" unicode="̌"/><glyph d="M-487 1194l-187 250h137l166 -250h-116zM-117 1194l-186 250h137l166 -250h-117z" glyph-name="uni030F" horiz-adv-x="0" unicode="̏"/><glyph d="M-514 1180q0 109 73.5 180.5t184.5 71.5q109 0 182.5 -73t73.5 -179h-96q0 70 -46 116.5t-114 46.5q-70 0 -116 -47t-46 -116h-96z" glyph-name="uni0311" horiz-adv-x="0" unicode="̑"/><glyph d="M-190 1180l92 295h98l-63 -295h-127z" glyph-name="uni0312" horiz-adv-x="0" unicode="̒"/><glyph d="M-84 -340q-37 0 -61.5 24.5t-24.5 61.5q0 35 24.5 59.5t61.5 24.5q35 0 59.5 -24.5t24.5 -59.5q0 -37 -24.5 -61.5t-59.5 -24.5z" glyph-name="dotbelowcomb" horiz-adv-x="0" unicode="̣"/><glyph d="M-190 -442l63 295h127l-92 -295h-98z" glyph-name="uni0326" horiz-adv-x="0" unicode="̦"/><glyph d="M-174 -74q74 0 124 -52t50 -130t-56.5 -131t-138.5 -53q-117 0 -178 100l49 51q43 -80 129 -80q49 0 82 33t33 80q0 49 -32.5 81t-80.5 32q-49 0 -75 -31l-70 33l107 141v4h88v-4l-60 -76q4 0 13.5 1t15.5 1z" glyph-name="uni0327" horiz-adv-x="0" unicode="̧"/><glyph d="M-154 -436q-86 0 -143 53t-57 131q0 80 60.5 148.5t160.5 109.5h88l4 -6q-215 -98 -215 -229q0 -51 35 -84t84 -33q59 0 104 33l33 -76q-70 -47 -154 -47z" glyph-name="uni0328" horiz-adv-x="0" unicode="̨"/><glyph d="M-573 516v90h573v-90h-573z" glyph-name="uni0335" horiz-adv-x="0" unicode="̵"/><glyph d="M-1382 516v90h1382v-90h-1382z" glyph-name="uni0336" horiz-adv-x="0" unicode="̶"/><glyph d="M-1032 0l936 1044h96l-936 -1044h-96z" glyph-name="uni0337" horiz-adv-x="0" unicode="̷"/><glyph d="M-1368 0l1251 1413h117l-1251 -1413h-117z" glyph-name="uni0338" horiz-adv-x="0" unicode="̸"/><glyph d="M985 1044h119v-1044h-119v184q-119 -209 -383 -209q-207 0 -321 138v-502h-119v1433h119v-608q0 -156 94 -251t250 -95q162 0 261 96.5t99 253.5v604z" glyph-name="mu" horiz-adv-x="1265" unicode="μ"/><glyph d="M721 1413q305 0 508 -201.5t203 -505t-203 -505t-508 -201.5h-539v1413h539zM719 119q250 0 417 168t167 419.5t-167 419.5t-417 168h-412v-1175h412zM750 -170q35 0 59.5 -24.5t24.5 -59.5q0 -37 -25 -61.5t-59 -24.5q-37 0 -61.5 24.5t-24.5 61.5q0 35 24.5 59.5 t61.5 24.5z" glyph-name="uni1E0C" horiz-adv-x="1533" unicode="Ḍ"/><glyph d="M1077 1475h119v-1475h-119v242q-66 -123 -184.5 -195t-265.5 -72q-227 0 -379 157t-152 390.5t151.5 390t379.5 156.5q147 0 266 -71.5t184 -194.5v672zM647 90q184 0 307 124t123 308.5t-123 308t-307 123.5q-182 0 -305 -123.5t-123 -308t123 -308.5t305 -124z M678 -170q35 0 59.5 -24.5t24.5 -59.5q0 -37 -24.5 -61.5t-59.5 -24.5q-37 0 -61.5 24.5t-24.5 61.5q0 35 24.5 59.5t61.5 24.5z" glyph-name="uni1E0D" unicode="ḍ"/><glyph d="M1198 1413h127v-1413h-127v651h-891v-651h-125v1413h125v-643h891v643zM756 -170q35 0 59.5 -24.5t24.5 -59.5q0 -37 -24.5 -61.5t-59.5 -24.5q-37 0 -61.5 24.5t-24.5 61.5q0 35 24.5 59.5t61.5 24.5z" glyph-name="uni1E24" horiz-adv-x="1507" unicode="Ḥ"/><glyph d="M686 1069q197 0 317.5 -120t120.5 -316v-633h-118v598q0 162 -97.5 259t-257.5 97q-166 0 -268 -99t-102 -261v-594h-119v1475h119v-631q122 225 405 225zM643 -170q35 0 59.5 -24.5t24.5 -59.5q0 -37 -24.5 -61.5t-59.5 -24.5q-37 0 -61.5 24.5t-24.5 61.5 q0 35 24.5 59.5t61.5 24.5z" glyph-name="uni1E25" horiz-adv-x="1273" unicode="ḥ"/><glyph d="M764 1583q-37 0 -61.5 24.5t-24.5 59.5q0 37 24.5 61.5t61.5 24.5q35 0 59.5 -24.5t24.5 -61.5q0 -35 -24.5 -59.5t-59.5 -24.5zM1214 1413h127v-1413h-137l-897 1212v-1212h-125v1413h135l897 -1212v1212z" glyph-name="uni1E44" horiz-adv-x="1521" unicode="Ṅ"/><glyph d="M641 1214q-37 0 -61.5 25t-24.5 59q0 37 24.5 61.5t61.5 24.5q35 0 59.5 -24.5t24.5 -61.5q0 -35 -24.5 -59.5t-59.5 -24.5zM686 1069q197 0 317.5 -120t120.5 -316v-633h-118v598q0 162 -97.5 259t-257.5 97q-166 0 -268 -99t-102 -261v-594h-119v1044h119v-196 q120 221 405 221z" glyph-name="uni1E45" horiz-adv-x="1273" unicode="ṅ"/><glyph d="M690 598l488 -598h-156l-485 598h-230v-598h-125v1413h553q178 0 297 -116.5t119 -292.5q0 -174 -119 -290t-295 -116h-47zM307 1294v-585h426q123 0 206 84t83 208.5t-83 208.5t-206 84h-426zM629 -170q35 0 59.5 -24.5t24.5 -59.5q0 -37 -24.5 -61.5t-59.5 -24.5 q-37 0 -61.5 24.5t-24.5 61.5q0 35 24.5 59.5t61.5 24.5z" glyph-name="uni1E5A" horiz-adv-x="1253" unicode="Ṛ"/><glyph d="M674 1061h31v-123h-31q-180 0 -286.5 -108.5t-106.5 -290.5v-539h-119v1044h119v-219q57 113 158.5 174.5t234.5 61.5zM223 -170q35 0 59.5 -24.5t24.5 -59.5q0 -37 -24.5 -61.5t-59.5 -24.5q-37 0 -61.5 24.5t-24.5 61.5q0 35 24.5 59.5t61.5 24.5z" glyph-name="uni1E5B" horiz-adv-x="749" unicode="ṛ"/><glyph d="M618 -25q-156 0 -298 59.5t-236 164.5l70 94q80 -90 203.5 -146.5t260.5 -56.5q162 0 270.5 76t108.5 196q0 74 -41 129.5t-116.5 89t-123.5 48t-122 28.5q-469 102 -469 400q0 170 136 275.5t347 105.5q291 0 451 -181l-66 -92q-55 68 -159.5 113t-225.5 45 q-154 0 -254 -73.5t-100 -186.5q0 -209 375 -283q57 -12 108 -25.5t128 -47t130.5 -75.5t93 -110.5t39.5 -152.5q0 -172 -146.5 -283t-363.5 -111zM612 -340q-37 0 -61.5 24.5t-24.5 61.5q0 35 24.5 59.5t61.5 24.5q35 0 59.5 -24.5t24.5 -59.5q0 -37 -24.5 -61.5 t-59.5 -24.5z" glyph-name="uni1E62" horiz-adv-x="1200" unicode="Ṣ"/><glyph d="M494 -25q-252 0 -412 166l68 86q127 -143 342 -143q125 0 205.5 52t80.5 136q0 45 -21.5 79t-68.5 56.5t-87 35t-112 30.5q-70 18 -108.5 29.5t-97 37t-89 54.5t-54 76t-23.5 106q0 137 110.5 215t272.5 78q223 0 368 -145l-67 -88q-115 125 -299 125 q-113 0 -187.5 -48.5t-74.5 -128.5q0 -37 17 -66.5t41 -49t68 -37t77.5 -26.5t91.5 -23q70 -16 107.5 -27.5t95 -36t87 -53.5t53 -75t23.5 -105q0 -143 -115.5 -226.5t-291.5 -83.5zM498 -340q-37 0 -61.5 24.5t-24.5 61.5q0 35 24.5 59.5t61.5 24.5q35 0 59.5 -24.5 t24.5 -59.5q0 -37 -24.5 -61.5t-59.5 -24.5z" glyph-name="uni1E63" horiz-adv-x="987" unicode="ṣ"/><glyph d="M66 1413h1083v-119h-479v-1294h-125v1294h-479v119zM608 -170q35 0 59.5 -24.5t24.5 -59.5q0 -37 -24.5 -61.5t-59.5 -24.5q-37 0 -61.5 24.5t-24.5 61.5q0 35 24.5 59.5t61.5 24.5z" glyph-name="uni1E6C" horiz-adv-x="1214" unicode="Ṭ"/><glyph d="M739 936h-333v-668q0 -178 184 -178q76 0 149 39v-113q-78 -41 -172 -41q-137 0 -208.5 70t-71.5 205v686h-203v108h203v291h119v-291h333v-108zM461 -170q35 0 59.5 -24.5t24.5 -59.5q0 -37 -24.5 -61.5t-59.5 -24.5q-37 0 -61.5 24.5t-24.5 61.5q0 35 24.5 59.5 t61.5 24.5z" glyph-name="uni1E6D" horiz-adv-x="819" unicode="ṭ"/><glyph d="M1130 1563h-129l-243 249h157zM1905 1413h131l-459 -1413h-129l-395 1233l-398 -1233h-131l-458 1413h135l393 -1251l401 1251h117l399 -1251z" glyph-name="Wgrave" horiz-adv-x="2101" unicode="Ẁ"/><glyph d="M975 1194h-129l-244 250h158zM1616 1044h129l-391 -1044h-127l-330 905l-332 -905h-127l-391 1044h133l326 -905l330 905h125l329 -905z" glyph-name="wgrave" horiz-adv-x="1794" unicode="ẁ"/><glyph d="M1346 1812l-244 -249h-129l215 249h158zM1905 1413h131l-459 -1413h-129l-395 1233l-398 -1233h-131l-458 1413h135l393 -1251l401 1251h117l399 -1251z" glyph-name="Wacute" horiz-adv-x="2101" unicode="Ẃ"/><glyph d="M1190 1444l-244 -250h-129l215 250h158zM1616 1044h129l-391 -1044h-127l-330 905l-332 -905h-127l-391 1044h133l326 -905l330 905h125l329 -905z" glyph-name="wacute" horiz-adv-x="1794" unicode="ẃ"/><glyph d="M846 1583q-35 0 -58.5 23.5t-23.5 58.5t23.5 58.5t58.5 23.5t59.5 -23.5t24.5 -58.5t-24.5 -58.5t-59.5 -23.5zM1257.5 1583q-34.5 0 -58 23.5t-23.5 58.5t23.5 58.5t58 23.5t59 -23.5t24.5 -58.5t-24.5 -58.5t-59 -23.5zM1905 1413h131l-459 -1413h-129l-395 1233 l-398 -1233h-131l-458 1413h135l393 -1251l401 1251h117l399 -1251z" glyph-name="Wdieresis" horiz-adv-x="2101" unicode="Ẅ"/><glyph d="M690 1214q-35 0 -58.5 24t-23.5 58.5t23.5 58t58.5 23.5t59.5 -23.5t24.5 -58t-24.5 -58.5t-59.5 -24zM1102 1214q-35 0 -58.5 24t-23.5 58.5t23.5 58t58.5 23.5t59.5 -23.5t24.5 -58t-24.5 -58.5t-59.5 -24zM1616 1044h129l-391 -1044h-127l-330 905l-332 -905h-127 l-391 1044h133l326 -905l330 905h125l329 -905z" glyph-name="wdieresis" horiz-adv-x="1794" unicode="ẅ"/><glyph d="M264 119h901v-119h-1073v90l887 1204h-879v119h1051v-90zM627 -170q35 0 59.5 -24.5t24.5 -59.5q0 -37 -24.5 -61.5t-59.5 -24.5q-37 0 -61.5 24.5t-24.5 61.5q0 35 24.5 59.5t61.5 24.5z" glyph-name="uni1E92" horiz-adv-x="1257" unicode="Ẓ"/><glyph d="M266 115h662v-115h-830v86l647 844h-639v114h807v-86zM514 -170q35 0 59.5 -24.5t24.5 -59.5q0 -37 -24.5 -61.5t-59.5 -24.5q-37 0 -61.5 24.5t-24.5 61.5q0 35 24.5 59.5t61.5 24.5z" glyph-name="uni1E93" horiz-adv-x="1026" unicode="ẓ"/><glyph d="M801 856q190 0 318 -127t128 -315q0 -186 -128 -312.5t-316 -126.5q-145 0 -244 74v131q33 -35 98.5 -58.5t126.5 -23.5q143 0 237.5 91.5t94.5 230.5q0 135 -91 227t-228 92h-140v92l324 463h-518q-70 0 -117 -47t-47 -117v-1130h-125v1141q0 119 78 195.5t199 76.5h673 v-104l-325 -453h2z" glyph-name="uni1E9E" horiz-adv-x="1308" unicode="ẞ"/><glyph d="M1399 0h-142l-161 387h-742l-161 -387h-138l596 1413h152zM403 504h646l-324 774zM727 -170q35 0 59.5 -24.5t24.5 -59.5q0 -37 -24.5 -61.5t-59.5 -24.5q-37 0 -61.5 24.5t-24.5 61.5q0 35 24.5 59.5t61.5 24.5z" glyph-name="uni1EA0" horiz-adv-x="1454" unicode="Ạ"/><glyph d="M1077 1044h119v-1044h-119v242q-66 -123 -184.5 -195t-265.5 -72q-227 0 -379 157t-152 390.5t151.5 390t379.5 156.5q147 0 266 -71.5t184 -194.5v241zM647 90q184 0 307 124t123 308.5t-123 308t-307 123.5q-182 0 -305 -123.5t-123 -308t123 -308.5t305 -124z M682 -170q35 0 59.5 -24.5t24.5 -59.5q0 -37 -24.5 -61.5t-59.5 -24.5q-37 0 -61.5 24.5t-24.5 61.5q0 35 24.5 59.5t61.5 24.5z" glyph-name="uni1EA1" unicode="ạ"/><glyph d="M307 119h795v-119h-920v1413h910v-119h-785v-524h717v-119h-717v-532zM645 -170q35 0 59.5 -24.5t24.5 -59.5q0 -37 -24.5 -61.5t-59.5 -24.5q-37 0 -61.5 24.5t-24.5 61.5q0 35 24.5 59.5t61.5 24.5z" glyph-name="uni1EB8" horiz-adv-x="1210" unicode="Ẹ"/><glyph d="M1182 522q0 -18 -4 -51h-959q18 -170 142 -277.5t303 -107.5q125 0 229 54.5t162 144.5l84 -70q-76 -113 -202 -176.5t-278 -63.5q-242 0 -403.5 158t-161.5 391.5t156 389t389 155.5q231 0 387 -155.5t156 -391.5zM637 958q-166 0 -282.5 -106.5t-135.5 -273.5h838 q-18 168 -135 274t-285 106zM647 -170q35 0 59.5 -24.5t24.5 -59.5q0 -37 -24.5 -61.5t-59.5 -24.5q-37 0 -61.5 24.5t-24.5 61.5q0 35 24.5 59.5t61.5 24.5z" glyph-name="uni1EB9" horiz-adv-x="1269" unicode="ẹ"/><glyph d="M516 1706q-51 0 -84 -34t-33 -83h-88q0 92 53.5 152.5t137.5 60.5q70 0 147.5 -63.5t124.5 -63.5q49 0 82 33t33 84h90q0 -94 -53.5 -153.5t-139.5 -59.5q-68 0 -145.5 63.5t-124.5 63.5zM307 119h795v-119h-920v1413h910v-119h-785v-524h717v-119h-717v-532z" glyph-name="uni1EBC" horiz-adv-x="1210" unicode="Ẽ"/><glyph d="M518 1337q-51 0 -84 -33.5t-33 -82.5h-88q0 92 53.5 152.5t137.5 60.5q70 0 147.5 -63.5t124.5 -63.5q49 0 82 32.5t33 83.5h90q0 -94 -53.5 -153.5t-139.5 -59.5q-68 0 -145.5 63.5t-124.5 63.5zM1182 522q0 -18 -4 -51h-959q18 -170 142 -277.5t303 -107.5 q125 0 229 54.5t162 144.5l84 -70q-76 -113 -202 -176.5t-278 -63.5q-242 0 -403.5 158t-161.5 391.5t156 389t389 155.5q231 0 387 -155.5t156 -391.5zM637 958q-166 0 -282.5 -106.5t-135.5 -273.5h838q-18 168 -135 274t-285 106z" glyph-name="uni1EBD" horiz-adv-x="1269" unicode="ẽ"/><glyph d="M182 0v1413h125v-1413h-125zM246 -340q-37 0 -61.5 24.5t-24.5 61.5q0 35 24.5 59.5t61.5 24.5q35 0 59.5 -24.5t24.5 -59.5q0 -37 -24.5 -61.5t-59.5 -24.5z" glyph-name="uni1ECA" horiz-adv-x="489" unicode="Ị"/><glyph d="M221 1290q-35 0 -60.5 24.5t-25.5 61.5q0 35 25.5 59.5t60.5 24.5q37 0 62.5 -24.5t25.5 -59.5q0 -37 -25.5 -61.5t-62.5 -24.5zM162 0v1044h119v-1044h-119zM223 -340q-37 0 -61.5 24.5t-24.5 61.5q0 35 24.5 59.5t61.5 24.5q35 0 59.5 -24.5t24.5 -59.5 q0 -37 -24.5 -61.5t-59.5 -24.5z" glyph-name="uni1ECB" horiz-adv-x="444" unicode="ị"/><glyph d="M838 -25q-315 0 -526.5 210t-211.5 521.5t211 521.5t527 210q313 0 525 -210t212 -521.5t-212 -521.5t-525 -210zM838 98q258 0 432 174t174 434.5t-174 434.5t-432 174t-432.5 -174t-174.5 -434.5t174.5 -434.5t432.5 -174zM838 -340q-37 0 -61.5 24.5t-24.5 61.5 q0 35 24.5 59.5t61.5 24.5q35 0 59.5 -24.5t24.5 -59.5q0 -37 -24.5 -61.5t-59.5 -24.5z" glyph-name="uni1ECC" horiz-adv-x="1675" unicode="Ọ"/><glyph d="M647.5 -25q-235.5 0 -394.5 157t-159 390.5t159 390t394.5 156.5t393 -156.5t157.5 -390t-157.5 -390.5t-393 -157zM647 90q184 0 306 124t122 308.5t-122 308t-306 123.5t-307 -123.5t-123 -308t123 -308.5t307 -124zM647 -340q-37 0 -61.5 24.5t-24.5 61.5 q0 35 24.5 59.5t61.5 24.5q35 0 59.5 -24.5t24.5 -59.5q0 -37 -24.5 -61.5t-59.5 -24.5z" glyph-name="uni1ECD" horiz-adv-x="1292" unicode="ọ"/><glyph d="M715 -25q-244 0 -407 161t-163 403v874h127v-874q0 -188 126 -314.5t317 -126.5q188 0 314 126t126 315v874h127v-874q0 -242 -162.5 -403t-404.5 -161zM715 -340q-37 0 -61.5 24.5t-24.5 61.5q0 35 24.5 59.5t61.5 24.5q35 0 59.5 -24.5t24.5 -59.5q0 -37 -24.5 -61.5 t-59.5 -24.5z" glyph-name="uni1EE4" horiz-adv-x="1427" unicode="Ụ"/><glyph d="M612 -25q-209 0 -335.5 120t-126.5 317v632h118v-616q0 -152 94.5 -245t250 -93t248.5 93t93 245v616h119v-632q0 -197 -126 -317t-335 -120zM612 -340q-37 0 -61.5 24.5t-24.5 61.5q0 35 24.5 59.5t61.5 24.5q35 0 59.5 -24.5t24.5 -59.5q0 -37 -24.5 -61.5t-59.5 -24.5 z" glyph-name="uni1EE5" horiz-adv-x="1224" unicode="ụ"/><glyph d="M768 1563h-129l-244 249h158zM1206 1413h142l-594 -872v-541h-127v541l-596 872h147l514 -749z" glyph-name="Ygrave" horiz-adv-x="1380" unicode="Ỳ"/><glyph d="M659 1194h-129l-243 250h157zM987 1044h133l-594 -1288q-37 -82 -99 -126t-136 -44q-127 0 -217 97l53 90q57 -72 147 -72q92 0 144 102l96 199l-473 1042h137l406 -907z" glyph-name="ygrave" horiz-adv-x="1161" unicode="ỳ"/><glyph d="M561 1706q-51 0 -84 -34t-33 -83h-88q0 92 53.5 152.5t137.5 60.5q70 0 147.5 -63.5t124.5 -63.5q49 0 82 33t33 84h90q0 -94 -53 -153.5t-140 -59.5q-68 0 -145.5 63.5t-124.5 63.5zM1206 1413h142l-594 -872v-541h-127v541l-596 872h147l514 -749z" glyph-name="uni1EF8" horiz-adv-x="1380" unicode="Ỹ"/><glyph d="M453 1337q-51 0 -84 -33.5t-33 -82.5h-88q0 92 53 152.5t137 60.5q70 0 148 -63.5t125 -63.5q49 0 81.5 32.5t32.5 83.5h90q0 -94 -53 -153.5t-139 -59.5q-68 0 -145.5 63.5t-124.5 63.5zM987 1044h133l-594 -1288q-37 -82 -99 -126t-136 -44q-127 0 -217 97l53 90 q57 -72 147 -72q92 0 144 102l96 199l-473 1042h137l406 -907z" glyph-name="uni1EF9" horiz-adv-x="1161" unicode="ỹ"/><glyph d="M137 506v108h971v-108h-971z" glyph-name="endash" horiz-adv-x="1245" unicode="–"/><glyph d="M137 506v108h1913v-108h-1913z" glyph-name="emdash" horiz-adv-x="2187" unicode="—"/><glyph d="M119 950l180 463h104l-141 -463h-143z" glyph-name="quoteleft" horiz-adv-x="464" unicode="‘"/><glyph d="M119 950l141 463h143l-180 -463h-104z" glyph-name="quoteright" horiz-adv-x="464" unicode="’"/><glyph d="M61 -291l142 463h143l-180 -463h-105z" glyph-name="quotesinglbase" horiz-adv-x="464" unicode="‚"/><glyph d="M119 950l180 463h104l-141 -463h-143zM516 950l180 463h105l-142 -463h-143z" glyph-name="quotedblleft" horiz-adv-x="862" unicode="“"/><glyph d="M119 950l141 463h143l-180 -463h-104zM516 950l141 463h144l-180 -463h-105z" glyph-name="quotedblright" horiz-adv-x="862" unicode="”"/><glyph d="M61 -291l142 463h143l-180 -463h-105zM459 -291l141 463h143l-180 -463h-104z" glyph-name="quotedblbase" horiz-adv-x="862" unicode="„"/><glyph d="M874 1044v-106h-313v-1327h-110v1327h-314v106h314v369h110v-369h313z" glyph-name="dagger" horiz-adv-x="1011" unicode="†"/><glyph d="M874 938h-313v-811h313v-107h-313v-409h-110v409h-314v107h314v811h-314v106h314v369h110v-369h313v-106z" glyph-name="daggerdbl" horiz-adv-x="1011" unicode="‡"/><glyph d="M305 393q-72 0 -120 48t-48 120t48 120t120 48t120 -48t48 -120t-48 -120t-120 -48z" glyph-name="bullet" horiz-adv-x="610" unicode="•"/><glyph d="M227 -10q-41 0 -68.5 27.5t-27.5 68.5t27.5 68.5t68.5 27.5t70 -27.5t29 -68.5t-29 -68.5t-70 -27.5zM692 -10q-43 0 -70.5 27.5t-27.5 68.5t27.5 68.5t70.5 27.5q41 0 68.5 -27.5t27.5 -68.5t-27.5 -68.5t-68.5 -27.5zM1155 -10q-41 0 -68.5 27.5t-27.5 68.5t27.5 68.5 t68.5 27.5t69.5 -27.5t28.5 -68.5t-28.5 -68.5t-69.5 -27.5z" glyph-name="ellipsis" horiz-adv-x="1382" unicode="…"/><glyph d="M428 803q-137 0 -228 91t-91 226q0 137 91 227.5t228 90.5t228.5 -90.5t91.5 -227.5q0 -135 -91.5 -226t-228.5 -91zM262 0l1024 1413h131l-1024 -1413h-131zM428 903q92 0 153.5 61.5t61.5 155.5t-61.5 156.5t-153.5 62.5q-94 0 -155.5 -62.5t-61.5 -156.5t61.5 -155.5 t155.5 -61.5zM1251.5 -25q-137.5 0 -228.5 91.5t-91 226.5t91 226t228.5 91t228.5 -91t91 -226t-91 -226.5t-228.5 -91.5zM2005 -25q-137 0 -228 91.5t-91 226.5t91 226t228 91t228 -91t91 -226t-91 -226.5t-228 -91.5zM1251 74q92 0 154.5 62.5t62.5 156.5t-62.5 155.5 t-154.5 61.5t-154.5 -61.5t-62.5 -155.5t62.5 -156.5t154.5 -62.5zM2005 74q92 0 154.5 62.5t62.5 156.5t-62.5 155.5t-154.5 61.5t-154.5 -61.5t-62.5 -155.5t62.5 -156.5t154.5 -62.5z" glyph-name="perthousand" horiz-adv-x="2430" unicode="‰"/><glyph d="M602 954l-358 -413l358 -414h-141l-361 414l361 413h141z" glyph-name="guilsinglleft" horiz-adv-x="718" unicode="‹"/><glyph d="M264 954l359 -413l-359 -414h-143l358 414l-358 413h143z" glyph-name="guilsinglright" horiz-adv-x="718" unicode="›"/><glyph d="M-383 0l1004 1413h114l-1001 -1413h-117z" glyph-name="fraction" horiz-adv-x="354" unicode="⁄"/><glyph d="M397.5 735q-143.5 0 -233.5 123t-90 315.5t90 315.5t233.5 123t234.5 -123t91 -315.5t-91 -315.5t-234.5 -123zM397.5 825q100.5 0 165 97.5t64.5 251t-64.5 251t-165 97.5t-164 -97.5t-63.5 -251t63.5 -251t164 -97.5z" glyph-name="uni2070" horiz-adv-x="811" unicode="⁰"/><glyph d="M686 1036v-88h-115v-198h-94v198h-411l-21 76l426 573h100v-561h115zM143 1036h334v447z" glyph-name="uni2074" horiz-adv-x="710" unicode="⁴"/><glyph d="M381 1282q125 0 208 -78t83 -194.5t-88 -195.5t-224 -79q-172 0 -290 129l49 74q92 -113 235 -113q96 0 158.5 54.5t62.5 134.5q0 78 -58 131t-146 53q-111 0 -185 -70l-80 25l41 444h467v-86h-389l-24 -284q76 55 180 55z" glyph-name="uni2075" horiz-adv-x="708" unicode="⁵"/><glyph d="M383 1280q119 0 197.5 -77t78.5 -189q0 -119 -89 -199t-222 -80q-143 0 -229 87t-86 239q0 197 141 351.5t369 199.5l18 -86q-160 -37 -266.5 -129t-142.5 -213q75 96 231 96zM348 823q92 0 153.5 54.5t61.5 136.5q0 78 -59.5 130t-147.5 52t-157.5 -46t-69.5 -128 q0 -86 60.5 -142.5t158.5 -56.5z" glyph-name="uni2076" horiz-adv-x="688" unicode="⁶"/><glyph d="M57 1597h549v-71l-368 -776h-105l361 759h-437v88z" glyph-name="uni2077" horiz-adv-x="655" unicode="⁷"/><glyph d="M483 1188q76 -31 119 -85t43 -126q0 -102 -88 -172t-219 -70q-129 0 -216 69.5t-87 172.5q0 145 160 211q-66 29 -104 82t-38 116q0 96 82 161t203 65q123 0 206 -64.5t83 -161.5q-1 -132 -144 -198zM150 1376.5q0 -63.5 54 -105.5t134 -42q82 0 137 42t55 105.5 t-54 105.5t-138 42q-80 0 -134 -42t-54 -105.5zM338 823q90 0 150.5 46t60.5 116q0 68 -60.5 114t-150.5 46q-88 0 -147.5 -46t-59.5 -114q0 -70 59.5 -116t147.5 -46z" glyph-name="uni2078" horiz-adv-x="679" unicode="⁸"/><glyph d="M344 1612q143 0 228 -87t85 -239q0 -201 -141 -359.5t-366 -191.5l-21 86q164 29 269.5 124t142.5 220q-76 -98 -232 -98q-119 0 -197.5 77t-78.5 189q0 119 89 199t222 80zM336 1151q88 0 156.5 46t68.5 128q0 88 -60.5 143.5t-158.5 55.5q-90 0 -151.5 -54.5 t-61.5 -136.5q0 -78 58.5 -130t148.5 -52z" glyph-name="uni2079" horiz-adv-x="688" unicode="⁹"/><glyph d="M1065 1294h-713v-518h625v-119h-625v-274h451v-111h-451v-272h-127v272h-147v111h147v1030h840v-119z" glyph-name="franc" horiz-adv-x="1144" unicode="₣"/><glyph d="M375 119h723v-119h-998v119h146v364h-146v101h146v137h-146v100h146v180q0 186 129 311.5t321 125.5q238 0 389 -183l-69 -90q-129 150 -318 150q-139 0 -231 -89t-92 -225v-180h463v-100h-463v-137h463v-101h-463v-364z" glyph-name="lira" horiz-adv-x="1177" unicode="₤"/><glyph d="M1284 1018v-86h-106q-16 -172 -141.5 -284.5t-303.5 -112.5h-362v-533h-127v930h-148v86h148v397h489q178 0 303 -112.5t142 -284.5h106zM371 1296v-278h676q-16 123 -104.5 200.5t-211.5 77.5h-360zM731 653q123 0 211 78t105 201h-676v-279h360z" glyph-name="peseta" horiz-adv-x="1304" unicode="₧"/><glyph d="M737 598h-47l488 -598h-156l-485 598h-230v-598h-125v1413h553q178 0 297 -116.5t119 -292.5q0 -174 -119 -290t-295 -116zM307 1294v-585h426q123 0 206 84t83 208.5t-83 208.5t-206 84h-426zM1784 582q70 -16 107.5 -27.5t95 -36t87 -53.5t53 -75t23.5 -105 q0 -143 -115.5 -226.5t-291.5 -83.5q-252 0 -412 166l68 86q127 -143 342 -143q125 0 206 52t81 136q0 45 -21.5 79t-69 56.5t-87.5 35t-111 30.5q-70 18 -109 29.5t-97 37t-89 54.5t-54.5 76t-23.5 106q0 137 110.5 215t272.5 78q223 0 369 -145l-68 -88q-115 125 -299 125 q-113 0 -187.5 -48.5t-74.5 -128.5q0 -37 17.5 -66.5t41 -49t67.5 -37t78 -26.5t91 -23z" glyph-name="uni20A8" horiz-adv-x="2236" unicode="₨"/><glyph d="M981 1315q-219 0 -381 -121t-217 -317h885l-33 -101h-870q-4 -45 -4.5 -69.5t4.5 -69.5h809l-33 -100h-758q55 -197 217 -318t381 -121q285 0 479 195v-141q-209 -176 -493 -177q-266 0 -464 156t-253 406h-176l32 100h127q-2 23 -2 70t2 69h-159l32 101h144 q55 250 252.5 405.5t464.5 155.5q285 0 493 -176v-142q-194 195 -479 195z" glyph-name="Euro" horiz-adv-x="1562" unicode="€"/><glyph d="M1284 1122v-88h-108q4 -41 4 -61.5t-4 -61.5h108v-88h-129q-45 -131 -158.5 -211t-261.5 -80h-364v-532h-127v823h-148v88h148v123h-148v88h148v291h491q147 0 261 -80t159 -211h129zM371 1298v-176h645q-41 82 -119 129t-176 47h-350zM1049 973q0 31 -7 61h-671v-123 h671q7 31 7 62zM721 649q98 0 176 47t117 127h-643v-174h350z" glyph-name="uni20B1" horiz-adv-x="1304" unicode="₱"/><glyph d="M891 115q137 8 251.5 72.5t188.5 170.5l109 -71q-92 -129 -235.5 -208t-313.5 -87v-135h-86v135q-293 14 -486.5 217t-193.5 497.5t193.5 497.5t486.5 217v135h86v-135q170 -8 313.5 -87t235.5 -208l-109 -71q-74 106 -188.5 170.5t-251.5 72.5v-1183zM254 706.5 q0 -241.5 156.5 -409.5t394.5 -182v1183q-238 -14 -394.5 -182t-156.5 -409.5z" glyph-name="uni20B5" horiz-adv-x="1546" unicode="₵"/><glyph d="M813 1313q78 -68 111 -158h182l-41 -100h-117q4 -37 4 -56q0 -176 -118.5 -294.5t-296.5 -118.5h-201l653 -586h-170l-665 596v104h374q127 0 211 85t84 214q0 18 -4 56h-665v100h630q-39 68 -106.5 106.5t-149.5 38.5h-374v113h952l-41 -100h-252z" glyph-name="uni20B9" horiz-adv-x="1173" unicode="₹"/><glyph d="M1907 696q-160 0 -266.5 106.5t-106.5 264.5t106.5 264.5t266.5 106.5q158 0 265 -106.5t107 -264.5t-107 -264.5t-265 -106.5zM1214 201v1212h127v-1413h-137l-897 1212v-1212h-125v1413h135zM1906.5 1333q-112.5 0 -189.5 -76.5t-77 -189.5t77 -189.5t189.5 -76.5 t188.5 76.5t76 189.5t-76 189.5t-188.5 76.5zM1561 408v108h692v-108h-692z" glyph-name="afii61352" horiz-adv-x="2379" unicode="№"/><glyph d="M53 1346v67h449v-67h-187v-533h-73v533h-189zM1155 1413h94v-600h-71v500l-209 -418h-54l-208 418v-500h-72v600h96l213 -428z" glyph-name="trademark" horiz-adv-x="1394" unicode="™"/><glyph d="M248 565v738l-180 -101l-41 76l247 135h66v-848h-92zM1174 1413h114l-1001 -1413h-117zM1081 848h549v-72l-368 -776h-105l361 760h-437v88z" glyph-name="uni2150" horiz-adv-x="1679" unicode="⅐"/><glyph d="M248 565v738l-180 -101l-41 76l247 135h66v-848h-92zM1174 1413h114l-1001 -1413h-117zM1251 862q143 0 228.5 -87t85.5 -238q0 -201 -141.5 -360t-366.5 -191l-21 86q164 29 269.5 124t142.5 220q-76 -98 -231 -99q-119 0 -198 77t-79 190q0 119 89 198.5t222 79.5z M1243 401q88 0 156.5 46.5t68.5 127.5q0 88 -60 143.5t-159 55.5q-90 0 -151.5 -54t-61.5 -136q0 -78 58.5 -130.5t148.5 -52.5z" glyph-name="uni2151" horiz-adv-x="1595" unicode="⅑"/><glyph d="M248 565v738l-180 -101l-41 76l247 135h66v-848h-92zM1174 1413h114l-1001 -1413h-117zM1816.5 862q143.5 0 234.5 -123t91 -315.5t-91 -315t-234.5 -122.5t-233.5 122.5t-90 315t90 315.5t233.5 123zM995 713l248 135h66v-848h-92v737l-181 -100zM1816.5 76 q100.5 0 165 97t64.5 251t-64.5 251t-165 97t-164 -97t-63.5 -251t63.5 -251t164 -97z" glyph-name="uni2152" horiz-adv-x="2230" unicode="⅒"/><glyph d="M248 565v738l-180 -101l-41 76l247 135h66v-848h-92zM1174 1413h114l-1001 -1413h-117zM1389 446q76 -25 120.5 -84t44.5 -135q0 -104 -85 -172.5t-216 -68.5q-184 0 -299 120l56 70q88 -100 237 -100q94 0 153.5 46t59.5 117.5t-58.5 119t-144.5 47.5h-129v81h129 q76 0 127.5 41t51.5 101q0 63 -54.5 103t-138.5 40q-133 0 -205 -88l-51 66q96 113 266 112q121 0 199 -62.5t78 -158.5q0 -63 -37.5 -115.5t-103.5 -79.5z" glyph-name="onethird" horiz-adv-x="1589" unicode="⅓"/><glyph d="M55 639l336 365q96 104 96 182q0 66 -48 107.5t-120 41.5q-129 0 -204 -123l-68 58q43 74 117 115.5t160 41.5q113 0 185.5 -66.5t72.5 -170.5q0 -115 -111 -232l-283 -305h416v-88h-549v74zM1356 1413h114l-1001 -1413h-117zM1571 446q76 -25 121 -84t45 -135 q0 -104 -85 -172.5t-216 -68.5q-184 0 -299 120l55 70q88 -100 238 -100q94 0 153 46t59 117.5t-58 119t-144 47.5h-129v81h129q76 0 127 41t51 101q0 63 -54.5 103t-138.5 40q-133 0 -204 -88l-52 66q96 113 267 112q121 0 198.5 -62.5t77.5 -158.5q0 -63 -37.5 -115.5 t-103.5 -79.5z" glyph-name="twothirds" horiz-adv-x="1771" unicode="⅔"/><glyph d="M248 565v738l-180 -101l-41 76l247 135h66v-848h-92zM1174 1413h114l-1001 -1413h-117zM1311 532q125 0 208 -77.5t83 -194.5t-88.5 -195.5t-223.5 -78.5q-172 0 -291 129l50 73q92 -113 235 -112q96 0 158.5 54t62.5 134q0 78 -58 131.5t-147 53.5q-111 0 -184 -70 l-80 24l41 445h467v-86h-389l-25 -285q77 55 181 55z" glyph-name="uni2155" horiz-adv-x="1638" unicode="⅕"/><glyph d="M55 639l336 365q96 104 96 182q0 66 -48 107.5t-120 41.5q-129 0 -204 -123l-68 58q43 74 117 115.5t160 41.5q113 0 185.5 -66.5t72.5 -170.5q0 -115 -111 -232l-283 -305h416v-88h-549v74zM1356 1413h114l-1001 -1413h-117zM1493 532q125 0 208 -77.5t83 -194.5 t-88 -195.5t-223 -78.5q-172 0 -291 129l49 73q92 -113 235 -112q96 0 159 54t63 134q0 78 -58.5 131.5t-146.5 53.5q-111 0 -185 -70l-79 24l41 445h466v-86h-389l-24 -285q76 55 180 55z" glyph-name="uni2156" horiz-adv-x="1820" unicode="⅖"/><glyph d="M637 793q0 -104 -85 -173t-216 -69q-184 0 -299 121l55 69q88 -100 238 -100q94 0 153.5 46t59.5 118t-58.5 119t-144.5 47h-129v82h129q76 0 127 41t51 100q0 63 -54 103t-138 40q-133 0 -205 -88l-51 66q96 113 266 112q121 0 198.5 -62t77.5 -159q0 -63 -37.5 -115.5 t-103.5 -78.5q76 -25 121 -84t45 -135zM1313 1413h114l-1001 -1413h-117zM1450 532q125 0 208 -77.5t83 -194.5t-88 -195.5t-223 -78.5q-172 0 -291 129l49 73q92 -113 235 -112q96 0 159 54t63 134q0 78 -58.5 131.5t-146.5 53.5q-111 0 -185 -70l-79 24l41 445h466v-86 h-389l-24 -285q76 55 180 55z" glyph-name="uni2157" horiz-adv-x="1777" unicode="⅗"/><glyph d="M477 565v199h-411l-21 76l426 573h100v-561h115v-88h-115v-199h-94zM1341 1413h115l-1001 -1413h-117zM143 852h334v446zM1479 532q125 0 207.5 -77.5t82.5 -194.5t-88 -195.5t-223 -78.5q-172 0 -291 129l50 73q92 -113 235 -112q96 0 158.5 54t62.5 134 q0 78 -58.5 131.5t-146.5 53.5q-111 0 -184 -70l-80 24l41 445h467v-86h-389l-25 -285q77 55 181 55z" glyph-name="uni2158" horiz-adv-x="1806" unicode="⅘"/><glyph d="M248 565v738l-180 -101l-41 76l247 135h66v-848h-92zM1174 1413h114l-1001 -1413h-117zM1198 530q119 0 198 -76.5t79 -189.5q0 -119 -89.5 -198.5t-222.5 -79.5q-143 0 -229 87t-86 238q0 197 141 351.5t369 199.5l18 -86q-160 -37 -266 -129t-143 -213q75 96 231 96z M1163 74q92 0 153.5 54t61.5 136q0 78 -59 130t-147.5 52t-158 -46t-69.5 -128q0 -86 60.5 -142t158.5 -56z" glyph-name="uni2159" horiz-adv-x="1501" unicode="⅙"/><glyph d="M672 825.5q0 -116.5 -88 -195.5t-224 -79q-172 0 -290 129l49 74q92 -113 235 -113q96 0 158.5 54.5t62.5 133.5q0 78 -58 131.5t-146 53.5q-111 0 -185 -70l-80 25l41 444h467v-86h-389l-24 -285q76 55 180 56q125 0 208 -78t83 -194.5zM1329 1413h115l-1002 -1413h-116 zM1354 530q119 0 197.5 -76.5t78.5 -189.5q0 -119 -89 -198.5t-222 -79.5q-143 0 -229 87t-86 238q0 197 141 351.5t368 199.5l19 -86q-160 -37 -266.5 -129t-143.5 -213q76 96 232 96zM1319 74q92 0 153.5 54t61.5 136q0 78 -59.5 130t-147.5 52t-157.5 -46t-69.5 -128 q0 -86 60.5 -142t158.5 -56z" glyph-name="uni215A" horiz-adv-x="1656" unicode="⅚"/><glyph d="M248 565v738l-180 -101l-41 76l247 135h66v-848h-92zM1174 1413h114l-1001 -1413h-117zM1401 438q76 -31 119 -85t43 -126q0 -102 -88.5 -171.5t-219.5 -69.5q-129 0 -216 69.5t-87 171.5q0 145 160 211q-66 29 -103.5 82t-37.5 117q0 96 82 160.5t202 64.5 q123 0 206 -64.5t83 -160.5q0 -133 -143 -199zM1067 626.5q0 -63.5 54.5 -105.5t133.5 -42q82 0 137.5 42t55.5 105.5t-54.5 105.5t-138.5 42q-80 0 -134 -42t-54 -105.5zM1255 74q90 0 150.5 46t60.5 116q0 68 -60 113.5t-151 45.5q-88 0 -147 -46t-59 -113q0 -70 59 -116 t147 -46z" glyph-name="oneeighth" horiz-adv-x="1595" unicode="⅛"/><glyph d="M637 793q0 -104 -85 -173t-216 -69q-184 0 -299 121l55 69q88 -100 238 -100q94 0 153.5 46t59.5 118t-58.5 119t-144.5 47h-129v82h129q76 0 127 41t51 100q0 63 -54 103t-138 40q-133 0 -205 -88l-51 66q96 113 266 112q121 0 198.5 -62t77.5 -159q0 -63 -37.5 -115.5 t-103.5 -78.5q76 -25 121 -84t45 -135zM1313 1413h114l-1001 -1413h-117zM1540 438q76 -31 119 -85t43 -126q0 -102 -88 -171.5t-219 -69.5q-129 0 -216 69.5t-87 171.5q0 145 159 211q-66 29 -103.5 82t-37.5 117q0 96 82 160.5t203 64.5q123 0 205.5 -64.5t82.5 -160.5 q0 -133 -143 -199zM1206 626.5q0 -63.5 54.5 -105.5t134.5 -42q82 0 137 42t55 105.5t-54 105.5t-138 42q-80 0 -134.5 -42t-54.5 -105.5zM1395 74q90 0 150.5 46t60.5 116q0 68 -60.5 113.5t-150.5 45.5q-88 0 -147.5 -46t-59.5 -113q0 -70 59.5 -116t147.5 -46z" glyph-name="threeeighths" horiz-adv-x="1734" unicode="⅜"/><glyph d="M672 825.5q0 -116.5 -88 -195.5t-224 -79q-172 0 -290 129l49 74q92 -113 235 -113q96 0 158.5 54.5t62.5 133.5q0 78 -58 131.5t-146 53.5q-111 0 -185 -70l-80 25l41 444h467v-86h-389l-24 -285q76 55 180 56q125 0 208 -78t83 -194.5zM1329 1413h115l-1002 -1413h-116 zM1556 438q76 -31 119 -85t43 -126q0 -102 -88 -171.5t-219 -69.5q-129 0 -216 69.5t-87 171.5q0 145 160 211q-66 29 -104 82t-38 117q0 96 82 160.5t203 64.5q123 0 206 -64.5t83 -160.5q-1 -133 -144 -199zM1223 626.5q0 -63.5 54 -105.5t134 -42q82 0 137.5 42 t55.5 105.5t-54.5 105.5t-138.5 42q-80 0 -134 -42t-54 -105.5zM1411 74q90 0 150.5 46t60.5 116q0 68 -60.5 113.5t-150.5 45.5q-88 0 -147.5 -46t-59.5 -113q0 -70 59.5 -116t147.5 -46z" glyph-name="fiveeighths" horiz-adv-x="1751" unicode="⅝"/><glyph d="M238 565h-105l361 760h-437v88h549v-72zM1174 1413h114l-1001 -1413h-117zM1401 438q76 -31 119 -85t43 -126q0 -102 -88.5 -171.5t-219.5 -69.5q-129 0 -216 69.5t-87 171.5q0 145 160 211q-66 29 -103.5 82t-37.5 117q0 96 82 160.5t202 64.5q123 0 206 -64.5 t83 -160.5q0 -133 -143 -199zM1067 626.5q0 -63.5 54.5 -105.5t133.5 -42q82 0 137.5 42t55.5 105.5t-54.5 105.5t-138.5 42q-80 0 -134 -42t-54 -105.5zM1255 74q90 0 150.5 46t60.5 116q0 68 -60 113.5t-151 45.5q-88 0 -147 -46t-59 -113q0 -70 59 -116t147 -46z" glyph-name="seveneighths" horiz-adv-x="1595" unicode="⅞"/><glyph d="M248 565v738l-180 -101l-41 76l247 135h66v-848h-92zM1174 1413h114l-1001 -1413h-117z" glyph-name="uni215F" horiz-adv-x="907" unicode="⅟"/><glyph d="M723 989.5q0 -192.5 -91 -315.5t-234.5 -123t-233.5 123t-90 315.5t90 315t233.5 122.5t234.5 -122.5t91 -315zM1425 1413h115l-1001 -1413h-117zM397.5 641q100.5 0 165 97.5t64.5 251t-64.5 250.5t-165 97t-164 -97t-63.5 -250.5t63.5 -251t164 -97.5zM1640 446 q76 -25 121 -84t45 -135q0 -104 -85 -172.5t-216 -68.5q-184 0 -299 120l56 70q88 -100 237 -100q94 0 153.5 46t59.5 117.5t-58.5 119t-144.5 47.5h-129v81h129q76 0 127.5 41t51.5 101q0 63 -54.5 103t-138.5 40q-133 0 -205 -88l-51 66q96 113 266 112q121 0 199 -62.5 t78 -158.5q0 -63 -38 -115.5t-104 -79.5z" glyph-name="uni2189" horiz-adv-x="1841" unicode="↉"/><glyph d="M1210 760v-109h-854l310 -305l-72 -72l-432 433l432 432l72 -72l-310 -307h854z" glyph-name="arrowleft" horiz-adv-x="1374" unicode="←"/><glyph d="M1120 799l-71 -72l-308 309v-854h-108v852l-305 -307l-72 72l432 432z" glyph-name="arrowup" horiz-adv-x="1374" unicode="↑"/><glyph d="M782 1139l432 -432l-432 -433l-71 72l305 305h-852v111h852l-305 305z" glyph-name="arrowright" horiz-adv-x="1374" unicode="→"/><glyph d="M1049 686l71 -72l-432 -432l-432 432l72 72l305 -307v852h108v-854z" glyph-name="arrowdown" horiz-adv-x="1374" unicode="↓"/><glyph d="M1079 393l-78 -78l-604 603l2 -433h-102v611l610 2v-105l-432 4z" glyph-name="uni2196" horiz-adv-x="1374" unicode="↖"/><glyph d="M463 1098l610 -2v-611h-98l2 437l-606 -605l-76 76l602 604h-434v101z" glyph-name="uni2197" horiz-adv-x="1374" unicode="↗"/><glyph d="M975 928h104v-611l-610 -2v105l430 -4l-602 604l78 78l604 -602z" glyph-name="uni2198" horiz-adv-x="1374" unicode="↘"/><glyph d="M1079 1020l-604 -604l432 4v-105l-610 2v611h102l-2 -432l604 602z" glyph-name="uni2199" horiz-adv-x="1374" unicode="↙"/><glyph d="M137 551v108h819v-108h-819z" glyph-name="minus" horiz-adv-x="1093" unicode="−"/><glyph d="M729 676q-70 0 -129 41t-110.5 81t-102.5 40q-59 0 -100 -40t-41 -102h-109q0 115 62.5 186.5t171.5 71.5q55 0 104 -25.5t80 -55t73 -55t83 -25.5q61 0 101 40.5t40 102.5h111q0 -115 -62.5 -187.5t-171.5 -72.5zM729 270q-70 0 -129 41t-110.5 81t-102.5 40 q-59 0 -100 -41t-41 -102h-109q0 115 62.5 187.5t171.5 72.5q55 0 104 -25.5t80 -55.5t73 -55.5t83 -25.5q61 0 101 41t40 100h111q0 -113 -62.5 -185.5t-171.5 -72.5z" glyph-name="approxequal" horiz-adv-x="1099" unicode="≈"/><glyph d="M956 717h-301l-106 -223h407v-107h-458l-101 -209h-110l100 209h-250v107h301l107 223h-408v106h459l100 207h111l-100 -207h249v-106z" glyph-name="notequal" horiz-adv-x="1093" unicode="≠"/><glyph d="M813 1069v-119l-571 -221l571 -223v-119l-676 281v120zM137 158v108h676v-108h-676z" glyph-name="lessequal" horiz-adv-x="950" unicode="≤"/><glyph d="M137 1069l676 -281v-120l-676 -281v119l572 223l-572 221v119zM137 158v108h676v-108h-676z" glyph-name="greaterequal" horiz-adv-x="950" unicode="≥"/><glyph d="M2042 707l-420 -420v364h-1448v111h1448v364z" glyph-name="uni279D" horiz-adv-x="2215" unicode="➝"/><glyph d="M2044 760v-109h-1677l309 -305l-72 -72l-432 433l432 432l72 -72l-309 -307h1677z" glyph-name="uni27F5" horiz-adv-x="2215" unicode="⟵"/><glyph d="M1612 1139l432 -432l-432 -433l-72 72l309 305h-1677v109h1677l-309 307z" glyph-name="uni27F6" horiz-adv-x="2215" unicode="⟶"/><glyph d="M899 725h649v-725h-112v346q-78 -174 -237 -272.5t-363 -98.5q-313 0 -524.5 210t-211.5 521.5t211 521.5t527 210q188 0 346.5 -81t255.5 -222l-97 -74q-82 119 -214 187.5t-289 68.5q-260 0 -434.5 -175t-174.5 -435.5t174.5 -435.5t434.5 -175q236 0 399.5 145.5 t183.5 370.5h-524v113z" glyph-name="G.aalt" horiz-adv-x="1679"/><glyph d="M1130 1812l-243 -249h-129l215 249h157zM899 725h649v-725h-112v346q-78 -174 -237 -272.5t-363 -98.5q-313 0 -524.5 210t-211.5 521.5t211 521.5t527 210q188 0 346.5 -81t255.5 -222l-97 -74q-82 119 -214 187.5t-289 68.5q-260 0 -434.5 -175t-174.5 -435.5 t174.5 -435.5t434.5 -175q236 0 399.5 145.5t183.5 370.5h-524v113z" glyph-name="uni01F4.aalt" horiz-adv-x="1679"/><glyph d="M838 1542q-111 0 -184.5 73t-73.5 179h96q0 -70 46 -116t116 -46q68 0 113.5 46t45.5 116h97q0 -106 -73.5 -179t-182.5 -73zM899 725h649v-725h-112v346q-78 -174 -237 -272.5t-363 -98.5q-313 0 -524.5 210t-211.5 521.5t211 521.5t527 210q188 0 346.5 -81t255.5 -222 l-97 -74q-82 119 -214 187.5t-289 68.5q-260 0 -434.5 -175t-174.5 -435.5t174.5 -435.5t434.5 -175q236 0 399.5 145.5t183.5 370.5h-524v113z" glyph-name="Gbreve.aalt" horiz-adv-x="1679"/><glyph d="M911 1563h-147l-207 249h115l166 -182l166 182h114zM899 725h649v-725h-112v346q-78 -174 -237 -272.5t-363 -98.5q-313 0 -524.5 210t-211.5 521.5t211 521.5t527 210q188 0 346.5 -81t255.5 -222l-97 -74q-82 119 -214 187.5t-289 68.5q-260 0 -434.5 -175 t-174.5 -435.5t174.5 -435.5t434.5 -175q236 0 399.5 145.5t183.5 370.5h-524v113z" glyph-name="Gcaron.aalt" horiz-adv-x="1679"/><glyph d="M838 1745l-166 -182h-115l207 249h147l207 -249h-114zM899 725h649v-725h-112v346q-78 -174 -237 -272.5t-363 -98.5q-313 0 -524.5 210t-211.5 521.5t211 521.5t527 210q188 0 346.5 -81t255.5 -222l-97 -74q-82 119 -214 187.5t-289 68.5q-260 0 -434.5 -175 t-174.5 -435.5t174.5 -435.5t434.5 -175q236 0 399.5 145.5t183.5 370.5h-524v113z" glyph-name="Gcircumflex.aalt" horiz-adv-x="1679"/><glyph d="M899 725h649v-725h-112v346q-78 -174 -237 -272.5t-363 -98.5q-313 0 -524.5 210t-211.5 521.5t211 521.5t527 210q188 0 346.5 -81t255.5 -222l-97 -74q-82 119 -214 187.5t-289 68.5q-260 0 -434.5 -175t-174.5 -435.5t174.5 -435.5t434.5 -175q236 0 399.5 145.5 t183.5 370.5h-524v113zM731 -442l64 295h127l-93 -295h-98z" glyph-name="Gcommaaccent.aalt" horiz-adv-x="1679"/><glyph d="M838 1583q-37 0 -61.5 24.5t-24.5 59.5q0 37 24.5 61.5t61.5 24.5q35 0 59.5 -24.5t24.5 -61.5q0 -35 -24.5 -59.5t-59.5 -24.5zM899 725h649v-725h-112v346q-78 -174 -237 -272.5t-363 -98.5q-313 0 -524.5 210t-211.5 521.5t211 521.5t527 210q188 0 346.5 -81 t255.5 -222l-97 -74q-82 119 -214 187.5t-289 68.5q-260 0 -434.5 -175t-174.5 -435.5t174.5 -435.5t434.5 -175q236 0 399.5 145.5t183.5 370.5h-524v113z" glyph-name="Gdotaccent.aalt" horiz-adv-x="1679"/><glyph d="M223 1214q-37 0 -61.5 25t-24.5 59q0 37 24.5 61.5t61.5 24.5q35 0 59.5 -24.5t24.5 -61.5q0 -35 -24.5 -59.5t-59.5 -24.5zM162 0v1044h119v-1044h-119z" glyph-name="i.aalt" horiz-adv-x="444"/><glyph d="M551 1069q201 0 323.5 -110.5t122.5 -292.5v-666h-112v133q-117 -158 -371 -158q-184 0 -305 93.5t-121 240.5q0 145 121 239.5t303 94.5q246 0 367 -151v165q0 137 -92.5 220.5t-243.5 83.5q-217 0 -338 -148l-70 76q63 82 173 131t243 49zM537 82q145 0 243.5 64.5 t98.5 163t-98.5 163t-243.5 64.5q-143 0 -234.5 -62.5t-91.5 -165t91.5 -165t234.5 -62.5z" glyph-name="a.salt" horiz-adv-x="1146"/><glyph d="M854 1444l-244 -250h-129l215 250h158zM551 1069q201 0 323.5 -110.5t122.5 -292.5v-666h-112v133q-117 -158 -371 -158q-184 0 -305 93.5t-121 240.5q0 145 121 239.5t303 94.5q246 0 367 -151v165q0 137 -92.5 220.5t-243.5 83.5q-217 0 -338 -148l-70 76 q63 82 173 131t243 49zM537 82q145 0 243.5 64.5t98.5 163t-98.5 163t-243.5 64.5q-143 0 -234.5 -62.5t-91.5 -165t91.5 -165t234.5 -62.5z" glyph-name="aacute.aalt" horiz-adv-x="1146"/><glyph d="M561 1174q-111 0 -184.5 72.5t-73.5 178.5h96q0 -70 46.5 -115.5t115.5 -45.5q68 0 114 46t46 115h96q0 -106 -73.5 -178.5t-182.5 -72.5zM551 1069q201 0 323.5 -110.5t122.5 -292.5v-666h-112v133q-117 -158 -371 -158q-184 0 -305 93.5t-121 240.5q0 145 121 239.5 t303 94.5q246 0 367 -151v165q0 137 -92.5 220.5t-243.5 83.5q-217 0 -338 -148l-70 76q63 82 173 131t243 49zM537 82q145 0 243.5 64.5t98.5 163t-98.5 163t-243.5 64.5q-143 0 -234.5 -62.5t-91.5 -165t91.5 -165t234.5 -62.5z" glyph-name="abreve.aalt" horiz-adv-x="1146"/><glyph d="M635 1194h-148l-206 250h114l166 -182l166 182h115zM551 1069q201 0 323.5 -110.5t122.5 -292.5v-666h-112v133q-117 -158 -371 -158q-184 0 -305 93.5t-121 240.5q0 145 121 239.5t303 94.5q246 0 367 -151v165q0 137 -92.5 220.5t-243.5 83.5q-217 0 -338 -148l-70 76 q63 82 173 131t243 49zM537 82q145 0 243.5 64.5t98.5 163t-98.5 163t-243.5 64.5q-143 0 -234.5 -62.5t-91.5 -165t91.5 -165t234.5 -62.5z" glyph-name="uni01CE.aalt" horiz-adv-x="1146"/><glyph d="M561 1376l-166 -182h-114l206 250h148l207 -250h-115zM551 1069q201 0 323.5 -110.5t122.5 -292.5v-666h-112v133q-117 -158 -371 -158q-184 0 -305 93.5t-121 240.5q0 145 121 239.5t303 94.5q246 0 367 -151v165q0 137 -92.5 220.5t-243.5 83.5q-217 0 -338 -148 l-70 76q63 82 173 131t243 49zM537 82q145 0 243.5 64.5t98.5 163t-98.5 163t-243.5 64.5q-143 0 -234.5 -62.5t-91.5 -165t91.5 -165t234.5 -62.5z" glyph-name="acircumflex.aalt" horiz-adv-x="1146"/><glyph d="M438 1194h-116l-187 250h137zM809 1194h-117l-186 250h137zM551 1069q201 0 323.5 -110.5t122.5 -292.5v-666h-112v133q-117 -158 -371 -158q-184 0 -305 93.5t-121 240.5q0 145 121 239.5t303 94.5q246 0 367 -151v165q0 137 -92.5 220.5t-243.5 83.5q-217 0 -338 -148 l-70 76q63 82 173 131t243 49zM537 82q145 0 243.5 64.5t98.5 163t-98.5 163t-243.5 64.5q-143 0 -234.5 -62.5t-91.5 -165t91.5 -165t234.5 -62.5z" glyph-name="uni0201.aalt" horiz-adv-x="1146"/><glyph d="M354 1214q-35 0 -58.5 24t-23.5 58.5t23.5 58t58.5 23.5t59.5 -23.5t24.5 -58t-24.5 -58.5t-59.5 -24zM766 1214q-35 0 -58.5 24t-23.5 58.5t23.5 58t58.5 23.5t59.5 -23.5t24.5 -58t-24.5 -58.5t-59.5 -24zM551 1069q201 0 323.5 -110.5t122.5 -292.5v-666h-112v133 q-117 -158 -371 -158q-184 0 -305 93.5t-121 240.5q0 145 121 239.5t303 94.5q246 0 367 -151v165q0 137 -92.5 220.5t-243.5 83.5q-217 0 -338 -148l-70 76q63 82 173 131t243 49zM537 82q145 0 243.5 64.5t98.5 163t-98.5 163t-243.5 64.5q-143 0 -234.5 -62.5t-91.5 -165 t91.5 -165t234.5 -62.5z" glyph-name="adieresis.aalt" horiz-adv-x="1146"/><glyph d="M551 1069q201 0 323.5 -110.5t122.5 -292.5v-666h-112v133q-117 -158 -371 -158q-184 0 -305 93.5t-121 240.5q0 145 121 239.5t303 94.5q246 0 367 -151v165q0 137 -92.5 220.5t-243.5 83.5q-217 0 -338 -148l-70 76q63 82 173 131t243 49zM537 82q145 0 243.5 64.5 t98.5 163t-98.5 163t-243.5 64.5q-143 0 -234.5 -62.5t-91.5 -165t91.5 -165t234.5 -62.5zM561 -170q35 0 59.5 -24.5t24.5 -59.5q0 -37 -24.5 -61.5t-59.5 -24.5q-37 0 -61.5 24.5t-24.5 61.5q0 35 24.5 59.5t61.5 24.5z" glyph-name="uni1EA1.aalt" horiz-adv-x="1146"/><glyph d="M639 1194h-129l-244 250h158zM551 1069q201 0 323.5 -110.5t122.5 -292.5v-666h-112v133q-117 -158 -371 -158q-184 0 -305 93.5t-121 240.5q0 145 121 239.5t303 94.5q246 0 367 -151v165q0 137 -92.5 220.5t-243.5 83.5q-217 0 -338 -148l-70 76q63 82 173 131t243 49z M537 82q145 0 243.5 64.5t98.5 163t-98.5 163t-243.5 64.5q-143 0 -234.5 -62.5t-91.5 -165t91.5 -165t234.5 -62.5z" glyph-name="agrave.aalt" horiz-adv-x="1146"/><glyph d="M561 1343q-70 0 -116 -47t-46 -116h-96q0 109 74 180.5t184 71.5q109 0 182.5 -73t73.5 -179h-96q0 70 -46 116.5t-114 46.5zM551 1069q201 0 323.5 -110.5t122.5 -292.5v-666h-112v133q-117 -158 -371 -158q-184 0 -305 93.5t-121 240.5q0 145 121 239.5t303 94.5 q246 0 367 -151v165q0 137 -92.5 220.5t-243.5 83.5q-217 0 -338 -148l-70 76q63 82 173 131t243 49zM537 82q145 0 243.5 64.5t98.5 163t-98.5 163t-243.5 64.5q-143 0 -234.5 -62.5t-91.5 -165t91.5 -165t234.5 -62.5z" glyph-name="uni0203.aalt" horiz-adv-x="1146"/><glyph d="M788 1333v-102h-452v102h452zM551 1069q201 0 323.5 -110.5t122.5 -292.5v-666h-112v133q-117 -158 -371 -158q-184 0 -305 93.5t-121 240.5q0 145 121 239.5t303 94.5q246 0 367 -151v165q0 137 -92.5 220.5t-243.5 83.5q-217 0 -338 -148l-70 76q63 82 173 131t243 49z M537 82q145 0 243.5 64.5t98.5 163t-98.5 163t-243.5 64.5q-143 0 -234.5 -62.5t-91.5 -165t91.5 -165t234.5 -62.5z" glyph-name="amacron.aalt" horiz-adv-x="1146"/><glyph d="M981 -313l33 -76q-70 -47 -154 -47q-86 0 -143.5 53t-57.5 131q0 80 60.5 148.5t161.5 109.5h4v127q-117 -158 -371 -158q-184 0 -305 93.5t-121 240.5q0 145 121 239.5t303 94.5q246 0 367 -151v165q0 137 -92.5 220.5t-243.5 83.5q-217 0 -338 -148l-70 76 q63 82 173 131t243 49q201 0 323.5 -110.5t122.5 -292.5v-666h-24q-215 -98 -215 -229q0 -51 34.5 -84t84.5 -33q59 0 104 33zM537 82q145 0 243.5 64.5t98.5 163t-98.5 163t-243.5 64.5q-143 0 -234.5 -62.5t-91.5 -165t91.5 -165t234.5 -62.5z" glyph-name="aogonek.aalt" horiz-adv-x="1146"/><glyph d="M559 1165q-66 0 -112 45t-46 111q0 68 46.5 113t111.5 45q68 0 114 -45t46 -113q0 -66 -46 -111t-114 -45zM559 1411q-37 0 -61.5 -25.5t-24.5 -64.5t24.5 -63.5t61.5 -24.5t62.5 24.5t25.5 63.5t-25.5 64.5t-62.5 25.5zM551 1069q201 0 323.5 -110.5t122.5 -292.5v-666 h-112v133q-117 -158 -371 -158q-184 0 -305 93.5t-121 240.5q0 145 121 239.5t303 94.5q246 0 367 -151v165q0 137 -92.5 220.5t-243.5 83.5q-217 0 -338 -148l-70 76q63 82 173 131t243 49zM537 82q145 0 243.5 64.5t98.5 163t-98.5 163t-243.5 64.5q-143 0 -234.5 -62.5 t-91.5 -165t91.5 -165t234.5 -62.5z" glyph-name="aring.aalt" horiz-adv-x="1146"/><glyph d="M432 1337q-51 0 -84 -33.5t-33 -82.5h-88q0 92 53.5 152.5t137.5 60.5q70 0 147.5 -63.5t124.5 -63.5q49 0 82 32.5t33 83.5h90q0 -94 -53.5 -153.5t-139.5 -59.5q-68 0 -145.5 63.5t-124.5 63.5zM551 1069q201 0 323.5 -110.5t122.5 -292.5v-666h-112v133 q-117 -158 -371 -158q-184 0 -305 93.5t-121 240.5q0 145 121 239.5t303 94.5q246 0 367 -151v165q0 137 -92.5 220.5t-243.5 83.5q-217 0 -338 -148l-70 76q63 82 173 131t243 49zM537 82q145 0 243.5 64.5t98.5 163t-98.5 163t-243.5 64.5q-143 0 -234.5 -62.5t-91.5 -165 t91.5 -165t234.5 -62.5z" glyph-name="atilde.aalt" horiz-adv-x="1146"/><glyph d="M1077 1044h119v-931q0 -238 -152.5 -382.5t-404.5 -144.5q-328 0 -485 236l69 78q59 -94 165 -148.5t243 -54.5q203 0 324.5 114.5t121.5 303.5v151q-66 -119 -184.5 -188.5t-265.5 -69.5q-227 0 -379 152.5t-152 378t151.5 378t379.5 152.5q147 0 266 -69.5t184 -188.5 v233zM647 117q184 0 307 120.5t123 301t-123 301.5t-307 121q-182 0 -305 -121t-123 -301.5t123 -301t305 -120.5z" glyph-name="g.aalt"/><glyph d="M971 1444l-244 -250h-129l215 250h158zM1077 1044h119v-931q0 -238 -152.5 -382.5t-404.5 -144.5q-328 0 -485 236l69 78q59 -94 165 -148.5t243 -54.5q203 0 324.5 114.5t121.5 303.5v151q-66 -119 -184.5 -188.5t-265.5 -69.5q-227 0 -379 152.5t-152 378t151.5 378 t379.5 152.5q147 0 266 -69.5t184 -188.5v233zM647 117q184 0 307 120.5t123 301t-123 301.5t-307 121q-182 0 -305 -121t-123 -301.5t123 -301t305 -120.5z" glyph-name="uni01F5.aalt"/><glyph d="M676 1174q-111 0 -184.5 72.5t-73.5 178.5h96q0 -70 46 -115.5t116 -45.5q68 0 114 46t46 115h96q0 -106 -73.5 -178.5t-182.5 -72.5zM1077 1044h119v-931q0 -238 -152.5 -382.5t-404.5 -144.5q-328 0 -485 236l69 78q59 -94 165 -148.5t243 -54.5q203 0 324.5 114.5 t121.5 303.5v151q-66 -119 -184.5 -188.5t-265.5 -69.5q-227 0 -379 152.5t-152 378t151.5 378t379.5 152.5q147 0 266 -69.5t184 -188.5v233zM647 117q184 0 307 120.5t123 301t-123 301.5t-307 121q-182 0 -305 -121t-123 -301.5t123 -301t305 -120.5z" glyph-name="gbreve.aalt"/><glyph d="M750 1194h-148l-207 250h115l166 -182l166 182h114zM1077 1044h119v-931q0 -238 -152.5 -382.5t-404.5 -144.5q-328 0 -485 236l69 78q59 -94 165 -148.5t243 -54.5q203 0 324.5 114.5t121.5 303.5v151q-66 -119 -184.5 -188.5t-265.5 -69.5q-227 0 -379 152.5t-152 378 t151.5 378t379.5 152.5q147 0 266 -69.5t184 -188.5v233zM647 117q184 0 307 120.5t123 301t-123 301.5t-307 121q-182 0 -305 -121t-123 -301.5t123 -301t305 -120.5z" glyph-name="gcaron.aalt"/><glyph d="M676 1376l-166 -182h-115l207 250h148l206 -250h-114zM1077 1044h119v-931q0 -238 -152.5 -382.5t-404.5 -144.5q-328 0 -485 236l69 78q59 -94 165 -148.5t243 -54.5q203 0 324.5 114.5t121.5 303.5v151q-66 -119 -184.5 -188.5t-265.5 -69.5q-227 0 -379 152.5 t-152 378t151.5 378t379.5 152.5q147 0 266 -69.5t184 -188.5v233zM647 117q184 0 307 120.5t123 301t-123 301.5t-307 121q-182 0 -305 -121t-123 -301.5t123 -301t305 -120.5z" glyph-name="gcircumflex.aalt"/><glyph d="M770 1475l-63 -295h-127l92 295h98zM1077 1044h119v-931q0 -238 -152.5 -382.5t-404.5 -144.5q-328 0 -485 236l69 78q59 -94 165 -148.5t243 -54.5q203 0 324.5 114.5t121.5 303.5v151q-66 -119 -184.5 -188.5t-265.5 -69.5q-227 0 -379 152.5t-152 378t151.5 378 t379.5 152.5q147 0 266 -69.5t184 -188.5v233zM647 117q184 0 307 120.5t123 301t-123 301.5t-307 121q-182 0 -305 -121t-123 -301.5t123 -301t305 -120.5z" glyph-name="gcommaaccent.aalt"/><glyph d="M676 1214q-37 0 -61.5 25t-24.5 59q0 37 24.5 61.5t61.5 24.5q35 0 59.5 -24.5t24.5 -61.5q0 -35 -24.5 -59.5t-59.5 -24.5zM1077 1044h119v-931q0 -238 -152.5 -382.5t-404.5 -144.5q-328 0 -485 236l69 78q59 -94 165 -148.5t243 -54.5q203 0 324.5 114.5t121.5 303.5 v151q-66 -119 -184.5 -188.5t-265.5 -69.5q-227 0 -379 152.5t-152 378t151.5 378t379.5 152.5q147 0 266 -69.5t184 -188.5v233zM647 117q184 0 307 120.5t123 301t-123 301.5t-307 121q-182 0 -305 -121t-123 -301.5t123 -301t305 -120.5z" glyph-name="gdotaccent.aalt"/><glyph d="M971 1044h119v-1044h-119v186q-119 -211 -393 -211q-195 0 -311.5 117t-116.5 309v643h118v-608q0 -158 94.5 -252t249.5 -94q162 0 260.5 96.5t98.5 253.5v604z" glyph-name="u.aalt" horiz-adv-x="1253"/><glyph d="M913 1444l-243 -250h-129l215 250h157zM971 1044h119v-1044h-119v186q-119 -211 -393 -211q-195 0 -311.5 117t-116.5 309v643h118v-608q0 -158 94.5 -252t249.5 -94q162 0 260.5 96.5t98.5 253.5v604z" glyph-name="uacute.aalt" horiz-adv-x="1253"/><glyph d="M621 1174q-111 0 -185 72.5t-74 178.5h97q0 -70 46 -115.5t116 -45.5q68 0 113.5 46t45.5 115h97q0 -106 -73.5 -178.5t-182.5 -72.5zM971 1044h119v-1044h-119v186q-119 -211 -393 -211q-195 0 -311.5 117t-116.5 309v643h118v-608q0 -158 94.5 -252t249.5 -94 q162 0 260.5 96.5t98.5 253.5v604z" glyph-name="ubreve.aalt" horiz-adv-x="1253"/><glyph d="M621 1376l-166 -182h-115l207 250h147l207 -250h-115zM971 1044h119v-1044h-119v186q-119 -211 -393 -211q-195 0 -311.5 117t-116.5 309v643h118v-608q0 -158 94.5 -252t249.5 -94q162 0 260.5 96.5t98.5 253.5v604z" glyph-name="ucircumflex.aalt" horiz-adv-x="1253"/><glyph d="M498 1194h-117l-186 250h137zM868 1194h-116l-187 250h137zM971 1044h119v-1044h-119v186q-119 -211 -393 -211q-195 0 -311.5 117t-116.5 309v643h118v-608q0 -158 94.5 -252t249.5 -94q162 0 260.5 96.5t98.5 253.5v604z" glyph-name="uni0215.aalt" horiz-adv-x="1253"/><glyph d="M414 1214q-35 0 -58.5 24t-23.5 58.5t23.5 58t58.5 23.5t59.5 -23.5t24.5 -58t-24.5 -58.5t-59.5 -24zM825.5 1214q-34.5 0 -58.5 24t-24 58.5t24 58t58.5 23.5t59 -23.5t24.5 -58t-24.5 -58.5t-59 -24zM971 1044h119v-1044h-119v186q-119 -211 -393 -211 q-195 0 -311.5 117t-116.5 309v643h118v-608q0 -158 94.5 -252t249.5 -94q162 0 260.5 96.5t98.5 253.5v604z" glyph-name="udieresis.aalt" horiz-adv-x="1253"/><glyph d="M971 1044h119v-1044h-119v186q-119 -211 -393 -211q-195 0 -311.5 117t-116.5 309v643h118v-608q0 -158 94.5 -252t249.5 -94q162 0 260.5 96.5t98.5 253.5v604zM621 -170q35 0 59.5 -24.5t24.5 -59.5q0 -37 -25 -61.5t-59 -24.5q-37 0 -61.5 24.5t-24.5 61.5 q0 35 24.5 59.5t61.5 24.5z" glyph-name="uni1EE5.aalt" horiz-adv-x="1253"/><glyph d="M698 1194h-129l-243 250h157zM971 1044h119v-1044h-119v186q-119 -211 -393 -211q-195 0 -311.5 117t-116.5 309v643h118v-608q0 -158 94.5 -252t249.5 -94q162 0 260.5 96.5t98.5 253.5v604z" glyph-name="ugrave.aalt" horiz-adv-x="1253"/><glyph d="M674 1444l-187 -250h-116l166 250h137zM1044 1444l-186 -250h-117l166 250h137zM971 1044h119v-1044h-119v186q-119 -211 -393 -211q-195 0 -311.5 117t-116.5 309v643h118v-608q0 -158 94.5 -252t249.5 -94q162 0 260.5 96.5t98.5 253.5v604z" glyph-name="uhungarumlaut.aalt" horiz-adv-x="1253"/><glyph d="M621 1343q-70 0 -116 -47t-46 -116h-97q0 109 74 180.5t185 71.5q109 0 182.5 -73t73.5 -179h-97q0 70 -45.5 116.5t-113.5 46.5zM971 1044h119v-1044h-119v186q-119 -211 -393 -211q-195 0 -311.5 117t-116.5 309v643h118v-608q0 -158 94.5 -252t249.5 -94 q162 0 260.5 96.5t98.5 253.5v604z" glyph-name="uni0217.aalt" horiz-adv-x="1253"/><glyph d="M846 1333v-102h-453v102h453zM971 1044h119v-1044h-119v186q-119 -211 -393 -211q-195 0 -311.5 117t-116.5 309v643h118v-608q0 -158 94.5 -252t249.5 -94q162 0 260.5 96.5t98.5 253.5v604z" glyph-name="umacron.aalt" horiz-adv-x="1253"/><glyph d="M1096 -313l32 -76q-70 -47 -153 -47q-86 0 -143.5 53t-57.5 131t56.5 144.5t150.5 107.5h-10v186q-119 -211 -393 -211q-195 0 -311.5 117t-116.5 309v643h118v-608q0 -158 94.5 -252t249.5 -94q162 0 260.5 96.5t98.5 253.5v604h119v-1044h-3q-215 -98 -215 -229 q0 -51 35 -84t84 -33q60 0 105 33z" glyph-name="uogonek.aalt" horiz-adv-x="1253"/><glyph d="M618 1165q-66 0 -111.5 45t-45.5 111q0 68 46 113t111 45q68 0 114 -45t46 -113q0 -66 -46 -111t-114 -45zM618.5 1411q-36.5 0 -61.5 -25.5t-25 -64.5t25 -63.5t61.5 -24.5t62.5 24.5t26 63.5t-26 64.5t-62.5 25.5zM971 1044h119v-1044h-119v186q-119 -211 -393 -211 q-195 0 -311.5 117t-116.5 309v643h118v-608q0 -158 94.5 -252t249.5 -94q162 0 260.5 96.5t98.5 253.5v604z" glyph-name="uring.aalt" horiz-adv-x="1253"/><glyph d="M492 1337q-51 0 -84 -33.5t-33 -82.5h-88q0 92 53 152.5t137 60.5q70 0 147.5 -63.5t125.5 -63.5q49 0 81.5 32.5t32.5 83.5h90q0 -94 -53 -153.5t-139 -59.5q-68 0 -145.5 63.5t-124.5 63.5zM971 1044h119v-1044h-119v186q-119 -211 -393 -211q-195 0 -311.5 117 t-116.5 309v643h118v-608q0 -158 94.5 -252t249.5 -94q162 0 260.5 96.5t98.5 253.5v604z" glyph-name="utilde.aalt" horiz-adv-x="1253"/><glyph d="M1602 1044h118v-671q0 -180 -113.5 -289t-299.5 -109q-131 0 -228.5 57.5t-144.5 157.5q-47 -102 -143.5 -158.5t-229.5 -56.5q-186 0 -298.5 109t-112.5 289v671h118v-657q0 -133 83 -215t220.5 -82t220 82t82.5 215v657h119v-657q0 -133 83 -215t220.5 -82t221.5 82 t84 215v657z" glyph-name="w.aalt" horiz-adv-x="1869"/><glyph d="M1229 1444l-244 -250h-129l215 250h158zM1602 1044h118v-671q0 -180 -113.5 -289t-299.5 -109q-131 0 -228.5 57.5t-144.5 157.5q-47 -102 -143.5 -158.5t-229.5 -56.5q-186 0 -298.5 109t-112.5 289v671h118v-657q0 -133 83 -215t220.5 -82t220 82t82.5 215v657h119 v-657q0 -133 83 -215t220.5 -82t221.5 82t84 215v657z" glyph-name="wacute.aalt" horiz-adv-x="1869"/><glyph d="M934 1376l-166 -182h-115l207 250h148l206 -250h-114zM1602 1044h118v-671q0 -180 -113.5 -289t-299.5 -109q-131 0 -228.5 57.5t-144.5 157.5q-47 -102 -143.5 -158.5t-229.5 -56.5q-186 0 -298.5 109t-112.5 289v671h118v-657q0 -133 83 -215t220.5 -82t220 82 t82.5 215v657h119v-657q0 -133 83 -215t220.5 -82t221.5 82t84 215v657z" glyph-name="wcircumflex.aalt" horiz-adv-x="1869"/><glyph d="M727 1214q-35 0 -58.5 24t-23.5 58.5t23.5 58t58.5 23.5t59.5 -23.5t24.5 -58t-24.5 -58.5t-59.5 -24zM1139 1214q-35 0 -58.5 24t-23.5 58.5t23.5 58t58.5 23.5t59.5 -23.5t24.5 -58t-24.5 -58.5t-59.5 -24zM1602 1044h118v-671q0 -180 -113.5 -289t-299.5 -109 q-131 0 -228.5 57.5t-144.5 157.5q-47 -102 -143.5 -158.5t-229.5 -56.5q-186 0 -298.5 109t-112.5 289v671h118v-657q0 -133 83 -215t220.5 -82t220 82t82.5 215v657h119v-657q0 -133 83 -215t220.5 -82t221.5 82t84 215v657z" glyph-name="wdieresis.aalt" horiz-adv-x="1869"/><glyph d="M1014 1194h-129l-244 250h158zM1602 1044h118v-671q0 -180 -113.5 -289t-299.5 -109q-131 0 -228.5 57.5t-144.5 157.5q-47 -102 -143.5 -158.5t-229.5 -56.5q-186 0 -298.5 109t-112.5 289v671h118v-657q0 -133 83 -215t220.5 -82t220 82t82.5 215v657h119v-657 q0 -133 83 -215t220.5 -82t221.5 82t84 215v657z" glyph-name="wgrave.aalt" horiz-adv-x="1869"/><glyph d="M397.5 -248q-143.5 0 -233.5 123t-90 315.5t90 315.5t233.5 123t234.5 -123t91 -315.5t-91 -315.5t-234.5 -123zM397.5 -158q100.5 0 165 97.5t64.5 251t-64.5 251t-165 97.5t-164 -97.5t-63.5 -251t63.5 -251t164 -97.5z" glyph-name="zero.inferior" horiz-adv-x="811"/><glyph d="M274 614h66v-847h-92v737l-180 -101l-41 76z" glyph-name="one.inferior" horiz-adv-x="450"/><glyph d="M188 -145h416v-88h-549v73l336 365q96 104 96 182q0 66 -48 108t-120 42q-129 0 -204 -123l-68 57q43 74 117 116t160 42q113 0 185.5 -66.5t72.5 -171.5q0 -115 -111 -231z" glyph-name="two.inferior" horiz-adv-x="653"/><glyph d="M471 213q76 -25 121 -84t45 -135q0 -104 -85 -173t-216 -69q-184 0 -299 121l55 70q88 -100 238 -101q94 0 153.5 46t59.5 118t-58.5 119t-144.5 47h-129v82h129q76 0 127 41t51 100q0 63 -54 103.5t-138 40.5q-133 0 -205 -88l-51 65q96 113 266 113q121 0 198.5 -62.5 t77.5 -158.5q0 -63 -37.5 -115.5t-103.5 -79.5z" glyph-name="three.inferior" horiz-adv-x="671"/><glyph d="M686 53v-88h-115v-198h-94v198h-411l-21 76l426 573h100v-561h115zM143 53h334v447z" glyph-name="four.inferior" horiz-adv-x="710"/><glyph d="M381 299q125 0 208 -78t83 -194.5t-88 -195.5t-224 -79q-172 0 -290 129l49 74q92 -113 235 -113q96 0 158.5 54.5t62.5 134.5q0 78 -58 131t-146 53q-111 0 -185 -70l-80 25l41 444h467v-86h-389l-24 -284q76 55 180 55z" glyph-name="five.inferior" horiz-adv-x="708"/><glyph d="M383 297q119 0 197.5 -77t78.5 -189q0 -119 -89 -199t-222 -80q-143 0 -229 87t-86 239q0 197 141 351.5t369 199.5l18 -86q-160 -37 -266.5 -129t-142.5 -213q75 96 231 96zM348 -160q92 0 153.5 54.5t61.5 136.5q0 78 -59.5 130t-147.5 52t-157.5 -46t-69.5 -128 q0 -86 60.5 -142.5t158.5 -56.5z" glyph-name="six.inferior" horiz-adv-x="688"/><glyph d="M57 614h549v-71l-368 -776h-105l361 759h-437v88z" glyph-name="seven.inferior" horiz-adv-x="655"/><glyph d="M483 205q76 -31 119 -85t43 -126q0 -102 -88 -172t-219 -70q-129 0 -216 69.5t-87 172.5q0 145 160 211q-66 29 -104 82t-38 116q0 96 82 161t203 65q123 0 206 -64.5t83 -161.5q-1 -132 -144 -198zM150 393.5q0 -63.5 54 -105.5t134 -42q82 0 137 42t55 105.5t-54 105.5 t-138 42q-80 0 -134 -42t-54 -105.5zM338 -160q90 0 150.5 46t60.5 116q0 68 -60.5 114t-150.5 46q-88 0 -147.5 -46t-59.5 -114q0 -70 59.5 -116t147.5 -46z" glyph-name="eight.inferior" horiz-adv-x="679"/><glyph d="M344 629q143 0 228 -87t85 -239q0 -201 -141 -359.5t-366 -191.5l-21 86q164 29 269.5 124t142.5 220q-76 -98 -232 -98q-119 0 -197.5 77t-78.5 189q0 119 89 199t222 80zM336 168q88 0 156.5 46t68.5 128q0 88 -60.5 143.5t-158.5 55.5q-90 0 -151.5 -54.5 t-61.5 -136.5q0 -78 58.5 -130t148.5 -52z" glyph-name="nine.inferior" horiz-adv-x="688"/><glyph d="M397.5 -14q-143.5 0 -233.5 122.5t-90 315t90 315.5t233.5 123t234.5 -123t91 -315.5t-91 -315t-234.5 -122.5zM397.5 76q100.5 0 165 97t64.5 251t-64.5 251t-165 97t-164 -97t-63.5 -251t63.5 -251t164 -97z" glyph-name="zero.dnom" horiz-adv-x="811"/><glyph d="M274 848h66v-848h-92v737l-180 -100l-41 76z" glyph-name="one.dnom" horiz-adv-x="450"/><glyph d="M188 88h416v-88h-549v74l336 364q96 104 96 183q0 66 -48 107.5t-120 41.5q-129 0 -204 -123l-68 58q43 74 117 115.5t160 41.5q113 0 185.5 -66.5t72.5 -170.5q0 -115 -111 -232z" glyph-name="two.dnom" horiz-adv-x="653"/><glyph d="M471 446q76 -25 121 -84t45 -135q0 -104 -85 -172.5t-216 -68.5q-184 0 -299 120l55 70q88 -100 238 -100q94 0 153.5 46t59.5 117.5t-58.5 119t-144.5 47.5h-129v81h129q76 0 127 41t51 101q0 63 -54 103t-138 40q-133 0 -205 -88l-51 66q96 113 266 112 q121 0 198.5 -62.5t77.5 -158.5q0 -63 -37.5 -115.5t-103.5 -79.5z" glyph-name="three.dnom" horiz-adv-x="671"/><glyph d="M686 287v-88h-115v-199h-94v199h-411l-21 75l426 574h100v-561h115zM143 287h334v446z" glyph-name="four.dnom" horiz-adv-x="710"/><glyph d="M381 532q125 0 208 -77.5t83 -194.5t-88 -195.5t-224 -78.5q-172 0 -290 129l49 73q92 -113 235 -112q96 0 158.5 54t62.5 134q0 78 -58 131.5t-146 53.5q-111 0 -185 -70l-80 24l41 445h467v-86h-389l-24 -285q76 55 180 55z" glyph-name="five.dnom" horiz-adv-x="708"/><glyph d="M383 530q119 0 197.5 -76.5t78.5 -189.5q0 -119 -89 -198.5t-222 -79.5q-143 0 -229 87t-86 238q0 197 141 351.5t369 199.5l18 -86q-160 -37 -266.5 -129t-142.5 -213q75 96 231 96zM348 74q92 0 153.5 54t61.5 136q0 78 -59.5 130t-147.5 52t-157.5 -46t-69.5 -128 q0 -86 60.5 -142t158.5 -56z" glyph-name="six.dnom" horiz-adv-x="688"/><glyph d="M57 848h549v-72l-368 -776h-105l361 760h-437v88z" glyph-name="seven.dnom" horiz-adv-x="655"/><glyph d="M483 438q76 -31 119 -85t43 -126q0 -102 -88 -171.5t-219 -69.5q-129 0 -216 69.5t-87 171.5q0 145 160 211q-66 29 -104 82t-38 117q0 96 82 160.5t203 64.5q123 0 206 -64.5t83 -160.5q-1 -133 -144 -199zM150 626.5q0 -63.5 54 -105.5t134 -42q82 0 137 42t55 105.5 t-54 105.5t-138 42q-80 0 -134 -42t-54 -105.5zM338 74q90 0 150.5 46t60.5 116q0 68 -60.5 113.5t-150.5 45.5q-88 0 -147.5 -46t-59.5 -113q0 -70 59.5 -116t147.5 -46z" glyph-name="eight.dnom" horiz-adv-x="679"/><glyph d="M344 862q143 0 228 -87t85 -238q0 -201 -141 -360t-366 -191l-21 86q164 29 269.5 124t142.5 220q-76 -98 -232 -99q-119 0 -197.5 77t-78.5 190q0 119 89 198.5t222 79.5zM336 401q88 0 156.5 46.5t68.5 127.5q0 88 -60.5 143.5t-158.5 55.5q-90 0 -151.5 -54 t-61.5 -136q0 -78 58.5 -130.5t148.5 -52.5z" glyph-name="nine.dnom" horiz-adv-x="688"/><glyph d="M397.5 551q-143.5 0 -233.5 123t-90 315.5t90 315t233.5 122.5t234.5 -122.5t91 -315t-91 -315.5t-234.5 -123zM397.5 641q100.5 0 165 97.5t64.5 251t-64.5 250.5t-165 97t-164 -97t-63.5 -250.5t63.5 -251t164 -97.5z" glyph-name="zero.numr" horiz-adv-x="811"/><glyph d="M274 1413h66v-848h-92v738l-180 -101l-41 76z" glyph-name="one.numr" horiz-adv-x="450"/><glyph d="M188 653h416v-88h-549v74l336 365q96 104 96 182q0 66 -48 107.5t-120 41.5q-129 0 -204 -123l-68 58q43 74 117 115.5t160 41.5q113 0 185.5 -66.5t72.5 -170.5q0 -115 -111 -232z" glyph-name="two.numr" horiz-adv-x="653"/><glyph d="M471 1012q76 -25 121 -84.5t45 -134.5q0 -104 -85 -173t-216 -69q-184 0 -299 121l55 69q88 -100 238 -100q94 0 153.5 46t59.5 118t-58.5 119t-144.5 47h-129v82h129q76 0 127 41t51 100q0 63 -54 103t-138 40q-133 0 -205 -88l-51 66q96 113 266 112q121 0 198.5 -62 t77.5 -159q0 -63 -37.5 -115t-103.5 -79z" glyph-name="three.numr" horiz-adv-x="671"/><glyph d="M686 852v-88h-115v-199h-94v199h-411l-21 76l426 573h100v-561h115zM143 852h334v446z" glyph-name="four.numr" horiz-adv-x="710"/><glyph d="M381 1098q125 0 208 -78t83 -194.5t-88 -195.5t-224 -79q-172 0 -290 129l49 74q92 -113 235 -113q96 0 158.5 54.5t62.5 133.5q0 78 -58 131.5t-146 53.5q-111 0 -185 -70l-80 25l41 444h467v-86h-389l-24 -285q76 56 180 56z" glyph-name="five.numr" horiz-adv-x="708"/><glyph d="M383 1096q119 0 197.5 -77t78.5 -190q0 -119 -89 -198.5t-222 -79.5q-143 0 -229 87t-86 239q0 197 141 351t369 199l18 -86q-160 -37 -266.5 -129t-142.5 -213q75 97 231 97zM348 639q92 0 153.5 54.5t61.5 135.5q0 78 -59.5 130.5t-147.5 52.5t-157.5 -46t-69.5 -128 q0 -86 60.5 -142.5t158.5 -56.5z" glyph-name="six.numr" horiz-adv-x="688"/><glyph d="M57 1413h549v-72l-368 -776h-105l361 760h-437v88z" glyph-name="seven.numr" horiz-adv-x="655"/><glyph d="M483 1004q76 -31 119 -85.5t43 -125.5q0 -102 -88 -172t-219 -70q-129 0 -216 69.5t-87 172.5q0 145 160 211q-66 29 -104 82t-38 116q0 96 82 160.5t203 64.5q123 0 206 -64.5t83 -160.5q-1 -132 -144 -198zM150 1191.5q0 -63.5 54 -105.5t134 -42q82 0 137 42t55 105.5 t-54 105.5t-138 42q-80 0 -134 -42t-54 -105.5zM338 639q90 0 150.5 46t60.5 116q0 68 -60.5 114t-150.5 46q-88 0 -147.5 -46.5t-59.5 -113.5q0 -70 59.5 -116t147.5 -46z" glyph-name="eight.numr" horiz-adv-x="679"/><glyph d="M344 1427q143 0 228 -87t85 -238q0 -201 -141 -359.5t-366 -191.5l-21 86q164 29 269.5 124t142.5 220q-76 -98 -232 -98q-119 0 -197.5 76.5t-78.5 189.5q0 119 89 198.5t222 79.5zM336 967q88 0 156.5 46t68.5 128q0 88 -60.5 143t-158.5 55q-90 0 -151.5 -54 t-61.5 -136q0 -78 58.5 -130t148.5 -52z" glyph-name="nine.numr" horiz-adv-x="688"/><glyph d="M248 1235q-41 0 -68.5 26.5t-27.5 67.5t27.5 67.5t68.5 26.5t67.5 -26.5t26.5 -67.5q0 -39 -27.5 -66.5t-66.5 -27.5zM184 0v348l6 703h113l6 -703v-348h-125z" glyph-name="exclamdown.aalt" horiz-adv-x="493"/><glyph d="M549 1235q-41 0 -68.5 26.5t-27.5 67.5t27.5 67.5t68.5 26.5t67.5 -26.5t26.5 -67.5q0 -39 -26.5 -66.5t-67.5 -27.5zM545 -25q-174 0 -292 104.5t-118 258.5q0 80 36 155.5t88 133t104.5 111t88 112.5t35.5 117v75h123v-75q0 -70 -35.5 -137.5t-87 -123t-101.5 -109.5 t-86 -119.5t-36 -131.5q0 -109 81 -179.5t204 -70.5q109 0 204 57.5t158 153.5l88 -80q-74 -117 -195.5 -184.5t-258.5 -67.5z" glyph-name="questiondown.aalt" horiz-adv-x="1040"/><glyph d="M233.5 610q-40.5 0 -68.5 28t-28 69t28 68.5t68.5 27.5t69.5 -27.5t29 -68.5t-29 -69t-69.5 -28z" glyph-name="periodcentered.aalt" horiz-adv-x="466"/><glyph d="M305 539q-72 0 -120 48t-48 119.5t48 119.5t120 48t120 -48t48 -119.5t-48 -119.5t-120 -48z" glyph-name="bullet.aalt" horiz-adv-x="610"/><glyph d="M477 1114l35 -14l178 -103l-41 -67l-178 100l-29 23l7 -35v-205h-82v205l6 35l-29 -23l-178 -100l-41 67l180 105l29 12l-29 12l-180 103l41 69l180 -102l27 -22l-6 34v205h82v-205l-7 -34l29 22l178 102l41 -69l-178 -103z" glyph-name="asterisk.aalt" horiz-adv-x="815"/><glyph d="M47 -215l819 1843h121l-819 -1843h-121z" glyph-name="slash.case" horiz-adv-x="1034"/><glyph d="M866 -215l-819 1843h121l819 -1843h-121z" glyph-name="backslash.aalt" horiz-adv-x="1034"/><glyph d="M477 -256q-131 174 -210 437t-79 525.5t79 525.5t210 437h121q-129 -174 -207 -437t-78 -525.5t78 -525.5t207 -437h-121z" glyph-name="parenleft.aalt" horiz-adv-x="667"/><glyph d="M72 -256q129 174 206.5 437t77.5 525.5t-77.5 525.5t-206.5 437h121q129 -174 208.5 -437t79.5 -525.5t-79.5 -525.5t-208.5 -437h-121z" glyph-name="parenright.aalt" horiz-adv-x="667"/><glyph d="M459 852q0 -47 -26.5 -87t-72.5 -56q45 -18 72 -58.5t27 -87.5v-563q0 -61 40 -102t99 -41h131v-113h-170q-96 0 -158.5 63.5t-62.5 161.5v568q0 51 -32 82.5t-79 31.5h-80v113h80q47 0 79 31.5t32 83.5v565q0 98 62.5 161.5t158.5 63.5h170v-113h-131q-59 0 -99 -40.5 t-40 -102.5v-561z" glyph-name="braceleft.aalt" horiz-adv-x="815"/><glyph d="M590 764h80v-113h-80q-49 0 -80 -31.5t-31 -82.5v-568q0 -98 -63.5 -161.5t-159.5 -63.5h-168v113h129q59 0 99 41t40 102v563q0 47 27 87t72 59q-45 16 -72 56t-27 87v561q0 61 -40 102t-99 41h-129v113h168q96 0 159.5 -63.5t63.5 -161.5v-565q0 -51 31 -83t80 -32z " glyph-name="braceright.aalt" horiz-adv-x="815"/><glyph d="M608 1556h-278v-1699h278v-113h-399v1925h399v-113z" glyph-name="bracketleft.aalt" horiz-adv-x="694"/><glyph d="M88 1669h399v-1925h-399v113h277v1699h-277v113z" glyph-name="bracketright.aalt" horiz-adv-x="694"/><glyph d="M137 651v113h561v-113h-561z" glyph-name="hyphen.aalt" horiz-adv-x="835"/><glyph d="M137 653v109h971v-109h-971z" glyph-name="endash.aalt" horiz-adv-x="1245"/><glyph d="M137 653v109h1913v-109h-1913z" glyph-name="emdash.aalt" horiz-adv-x="2187"/><glyph d="M623 1120l-359 -413l359 -414h-142l-360 414l360 413h142zM1098 1120l-361 -413l361 -414h-144l-358 414l358 413h144z" glyph-name="guillemotleft.aalt" horiz-adv-x="1234"/><glyph d="M285 1120l358 -413l-358 -414h-144l359 414l-359 413h144zM758 1120l358 -413l-358 -414h-144l361 414l-361 413h144z" glyph-name="guillemotright.aalt" horiz-adv-x="1234"/><glyph d="M623 1120l-359 -413l359 -414h-142l-360 414l360 413h142z" glyph-name="guilsinglleft.aalt" horiz-adv-x="759"/><glyph d="M285 1120l358 -413l-358 -414h-144l359 414l-359 413h144z" glyph-name="guilsinglright.aalt" horiz-adv-x="759"/><glyph d="M956 762v-109h-354v-356h-110v356h-355v109h355v354h110v-354h354z" glyph-name="plus.aalt" horiz-adv-x="1093"/><glyph d="M1110 1059h119v-518q0 -47 29.5 -77t78.5 -30q74 0 120 86t46 219q0 258 -181 430t-450 172q-272 0 -453 -181t-181 -453.5t181 -453.5t453 -181q244 0 406 135l65 -92q-207 -152 -473 -152q-319 0 -533 213t-214 530.5t215 530.5t534 213q317 0 531.5 -204t214.5 -509 q0 -178 -77 -289.5t-204 -111.5q-84 0 -144 41t-77 108q-92 -158 -287 -157q-160 0 -264 108.5t-104 268.5q0 162 104.5 270t257.5 108q188 0 287 -155v131zM848 444q113 0 187.5 75t74.5 188q0 111 -74.5 185.5t-187.5 74.5t-187.5 -74t-74.5 -186.5t74.5 -187.5t187.5 -75 z" glyph-name="at.aalt" horiz-adv-x="1732"/><glyph d="M-158 1092l43 383h115l-66 -383h-92z" glyph-name="glyph611" horiz-adv-x="0"/><glyph d="M0 1092l43 383h115l-66 -383h-92z" glyph-name="glyph612" horiz-adv-x="157"/></font>
</defs>
</svg>
